<svg viewBox="0 0 40 42" fill="none" xmlns="http://www.w3.org/2000/svg">
<g filter="url(#filter0_d_2270_11638)">
<circle cx="20" cy="18" r="18" fill="white"/>
<path d="M26.043 14.6665L28.168 11.8332C28.2606 11.7093 28.317 11.5621 28.3307 11.4081C28.3445 11.254 28.3152 11.0992 28.246 10.9608C28.1768 10.8225 28.0706 10.7061 27.939 10.6247C27.8075 10.5433 27.656 10.5001 27.5013 10.4998H17.5013C17.5013 10.2788 17.4135 10.0669 17.2572 9.91058C17.1009 9.7543 16.889 9.6665 16.668 9.6665C16.447 9.6665 16.235 9.7543 16.0787 9.91058C15.9224 10.0669 15.8346 10.2788 15.8346 10.4998V24.6665H15.0013C14.7803 24.6665 14.5683 24.7543 14.412 24.9106C14.2558 25.0669 14.168 25.2788 14.168 25.4998C14.168 25.7209 14.2558 25.9328 14.412 26.0891C14.5683 26.2454 14.7803 26.3332 15.0013 26.3332H18.3346C18.5556 26.3332 18.7676 26.2454 18.9239 26.0891C19.0802 25.9328 19.168 25.7209 19.168 25.4998C19.168 25.2788 19.0802 25.0669 18.9239 24.9106C18.7676 24.7543 18.5556 24.6665 18.3346 24.6665H17.5013V18.8332H27.5013C27.656 18.833 27.8075 18.7897 27.939 18.7083C28.0706 18.6269 28.1768 18.5105 28.246 18.3722C28.3152 18.2339 28.3445 18.079 28.3307 17.9249C28.317 17.7709 28.2606 17.6237 28.168 17.4998L26.043 14.6665Z" fill="#00272C"/>
</g>
<defs>
<filter id="filter0_d_2270_11638" x="0" y="0" width="40" height="42" filterUnits="userSpaceOnUse" color-interpolation-filters="sRGB">
<feFlood flood-opacity="0" result="BackgroundImageFix"/>
<feColorMatrix in="SourceAlpha" type="matrix" values="0 0 0 0 0 0 0 0 0 0 0 0 0 0 0 0 0 0 127 0" result="hardAlpha"/>
<feOffset dy="4"/>
<feGaussianBlur stdDeviation="1"/>
<feComposite in2="hardAlpha" operator="out"/>
<feColorMatrix type="matrix" values="0 0 0 0 0 0 0 0 0 0 0 0 0 0 0 0 0 0 0.2 0"/>
<feBlend mode="normal" in2="BackgroundImageFix" result="effect1_dropShadow_2270_11638"/>
<feBlend mode="normal" in="SourceGraphic" in2="effect1_dropShadow_2270_11638" result="shape"/>
</filter>
</defs>
</svg>
