<svg width="13" height="13" viewBox="0 0 13 13" fill="none" xmlns="http://www.w3.org/2000/svg">
<path d="M6.5 0C7.35359 -1.27195e-08 8.19883 0.168127 8.98744 0.494783C9.77606 0.821439 10.4926 1.30023 11.0962 1.90381C11.6998 2.50739 12.1786 3.22394 12.5052 4.01256C12.8319 4.80117 13 5.64641 13 6.5C13 7.35359 12.8319 8.19883 12.5052 8.98744C12.1786 9.77606 11.6998 10.4926 11.0962 11.0962C10.4926 11.6998 9.77606 12.1786 8.98744 12.5052C8.19883 12.8319 7.35359 13 6.5 13C4.77609 13 3.12279 12.3152 1.90381 11.0962C0.684819 9.87721 0 8.22391 0 6.5C0 4.77609 0.684819 3.12279 1.90381 1.90381C3.12279 0.684819 4.77609 2.56882e-08 6.5 0ZM8.79667 4.511L5.6875 7.62883L4.17517 6.1165C4.1248 6.06614 4.06502 6.02619 3.99922 5.99893C3.93341 5.97168 3.86289 5.95765 3.79167 5.95765C3.72044 5.95765 3.64992 5.97168 3.58412 5.99893C3.51832 6.02619 3.45853 6.06614 3.40817 6.1165C3.3578 6.16686 3.31786 6.22665 3.2906 6.29245C3.26334 6.35825 3.24932 6.42878 3.24932 6.5C3.24932 6.57122 3.26334 6.64175 3.2906 6.70755C3.31786 6.77335 3.3578 6.83314 3.40817 6.8835L5.304 8.77933C5.35432 8.82978 5.41409 8.8698 5.4799 8.89711C5.5457 8.92441 5.61625 8.93847 5.6875 8.93847C5.75875 8.93847 5.8293 8.92441 5.8951 8.89711C5.96091 8.8698 6.02068 8.82978 6.071 8.77933L9.56367 5.27583C9.6622 5.17354 9.71661 5.03663 9.71518 4.8946C9.71375 4.75258 9.65659 4.61679 9.55602 4.5165C9.45544 4.41621 9.3195 4.35944 9.17747 4.35841C9.03544 4.35738 8.89868 4.41218 8.79667 4.511Z" fill="#00272C"/>
</svg>
