<svg width="40" height="42" viewBox="0 0 40 42" fill="none" xmlns="http://www.w3.org/2000/svg">
<g filter="url(#filter0_d_2270_11606)">
<circle cx="20" cy="18" r="18" fill="white"/>
<g clip-path="url(#clip0_2270_11606)">
<path d="M29.4608 16.699C29.4603 16.6986 29.4599 16.6981 29.4594 16.6977L21.301 8.53955C20.9532 8.19165 20.4909 8 19.9991 8C19.5073 8 19.045 8.1915 18.6971 8.5394L10.5429 16.6934C10.5402 16.6961 10.5374 16.699 10.5347 16.7018C9.82058 17.42 9.8218 18.5853 10.5382 19.3017C10.8655 19.6292 11.2978 19.8188 11.76 19.8387C11.7787 19.8405 11.7977 19.8414 11.8167 19.8414H12.1419V25.8453C12.1419 27.0334 13.1085 28 14.2969 28H17.4887C17.8122 28 18.0747 27.7377 18.0747 27.4141V22.707C18.0747 22.1649 18.5156 21.7239 19.0578 21.7239H20.9404C21.4826 21.7239 21.9235 22.1649 21.9235 22.707V27.4141C21.9235 27.7377 22.1858 28 22.5095 28H25.7013C26.8897 28 27.8563 27.0334 27.8563 25.8453V19.8414H28.1578C28.6495 19.8414 29.1118 19.6499 29.4599 19.302C30.177 18.5844 30.1773 17.4171 29.4608 16.699Z" fill="#00272C"/>
</g>
</g>
<defs>
<filter id="filter0_d_2270_11606" x="0" y="0" width="40" height="42" filterUnits="userSpaceOnUse" color-interpolation-filters="sRGB">
<feFlood flood-opacity="0" result="BackgroundImageFix"/>
<feColorMatrix in="SourceAlpha" type="matrix" values="0 0 0 0 0 0 0 0 0 0 0 0 0 0 0 0 0 0 127 0" result="hardAlpha"/>
<feOffset dy="4"/>
<feGaussianBlur stdDeviation="1"/>
<feComposite in2="hardAlpha" operator="out"/>
<feColorMatrix type="matrix" values="0 0 0 0 0 0 0 0 0 0 0 0 0 0 0 0 0 0 0.2 0"/>
<feBlend mode="normal" in2="BackgroundImageFix" result="effect1_dropShadow_2270_11606"/>
<feBlend mode="normal" in="SourceGraphic" in2="effect1_dropShadow_2270_11606" result="shape"/>
</filter>
<clipPath id="clip0_2270_11606">
<rect width="20" height="20" fill="white" transform="translate(10 8)"/>
</clipPath>
</defs>
</svg>
