<svg viewBox="0 0 24 24" fill="none" xmlns="http://www.w3.org/2000/svg">
<circle cx="12" cy="12" r="8" fill="#E5FD34"/>
<path fill-rule="evenodd" clip-rule="evenodd" d="M12 2C6.477 2 2 6.477 2 12C2 17.523 6.477 22 12 22C17.523 22 22 17.523 22 12C22 6.477 17.523 2 12 2ZM12 3C12 5.38695 11.0518 7.67613 9.36396 9.36396C7.67613 11.0518 5.38695 12 3 12C5.38695 12 7.67613 12.9482 9.36396 14.636C11.0518 16.3239 12 18.6131 12 21C12 18.6131 12.9482 16.3239 14.636 14.636C16.3239 12.9482 18.6131 12 21 12C18.6131 12 16.3239 11.0518 14.636 9.36396C12.9482 7.67613 12 5.38695 12 3Z" fill="#0A5F65"/>
</svg>
