<svg width="16" height="17" viewBox="0 0 16 17" fill="none" xmlns="http://www.w3.org/2000/svg">
<path d="M2 4C2 3.60218 2.15804 3.22064 2.43934 2.93934C2.72064 2.65804 3.10218 2.5 3.5 2.5H11C11.5304 2.5 12.0391 2.71071 12.4142 3.08579C12.7893 3.46086 13 3.96957 13 4.5V4.768C13.304 4.94353 13.5565 5.196 13.732 5.50003C13.9076 5.80406 14 6.14894 14 6.5V12.5C14 13.0304 13.7893 13.5391 13.4142 13.9142C13.0391 14.2893 12.5304 14.5 12 14.5H4.5C3.83696 14.5 3.20107 14.2366 2.73223 13.7678C2.26339 13.2989 2 12.663 2 12V4ZM3 4C3 4.13261 3.05268 4.25979 3.14645 4.35355C3.24021 4.44732 3.36739 4.5 3.5 4.5H12C12 4.23478 11.8946 3.98043 11.7071 3.79289C11.5196 3.60536 11.2652 3.5 11 3.5H3.5C3.36739 3.5 3.24021 3.55268 3.14645 3.64645C3.05268 3.74021 3 3.86739 3 4ZM10.5 8.5C10.3674 8.5 10.2402 8.55268 10.1464 8.64645C10.0527 8.74021 10 8.86739 10 9C10 9.13261 10.0527 9.25979 10.1464 9.35355C10.2402 9.44732 10.3674 9.5 10.5 9.5H11.5C11.6326 9.5 11.7598 9.44732 11.8536 9.35355C11.9473 9.25979 12 9.13261 12 9C12 8.86739 11.9473 8.74021 11.8536 8.64645C11.7598 8.55268 11.6326 8.5 11.5 8.5H10.5Z" fill="#00272C"/>
</svg>
