<svg width="24" height="24" viewBox="0 0 24 24" fill="none" xmlns="http://www.w3.org/2000/svg">
<path d="M5.556 18H18.444C19.3871 18 20.2916 17.6254 20.9585 16.9585C21.6254 16.2916 22 15.3871 22 14.444V12C22 11.4696 21.7893 10.9609 21.4142 10.5858C21.0391 10.2107 20.5304 10 20 10C19.4696 10 18.9609 10.2107 18.5858 10.5858C18.2107 10.9609 18 11.4696 18 12V13.2C18 13.4122 17.9157 13.6157 17.7657 13.7657C17.6157 13.9157 17.4122 14 17.2 14H6.8C6.58783 14 6.38434 13.9157 6.23431 13.7657C6.08429 13.6157 6 13.4122 6 13.2V12C6 11.4696 5.78929 10.9609 5.41421 10.5858C5.03914 10.2107 4.53043 10 4 10C3.46957 10 2.96086 10.2107 2.58579 10.5858C2.21071 10.9609 2 11.4696 2 12V14.444C2 15.3871 2.37465 16.2916 3.04153 16.9585C3.70841 17.6254 4.61289 18 5.556 18Z" stroke="#222222" stroke-width="1.5"/>
<path d="M20 10C20 9.07 20 8.606 19.923 8.22C19.7687 7.44401 19.3877 6.73121 18.8282 6.17175C18.2688 5.6123 17.556 5.23132 16.78 5.077C16.394 5 15.93 5 15 5H9C8.07 5 7.606 5 7.22 5.077C6.44401 5.23132 5.73121 5.6123 5.17175 6.17175C4.6123 6.73121 4.23132 7.44401 4.077 8.22C4 8.606 4 9.07 4 10" stroke="#222222" stroke-width="1.5"/>
<path d="M20 19V18M4 19V18" stroke="#222222" stroke-width="1.5" stroke-linecap="round"/>
</svg>
