<svg width="48" height="48" viewBox="0 0 48 48" fill="none" xmlns="http://www.w3.org/2000/svg">
<path d="M23.9964 4C17.9809 4 14.0804 8.03798 9.46742 9.5098C7.59178 10.1083 6.65395 10.4075 6.27441 10.8293C5.89487 11.2511 5.78373 11.8675 5.56145 13.1003C3.18287 26.292 8.3818 38.488 20.7806 43.235C22.1128 43.745 22.7788 44 24.003 44C25.227 44 25.8932 43.745 27.2252 43.235C39.6232 38.4878 44.8172 26.292 42.438 13.1003C42.2156 11.8673 42.1044 11.2508 41.7248 10.829C41.3452 10.4072 40.4074 10.1081 38.5318 9.50998C33.917 8.0383 30.0122 4 23.9964 4Z" stroke="#222222" stroke-width="2" stroke-linecap="round" stroke-linejoin="round"/>
<path d="M20 25C20 25 21 25 22 27C22 27 25.1764 22 28 21" stroke="#222222" stroke-width="2" stroke-linecap="round" stroke-linejoin="round"/>
<path d="M34 24C34 29.5228 29.5228 34 24 34C18.4772 34 14 29.5228 14 24C14 18.4772 18.4772 14 24 14C29.5228 14 34 18.4772 34 24Z" stroke="#222222" stroke-width="2" stroke-linecap="round"/>
</svg>
