<svg width="16" height="17" viewBox="0 0 16 17" fill="none" xmlns="http://www.w3.org/2000/svg">
<path d="M14.6654 12.1665H1.33203" stroke="#1E1E1E" stroke-linecap="round" stroke-linejoin="round"/>
<path d="M14.6654 14.5V11.1667C14.6654 9.9096 14.6654 9.28107 14.2748 8.89053C13.8843 8.5 13.2558 8.5 11.9987 8.5H3.9987C2.74162 8.5 2.11308 8.5 1.72256 8.89053C1.33203 9.28107 1.33203 9.9096 1.33203 11.1667V14.5" stroke="#1E1E1E" stroke-linecap="round" stroke-linejoin="round"/>
<path d="M7.33333 8.5V7.30893C7.33333 7.05515 7.2952 6.97027 7.0998 6.87025C6.693 6.66195 6.1991 6.5 5.66667 6.5C5.13423 6.5 4.64037 6.66195 4.2335 6.87025C4.03814 6.97027 4 7.05515 4 7.30893V8.5" stroke="#1E1E1E" stroke-linecap="round"/>
<path d="M12.0013 8.5V7.30893C12.0013 7.05515 11.9632 6.97027 11.7678 6.87025C11.361 6.66195 10.8671 6.5 10.3346 6.5C9.80217 6.5 9.3083 6.66195 8.9015 6.87025C8.7061 6.97027 8.66797 7.05515 8.66797 7.30893V8.5" stroke="#1E1E1E" stroke-linecap="round"/>
<path d="M14 8.5V5.40705C14 4.94595 14 4.71541 13.8719 4.49769C13.7438 4.27997 13.5613 4.16727 13.1963 3.94189C11.7246 3.03319 9.93287 2.5 8 2.5C6.06711 2.5 4.27543 3.03319 2.80372 3.94189C2.43869 4.16727 2.25618 4.27997 2.12809 4.49769C2 4.71541 2 4.94595 2 5.40705V8.5" stroke="#1E1E1E" stroke-linecap="round"/>
</svg>
