<svg width="48" height="48" viewBox="0 0 48 48" fill="none" xmlns="http://www.w3.org/2000/svg">
<path d="M8.17697 19.5682C8.10103 19.4597 8.04738 19.3373 8.01912 19.2079C7.99087 19.0786 7.98859 18.9449 8.0124 18.8147C8.03622 18.6844 8.08566 18.5602 8.15785 18.4492C8.23005 18.3383 8.32357 18.2427 8.43298 18.1682L21.699 9.02016C22.6741 8.36317 23.8232 8.01221 24.999 8.01221C26.1748 8.01221 27.3238 8.36317 28.299 9.02016L41.565 18.1682C41.7835 18.3188 41.9333 18.5501 41.9813 18.8111C42.0293 19.0722 41.9716 19.3416 41.821 19.5602C41.6703 19.7787 41.439 19.9284 41.178 19.9765C40.9169 20.0245 40.6475 19.9668 40.429 19.8162L27.167 10.6742C26.527 10.2429 25.7727 10.0125 25.001 10.0125C24.2292 10.0125 23.475 10.2429 22.835 10.6742L9.56897 19.8242C9.4608 19.8989 9.33896 19.9515 9.21043 19.9791C9.08189 20.0066 8.94918 20.0086 8.8199 19.9848C8.69061 19.961 8.56728 19.912 8.45696 19.8405C8.34664 19.769 8.2515 19.6765 8.17697 19.5682ZM42.001 41.0002C42.001 41.2654 41.8956 41.5197 41.7081 41.7073C41.5205 41.8948 41.2662 42.0002 41.001 42.0002H9.00098C8.73576 42.0002 8.4814 41.8948 8.29387 41.7073C8.10633 41.5197 8.00098 41.2654 8.00098 41.0002C8.00098 40.7349 8.10633 40.4806 8.29387 40.2931C8.4814 40.1055 8.73576 40.0002 9.00098 40.0002H13.001V37.8162C12.4181 37.6101 11.9131 37.2289 11.5551 36.7249C11.1971 36.2208 11.0035 35.6184 11.001 35.0002V31.8282C11 31.4343 11.077 31.0442 11.2277 30.6803C11.3784 30.3164 11.5998 29.986 11.879 29.7082L12.587 29.0002L11.293 27.7082C11.2 27.6152 11.1262 27.5048 11.0759 27.3833C11.0256 27.2619 10.9997 27.1317 10.9997 27.0002C10.9997 26.8687 11.0256 26.7385 11.0759 26.617C11.1262 26.4955 11.2 26.3851 11.293 26.2922C11.4807 26.1044 11.7354 25.9989 12.001 25.9989C12.1325 25.9989 12.2627 26.0248 12.3841 26.0751C12.5056 26.1254 12.616 26.1992 12.709 26.2922L13.727 27.3122L16.553 21.6582C16.8009 21.1588 17.1838 20.7388 17.6581 20.4458C18.1325 20.1527 18.6794 19.9984 19.237 20.0002H30.765C31.3225 19.9984 31.8695 20.1527 32.3438 20.4458C32.8182 20.7388 33.201 21.1588 33.449 21.6582L36.275 27.3122L37.293 26.2922C37.4807 26.1044 37.7354 25.9989 38.001 25.9989C38.2665 25.9989 38.5212 26.1044 38.709 26.2922C38.8967 26.4799 39.0022 26.7346 39.0022 27.0002C39.0022 27.2657 38.8967 27.5204 38.709 27.7082L37.415 29.0002L38.123 29.7082C38.4022 29.986 38.6235 30.3164 38.7742 30.6803C38.9249 31.0442 39.002 31.4343 39.001 31.8282V35.0002C38.9984 35.6184 38.8049 36.2208 38.4469 36.7249C38.0889 37.2289 37.5839 37.6101 37.001 37.8162V40.0002H41.001C41.2662 40.0002 41.5205 40.1055 41.7081 40.2931C41.8956 40.4806 42.001 40.7349 42.001 41.0002ZM37.001 31.8282C37.0009 31.5635 36.8959 31.3096 36.709 31.1222L35.587 30.0002H14.415L13.293 31.1222C13.106 31.3096 13.001 31.5635 13.001 31.8282V35.0002C13.001 35.2654 13.1063 35.5197 13.2939 35.7073C13.4814 35.8948 13.7358 36.0002 14.001 36.0002H36.001C36.2662 36.0002 36.5205 35.8948 36.7081 35.7073C36.8956 35.5197 37.001 35.2654 37.001 35.0002V31.8282ZM15.619 28.0002H34.383L31.659 22.5522C31.5758 22.3863 31.4482 22.2468 31.2903 22.1493C31.1324 22.0518 30.9505 22.0002 30.765 22.0002H19.237C19.0514 22.0002 18.8695 22.0518 18.7116 22.1493C18.5538 22.2468 18.4261 22.3863 18.343 22.5522L15.619 28.0002ZM19.001 40.0002V38.0002H15.001V40.0002H19.001ZM29.001 40.0002V38.0002H21.001V40.0002H29.001ZM35.001 40.0002V38.0002H31.001V40.0002H35.001ZM18.001 32.0002H16.001C15.7358 32.0002 15.4814 32.1055 15.2939 32.2931C15.1063 32.4806 15.001 32.7349 15.001 33.0002C15.001 33.2654 15.1063 33.5197 15.2939 33.7073C15.4814 33.8948 15.7358 34.0002 16.001 34.0002H18.001C18.2662 34.0002 18.5205 33.8948 18.7081 33.7073C18.8956 33.5197 19.001 33.2654 19.001 33.0002C19.001 32.7349 18.8956 32.4806 18.7081 32.2931C18.5205 32.1055 18.2662 32.0002 18.001 32.0002ZM34.001 32.0002H32.001C31.7358 32.0002 31.4814 32.1055 31.2939 32.2931C31.1063 32.4806 31.001 32.7349 31.001 33.0002C31.001 33.2654 31.1063 33.5197 31.2939 33.7073C31.4814 33.8948 31.7358 34.0002 32.001 34.0002H34.001C34.2662 34.0002 34.5205 33.8948 34.7081 33.7073C34.8956 33.5197 35.001 33.2654 35.001 33.0002C35.001 32.7349 34.8956 32.4806 34.7081 32.2931C34.5205 32.1055 34.2662 32.0002 34.001 32.0002Z" fill="#222222"/>
</svg>
