<svg width="48" height="48" viewBox="0 0 48 48" fill="none" xmlns="http://www.w3.org/2000/svg">
<path d="M30 26V28C30 33.6568 30 36.4852 31.7574 38.2426C33.5148 40 36.3432 40 42 40" stroke="#222222" stroke-width="2" stroke-linejoin="round"/>
<path d="M41.3828 36V44" stroke="#222222" stroke-width="2" stroke-linecap="round" stroke-linejoin="round"/>
<path d="M18 21.6584L16.9256 21.7778C15.3183 21.9564 14.5146 22.0458 13.8744 21.9764C10.7496 21.6378 8.2866 18.8687 8.01632 15.3905C7.96094 14.6779 8.05014 13.7853 8.22852 12" stroke="#222222" stroke-width="2" stroke-linejoin="round"/>
<path d="M27.3828 14H27.4008" stroke="#222222" stroke-width="2" stroke-linecap="round" stroke-linejoin="round"/>
<path d="M34 14H43" stroke="#222222" stroke-width="2" stroke-linecap="round" stroke-linejoin="round"/>
<path d="M4.492 8.4483C4.04796 6.65464 3.82594 5.7578 4.16364 5.0902C4.27848 4.86314 4.43528 4.66034 4.62554 4.49276C5.18498 4 6.10038 4 7.9312 4H33.1074C39.1232 4 44 8.92486 44 15C44 21.0752 39.1232 26 33.1074 26H23.6102C21.9786 26 21.1626 26 20.4618 25.7206C19.9213 25.5052 19.4344 25.1722 19.0356 24.7454C18.5184 24.192 18.2154 23.427 17.6093 21.897L16.5345 19.1833C15.9129 17.614 15.6021 16.8294 15.0272 16.2488C14.4523 15.6683 13.6753 15.3544 12.1213 14.7267L8.7372 13.3597C7.2837 12.7725 6.55696 12.479 6.01148 11.9618C5.82026 11.7804 5.64734 11.5804 5.49528 11.3645C5.06152 10.7489 4.87168 9.98202 4.492 8.4483Z" stroke="#222222" stroke-width="2" stroke-linejoin="round"/>
</svg>
