<svg width="48" height="48" viewBox="0 0 48 48" fill="none" xmlns="http://www.w3.org/2000/svg">
<path d="M16 36L14 44M32 36L34 44" stroke="#222222" stroke-width="2" stroke-linecap="round" stroke-linejoin="round"/>
<path d="M36 18C32.5938 18 32 22 32 22C31.5266 23.8936 31.3192 28.2882 29.6692 29.5764C29.1268 30 28.3768 30 26.8768 30H21.1232C19.6232 30 18.8733 30 18.3307 29.5764C16.6808 28.2882 16.4734 23.8936 16 22C16 22 15.4062 18 12 18C9.79086 18 8 19.7909 8 22C8 23.4806 8.8044 24.7732 10 25.4648L10.7645 29.492C11.3555 32.6052 11.651 34.1618 12.761 35.081C13.871 36 15.4554 36 18.6242 36H29.3758C32.5446 36 34.129 36 35.239 35.081C36.349 34.1618 36.6444 32.6052 37.2354 29.492L38 25.4648C39.1956 24.7732 40 23.4806 40 22C40 19.7909 38.2092 18 36 18Z" stroke="#222222" stroke-width="2" stroke-linecap="round" stroke-linejoin="round"/>
<path d="M17 25C18.8656 23.7552 21.3162 23 24 23C26.6838 23 29.1344 23.7552 31 25" stroke="#222222" stroke-width="2" stroke-linecap="round"/>
<path d="M14.0327 18L13.6645 15.4142C12.9083 10.1034 12.5302 7.44798 14.0205 5.724C15.5108 4 18.1844 4 23.5316 4H24.4684C29.8156 4 32.4892 4 33.9796 5.724C35.4698 7.44798 35.0918 10.1034 34.3356 15.4142L33.9674 18" stroke="#222222" stroke-width="2" stroke-linecap="round" stroke-linejoin="round"/>
</svg>
