<svg width="48" height="48" viewBox="0 0 48 48" fill="none" xmlns="http://www.w3.org/2000/svg">
<path d="M24.3004 17.2L23.6004 17.9L25.0004 19.3L25.7004 18.6C27.4004 16.8 27.4004 13.8 25.7004 12C24.7004 10.9 24.7004 9.2 25.7004 8.1L26.4004 7.4L25.0004 6L24.3004 6.7C22.6004 8.5 22.6004 11.5 24.3004 13.3C25.3004 14.4 25.3004 16.1 24.3004 17.2Z" fill="#222222"/>
<path d="M31.4 17.2C31 17.6 31 18.2 31.4 18.6C31.6 18.8 31.8 18.9 32.1 18.9C32.4 18.9 32.6 18.8 32.8 18.6C34.5 16.8 34.5 13.8 32.8 12C31.8 10.9 31.8 9.2 32.8 8.1L33.5 7.4L32.1 6L31.4 6.7C29.7 8.5 29.7 11.5 31.4 13.3C32.5 14.4 32.5 16.1 31.4 17.2Z" fill="#222222"/>
<path d="M38.5992 17.2L37.8992 17.9L39.2992 19.3L39.9992 18.6C41.6992 16.8 41.6992 13.8 39.9992 12C38.9992 10.9 38.9992 9.2 39.9992 8.1L40.6992 7.4L39.2992 6L38.5992 6.7C36.8992 8.5 36.8992 11.5 38.5992 13.3C39.5992 14.4 39.5992 16.1 38.5992 17.2Z" fill="#222222"/>
<path d="M7.1 39.3001L5.4 41.0001V43.7001H7.4V41.8001L9.8 39.4001H38.3L40.7 41.8001V43.7001H42.7V41.0001L41 39.3001C44.5 38.6001 47.1 35.6001 47.1 31.9001V23.5001H18.2V20.2001C18.2 17.4001 15.9 15.1001 13.1 15.1001C10.3 15.1001 8 17.4001 8 20.2001V23.5001H1V31.9001C1 35.6001 3.6 38.6001 7.1 39.3001ZM9.9 20.2001C9.9 18.5001 11.3 17.1001 13 17.1001C14.7 17.1001 16.1 18.5001 16.1 20.2001V23.3001H9.9V20.2001ZM3 29.6001H37.5V27.6001H3V25.5001H45V31.9001C45 34.9001 42.5 37.4001 39.5 37.4001H39.1H8.9H8.5C5.5 37.4001 3 34.9001 3 31.9001V29.6001Z" fill="#222222"/>
<path d="M13.0992 13.9999C15.7992 13.9999 17.8992 11.7999 17.8992 9.1999C17.8992 6.5999 15.6992 4.3999 13.0992 4.3999C10.4992 4.3999 8.19922 6.4999 8.19922 9.1999C8.19922 11.8999 10.3992 13.9999 13.0992 13.9999ZM13.0992 6.2999C14.6992 6.2999 15.8992 7.5999 15.8992 9.0999C15.8992 10.5999 14.5992 11.9999 13.0992 11.9999C11.5992 11.9999 10.2992 10.6999 10.2992 9.1999C10.2992 7.6999 11.4992 6.2999 13.0992 6.2999Z" fill="#222222"/>
</svg>
