<svg width="48" height="48" viewBox="0 0 48 48" fill="none" xmlns="http://www.w3.org/2000/svg">
<path d="M34 9C34 10.6569 32.6568 12 31 12C29.3432 12 28 10.6569 28 9C28 7.34314 29.3432 6 31 6C32.6568 6 34 7.34314 34 9Z" stroke="#222222" stroke-width="2"/>
<path d="M30 41.9995L28.6718 36.7677C28.2322 35.0361 27.323 33.4549 26.0414 32.1927L23 29.1977M23 29.1977C20.9844 27.6099 19.9767 26.8159 19.5863 25.7547C19.4123 25.2821 19.3293 24.7809 19.3414 24.2773C19.3686 23.1469 20.0664 22.0703 21.4618 19.9172L24 16.0007M23 29.1977L30 18.5529M12 22.3049C14 18.3654 17.0753 16.0826 24 16.0007M24 16.0007C24.4372 15.9956 25.0888 15.994 25.7396 15.9941C26.7494 15.9943 27.2542 15.9944 27.6564 16.1823C28.0586 16.3702 28.4712 16.8631 29.2964 17.849C29.5328 18.1315 29.7756 18.3845 30 18.5529M30 18.5529C32.3094 20.2847 35.9254 20.9821 40 16.3963" stroke="#222222" stroke-width="2" stroke-linecap="round" stroke-linejoin="round"/>
<path d="M8 35.4606L9.35644 35.7832C12.8133 36.6056 16.4065 35.0328 18 32" stroke="#222222" stroke-width="2" stroke-linecap="round" stroke-linejoin="round"/>
</svg>
