<svg width="48" height="48" viewBox="0 0 48 48" fill="none" xmlns="http://www.w3.org/2000/svg">
<path d="M12 38H20M36 38.018V38M4 12C4 5.38 5.38 4 12 4H36C42.62 4 44 5.38 44 12V36C44 42.62 42.62 44 36 44H12C5.38 44 4 42.62 4 36V12Z" stroke="#222222" stroke-width="2" stroke-linecap="round" stroke-linejoin="round"/>
<path d="M24 28C28.4183 28 32 24.4183 32 20C32 15.5817 28.4183 12 24 12C19.5817 12 16 15.5817 16 20C16 24.4183 19.5817 28 24 28Z" stroke="#222222" stroke-width="2" stroke-linecap="round" stroke-linejoin="round"/>
<path d="M31 20H34M24 27V30M17 20H14M24 13V10" stroke="#222222" stroke-width="2" stroke-linecap="round" stroke-linejoin="round"/>
</svg>
