<svg width="48" height="49" viewBox="0 0 48 49" fill="none" xmlns="http://www.w3.org/2000/svg">
<path d="M16 28.5C16 30.6217 16.8429 32.6566 18.3431 34.1569C19.8434 35.6571 21.8783 36.5 24 36.5C26.1217 36.5 28.1566 35.6571 29.6569 34.1569C31.1571 32.6566 32 30.6217 32 28.5M16 28.5C16 26.3783 16.8429 24.3434 18.3431 22.8431C19.8434 21.3429 21.8783 20.5 24 20.5C26.1217 20.5 28.1566 21.3429 29.6569 22.8431C31.1571 24.3434 32 26.3783 32 28.5M16 28.5C18.666 27.166 21.334 27.1655 24 28.4995C26.666 29.8335 29.334 29.834 32 28.5M16 12.5H16.02M22 12.5H22.02M28 12.5H32M10 10.5C10 9.43913 10.4214 8.42172 11.1716 7.67157C11.9217 6.92143 12.9391 6.5 14 6.5H34C35.0609 6.5 36.0783 6.92143 36.8284 7.67157C37.5786 8.42172 38 9.43913 38 10.5V38.5C38 39.5609 37.5786 40.5783 36.8284 41.3284C36.0783 42.0786 35.0609 42.5 34 42.5H14C12.9391 42.5 11.9217 42.0786 11.1716 41.3284C10.4214 40.5783 10 39.5609 10 38.5V10.5Z" stroke="black" stroke-width="2" stroke-linecap="round" stroke-linejoin="round"/>
</svg>
