<svg width="9" height="6" viewBox="0 0 12 9" fill="none" xmlns="http://www.w3.org/2000/svg">
<path d="M1.106 8.5C0.975333 8.5 0.91 8.43467 0.91 8.304V0.87C0.91 0.814 0.924 0.767333 0.952 0.73C0.989333 0.692666 1.04067 0.674 1.106 0.674H2.366C2.43133 0.674 2.478 0.692666 2.506 0.73C2.54333 0.767333 2.562 0.814 2.562 0.87V1.388C2.562 1.5 2.59 1.556 2.646 1.556C2.68333 1.556 2.73 1.528 2.786 1.472C3.08467 1.136 3.39267 0.897999 3.71 0.758C4.02733 0.608666 4.37267 0.534 4.746 0.534C5.222 0.534 5.63267 0.627333 5.978 0.814C6.33267 0.991333 6.58933 1.262 6.748 1.626C6.78533 1.69133 6.82267 1.724 6.86 1.724C6.89733 1.724 6.93467 1.696 6.972 1.64C7.43867 0.902667 8.176 0.534 9.184 0.534C10.052 0.534 10.7007 0.781333 11.13 1.276C11.5593 1.77067 11.774 2.47067 11.774 3.376V8.304C11.774 8.43467 11.7087 8.5 11.578 8.5H10.318C10.1873 8.5 10.122 8.43467 10.122 8.304V3.628C10.122 3.068 10.0053 2.64333 9.772 2.354C9.53867 2.06467 9.20733 1.92 8.778 1.92C8.32067 1.92 7.966 2.06 7.714 2.34C7.50867 2.564 7.364 2.85333 7.28 3.208C7.20533 3.56267 7.168 4.01533 7.168 4.566V8.304C7.168 8.43467 7.10267 8.5 6.972 8.5H5.712C5.58133 8.5 5.516 8.43467 5.516 8.304V3.628C5.516 3.068 5.39467 2.64333 5.152 2.354C4.91867 2.06467 4.58267 1.92 4.144 1.92C3.696 1.92 3.35067 2.06933 3.108 2.368C2.92133 2.57333 2.78133 2.84867 2.688 3.194C2.604 3.53933 2.562 3.99667 2.562 4.566V8.304C2.562 8.43467 2.49667 8.5 2.366 8.5H1.106Z" fill="#222222"/>
</svg>
