<svg width="18" height="11" viewBox="0 0 18 11" fill="none" xmlns="http://www.w3.org/2000/svg">
<path d="M1.106 10.5C0.975333 10.5 0.91 10.4347 0.91 10.304V2.87C0.91 2.814 0.924 2.76733 0.952 2.73C0.989333 2.69267 1.04067 2.674 1.106 2.674H2.366C2.43133 2.674 2.478 2.69267 2.506 2.73C2.54333 2.76733 2.562 2.814 2.562 2.87V3.388C2.562 3.5 2.59 3.556 2.646 3.556C2.68333 3.556 2.73 3.528 2.786 3.472C3.08467 3.136 3.39267 2.898 3.71 2.758C4.02733 2.60867 4.37267 2.534 4.746 2.534C5.222 2.534 5.63267 2.62733 5.978 2.814C6.33267 2.99133 6.58933 3.262 6.748 3.626C6.78533 3.69133 6.82267 3.724 6.86 3.724C6.89733 3.724 6.93467 3.696 6.972 3.64C7.43867 2.90267 8.176 2.534 9.184 2.534C10.052 2.534 10.7007 2.78133 11.13 3.276C11.5593 3.77067 11.774 4.47067 11.774 5.376V10.304C11.774 10.4347 11.7087 10.5 11.578 10.5H10.318C10.1873 10.5 10.122 10.4347 10.122 10.304V5.628C10.122 5.068 10.0053 4.64333 9.772 4.354C9.53867 4.06467 9.20733 3.92 8.778 3.92C8.32067 3.92 7.966 4.06 7.714 4.34C7.50867 4.564 7.364 4.85333 7.28 5.208C7.20533 5.56267 7.168 6.01533 7.168 6.566V10.304C7.168 10.4347 7.10267 10.5 6.972 10.5H5.712C5.58133 10.5 5.516 10.4347 5.516 10.304V5.628C5.516 5.068 5.39467 4.64333 5.152 4.354C4.91867 4.06467 4.58267 3.92 4.144 3.92C3.696 3.92 3.35067 4.06933 3.108 4.368C2.92133 4.57333 2.78133 4.84867 2.688 5.194C2.604 5.53933 2.562 5.99667 2.562 6.566V10.304C2.562 10.4347 2.49667 10.5 2.366 10.5H1.106ZM17.418 6.49414H12.9951V5.3457L14.5264 3.84863C14.9912 3.3929 15.2874 3.06478 15.415 2.86426C15.5472 2.65918 15.6133 2.44271 15.6133 2.21484C15.6133 2.04167 15.5586 1.90951 15.4492 1.81836C15.3398 1.72721 15.194 1.68164 15.0117 1.68164C14.6426 1.68164 14.2324 1.88216 13.7812 2.2832L12.9404 1.24414C13.6104 0.65625 14.376 0.362305 15.2373 0.362305C15.8617 0.362305 16.3538 0.514974 16.7139 0.820312C17.0739 1.12109 17.2539 1.53809 17.2539 2.07129C17.2539 2.45866 17.1468 2.82324 16.9326 3.16504C16.7184 3.50684 16.3174 3.94434 15.7295 4.47754L15.0117 5.12695H17.418V6.49414Z" fill="#222222"/>
</svg>
