<svg width="48" height="48" viewBox="0 0 48 48" fill="none" xmlns="http://www.w3.org/2000/svg">
<path d="M44 42H42C39.0972 42 36.556 40.2822 36 38C35.444 40.2822 32.9028 42 30 42C27.0972 42 24.556 40.2822 24 38C23.444 40.2822 20.9028 42 18 42C15.0973 42 12.5559 40.2822 12 38C11.4441 40.2822 8.90274 42 6 42H4" stroke="#222222" stroke-width="2" stroke-linecap="round" stroke-linejoin="round"/>
<path d="M38 6L37.4702 6.1766C34.8302 7.05664 33.51 7.49664 32.755 8.5442C32 9.59174 32 10.9832 32 13.7661V34" stroke="#222222" stroke-width="2" stroke-linecap="round" stroke-linejoin="round"/>
<path d="M22 6L21.4702 6.1766C18.8301 7.05664 17.5101 7.49664 16.755 8.5442C16 9.59174 16 10.9832 16 13.7661V34" stroke="#222222" stroke-width="2" stroke-linecap="round" stroke-linejoin="round"/>
<path d="M16 14H32M16 22H32M16 30H32" stroke="#222222" stroke-width="2" stroke-linecap="round" stroke-linejoin="round"/>
</svg>
