<svg width="16" height="17" viewBox="0 0 16 17" fill="none" xmlns="http://www.w3.org/2000/svg">
<path d="M4.99143 11.5098C4.60823 11.1266 4.67193 9.49864 4.67193 9.49864M4.99143 11.5098C5.37464 11.893 7.00257 11.8292 7.00257 11.8292M4.99143 11.5098L7.33463 9.16651M11.0112 5.48992C10.628 5.10671 9.0001 5.17048 9.0001 5.17048M11.0112 5.48992C11.3944 5.87313 11.3306 7.50104 11.3306 7.50104M11.0112 5.48992L8.66797 7.83317" stroke="#1E1E1E" stroke-linecap="round" stroke-linejoin="round"/>
<path d="M1.66797 8.49984C1.66797 5.51428 1.66797 4.0215 2.59546 3.094C3.52296 2.1665 5.01574 2.1665 8.0013 2.1665C10.9868 2.1665 12.4796 2.1665 13.4072 3.094C14.3346 4.0215 14.3346 5.51428 14.3346 8.49984C14.3346 11.4854 14.3346 12.9782 13.4072 13.9057C12.4796 14.8332 10.9868 14.8332 8.0013 14.8332C5.01574 14.8332 3.52296 14.8332 2.59546 13.9057C1.66797 12.9782 1.66797 11.4854 1.66797 8.49984Z" stroke="#1E1E1E"/>
</svg>
