<svg width="48" height="48" viewBox="0 0 48 48" fill="none" xmlns="http://www.w3.org/2000/svg">
<path d="M3 32.8653C3.32649 32.8632 3.65264 32.8872 3.9753 32.9371C4.0013 32.9445 4.0276 32.948 4.0541 32.9533C4.74383 33.0923 5.40024 33.3631 5.9873 33.751C7.17398 34.5382 8.57287 34.944 9.9966 34.9141C11.4057 34.9476 12.7913 34.5496 13.9678 33.7735C13.981 33.7666 13.9937 33.7598 14.0068 33.752C14.8841 33.1494 15.9292 32.8391 16.9932 32.8653C18.0598 32.8413 19.1072 33.1509 19.9893 33.751C21.1722 34.5389 22.5684 34.9448 23.9893 34.9141C25.413 34.9412 26.8114 34.536 28 33.752C28.8773 33.1494 29.9223 32.8391 30.9863 32.8653C32.0593 32.8424 33.1127 33.1555 33.999 33.7608C35.1829 34.5409 36.5757 34.943 37.9932 34.9141C38.9483 34.9351 39.8975 34.7581 40.7808 34.3941C41.2016 34.2082 41.6092 33.9938 42.0008 33.7524C42.8877 33.1599 43.9335 32.8506 45 32.8653C45.2652 32.8653 45.5196 32.7599 45.7071 32.5724C45.8946 32.3848 46 32.1305 46 31.8653C46 31.6001 45.8946 31.3457 45.7071 31.1582C45.5196 30.9706 45.2652 30.8653 45 30.8653C44.6112 30.8606 44.2227 30.888 43.8384 30.9473C42.8221 31.0988 41.8504 31.4675 40.9893 32.0283C40.6713 32.2251 40.3406 32.4006 39.9993 32.5537C39.3634 32.8132 38.68 32.9359 37.9935 32.9137C36.9173 32.9408 35.8603 32.6259 34.9744 32.0143C34.1353 31.4726 33.1926 31.1116 32.2064 30.9543L23.9664 18.9208L34.525 13.6357C34.9894 13.4036 35.3973 13.0725 35.7197 12.6656C36.0422 12.2588 36.2714 11.7861 36.3912 11.2809C36.5111 10.7758 36.5185 10.2505 36.4131 9.74213C36.3077 9.23378 36.0921 8.75475 35.7813 8.33887C35.2829 7.69576 34.5818 7.23998 33.7918 7.0455C33.0017 6.85103 32.1692 6.92929 31.4292 7.26757L16.8408 14.1729C16.3338 14.4131 15.882 14.7555 15.5135 15.1786C15.1451 15.6016 14.8681 16.0963 14.6998 16.6315C14.5316 17.1667 14.4757 17.7308 14.5358 18.2886C14.5958 18.8464 14.7705 19.3858 15.0488 19.8729L16.9878 23.3211L4.0532 30.9344C3.70396 30.8889 3.35218 30.8658 3 30.8653C2.73478 30.8653 2.48043 30.9706 2.29289 31.1582C2.10536 31.3457 2 31.6001 2 31.8653C2 32.1305 2.10536 32.3848 2.29289 32.5724C2.48043 32.7599 2.73478 32.8653 3 32.8653ZM18.0073 25.041C18.4653 24.7706 18.7983 24.3306 18.934 23.8164C19.0697 23.3022 18.9973 22.7551 18.7324 22.294L16.7842 18.8789C16.6429 18.631 16.5543 18.3567 16.524 18.073C16.4936 17.7893 16.5222 17.5024 16.608 17.2303C16.6937 16.9582 16.8347 16.7067 17.0221 16.4917C17.2096 16.2766 17.4394 16.1026 17.6973 15.9805L32.2827 9.07717C32.5454 8.95019 32.8389 8.90065 33.1288 8.93436C33.4186 8.96807 33.6929 9.08363 33.9195 9.26751C34.1461 9.4514 34.3156 9.696 34.4083 9.97272C34.5009 10.2494 34.5129 10.5468 34.4427 10.8301C34.3918 11.0491 34.2926 11.2539 34.1524 11.4296C34.0121 11.6053 33.8344 11.7475 33.6321 11.8457L23.0781 17.1289C22.8189 17.2557 22.5899 17.4368 22.4069 17.6599C22.2238 17.883 22.0909 18.1429 22.0171 18.4219C21.9428 18.704 21.9301 18.9988 21.9798 19.2862C22.0295 19.5737 22.1405 19.8471 22.3052 20.0879L29.7769 30.9533C28.781 31.1104 27.8298 31.4768 26.9858 32.0283C26.1057 32.6326 25.0569 32.9427 23.9897 32.9141C22.917 32.9397 21.8637 32.6248 20.981 32.0147C19.7985 31.2372 18.4081 30.8365 16.9932 30.8653C15.5807 30.8345 14.1925 31.2357 13.0142 32.0153C12.999 32.0232 12.9834 32.0319 12.9683 32.0407C12.095 32.6388 11.0546 32.9445 9.9966 32.9138C8.92859 32.9394 7.87956 32.6285 6.998 32.0251C6.858 31.943 6.7125 31.8595 6.5636 31.7764L18.0073 25.041Z" fill="#222222"/>
<path d="M45 37.0117C43.5773 36.9826 42.1795 37.3877 40.9927 38.1729C40.1002 38.7523 39.059 39.0606 37.9949 39.0606C36.9308 39.0606 35.8896 38.7523 34.9971 38.1729C33.7984 37.4144 32.409 37.0117 30.9905 37.0117C29.572 37.0117 28.1826 37.4144 26.9839 38.1729C26.1033 38.7756 25.0556 39.0862 23.9888 39.0606C22.9231 39.0861 21.8764 38.7755 20.9971 38.1729C19.8121 37.3877 18.4158 36.9826 16.9946 37.0117C15.5727 36.9826 14.1757 37.3877 12.99 38.1729C12.11 38.7757 11.0627 39.0862 9.9964 39.0606C8.93024 39.0861 7.88306 38.7756 7.0032 38.1729C5.81791 37.3878 4.42143 36.9827 3 37.0117C2.73478 37.0117 2.48043 37.1171 2.29289 37.3046C2.10536 37.4922 2 37.7465 2 38.0117C2 38.2769 2.10536 38.5313 2.29289 38.7188C2.48043 38.9064 2.73478 39.0117 3 39.0117C4.06605 38.9864 5.11305 39.2972 5.9927 39.8999C7.1782 40.6851 8.57494 41.0902 9.9966 41.0611C11.4184 41.0902 12.8153 40.6851 14.001 39.8999C14.881 39.2972 15.9283 38.9866 16.9946 39.0122C18.0603 38.9867 19.107 39.2973 19.9863 39.8999C21.1713 40.6852 22.5676 41.0903 23.9888 41.0611C25.4111 41.0903 26.8084 40.6852 27.9946 39.8999C28.8866 39.3206 29.9273 39.0122 30.9909 39.0122C32.0546 39.0122 33.0953 39.3206 33.9873 39.8999C35.1863 40.6585 36.576 41.0611 37.9949 41.0611C39.4137 41.0611 40.8034 40.6585 42.0024 39.8999C42.8838 39.2971 43.9324 38.9864 45 39.0117C45.2652 39.0117 45.5196 38.9064 45.7071 38.7188C45.8946 38.5313 46 38.2769 46 38.0117C46 37.7465 45.8946 37.4922 45.7071 37.3046C45.5196 37.1171 45.2652 37.0117 45 37.0117Z" fill="#222222"/>
<path d="M30.6836 22.6466C30.6837 24.06 31.1028 25.4417 31.8881 26.6168C32.6734 27.792 33.7896 28.7079 35.0954 29.2487C36.4012 29.7896 37.8381 29.931 39.2244 29.6552C40.6106 29.3794 41.8839 28.6988 42.8833 27.6993C43.8827 26.6998 44.5633 25.4264 44.8389 24.0402C45.1146 22.6539 44.973 21.217 44.4321 19.9113C43.8912 18.6055 42.9752 17.4894 41.7999 16.7042C40.6247 15.919 39.243 15.4999 37.8296 15.5C35.9349 15.502 34.1183 16.2556 32.7786 17.5954C31.4389 18.9353 30.6854 20.7519 30.6836 22.6466ZM37.8296 17.5C38.8474 17.5 39.8423 17.8018 40.6885 18.3672C41.5347 18.9326 42.1943 19.7363 42.5838 20.6766C42.9733 21.6169 43.0753 22.6515 42.8768 23.6498C42.6782 24.648 42.1882 25.5649 41.4685 26.2846C40.7489 27.0043 39.832 27.4944 38.8338 27.6931C37.8356 27.8917 36.801 27.7898 35.8607 27.4004C34.9203 27.011 34.1166 26.3515 33.5511 25.5053C32.9856 24.6591 32.6837 23.6643 32.6836 22.6465C32.6851 21.2821 33.2277 19.974 34.1925 19.0092C35.1572 18.0444 36.4652 17.5016 37.8296 17.5Z" fill="#222222"/>
</svg>
