<svg width="48" height="48" viewBox="0 0 48 48" fill="none" xmlns="http://www.w3.org/2000/svg">
<path d="M18 20V16C18 14.9391 18.4214 13.9217 19.1716 13.1716C19.9217 12.4214 20.9391 12 22 12H34C35.0609 12 36.0783 12.4214 36.8284 13.1716C37.5786 13.9217 38 14.9391 38 16V20M14 20H42" stroke="#222222" stroke-width="2" stroke-linecap="round" stroke-linejoin="round"/>
<path d="M6 44V8C6 6.93913 6.42143 5.92172 7.17157 5.17157C7.92172 4.42143 8.93913 4 10 4H24C25.0609 4 26.0783 4.42143 26.8284 5.17157C27.5786 5.92172 28 6.93913 28 8V12M20 28H20.02M28 28H28.02M36 28H36.02M18 36H18.02M28 36H28.02M38 36H38.02M16 44H16.02M28 44H28.02M40 44H40.02" stroke="#222222" stroke-width="2" stroke-linecap="round" stroke-linejoin="round"/>
</svg>
