<svg width="48" height="48" viewBox="0 0 48 48" fill="none" xmlns="http://www.w3.org/2000/svg">
<path d="M28 6H20C12.4575 6 8.6863 6 6.34314 8.34314C4 10.6863 4 14.4575 4 22C4 29.5424 4 33.3138 6.34314 35.6568C8.6863 38 12.4575 38 20 38H28C35.5424 38 39.3138 38 41.6568 35.6568C44 33.3138 44 29.5424 44 22C44 14.4575 44 10.6863 41.6568 8.34314C39.3138 6 35.5424 6 28 6Z" stroke="#222222" stroke-width="2" stroke-linecap="round"/>
<path d="M33.8 31C33.8 29.2326 35.2326 27.8 37 27.8M27.4 31C27.4 25.698 31.698 21.4 37 21.4M21 31C21 22.1634 28.1634 15 37 15" stroke="#222222" stroke-width="2" stroke-linecap="round"/>
<path d="M36 38L38 42" stroke="#222222" stroke-width="2" stroke-linecap="round" stroke-linejoin="round"/>
<path d="M12 38L10 42" stroke="#222222" stroke-width="2" stroke-linecap="round" stroke-linejoin="round"/>
</svg>
