<svg width="47" height="61" viewBox="0 0 47 61" fill="none" xmlns="http://www.w3.org/2000/svg">
<ellipse cx="23.5001" cy="58.5" rx="9.5" ry="2.5" fill="#B0B0B0"/>
<path fill-rule="evenodd" clip-rule="evenodd" d="M18.9704 45.884C8.70435 43.713 1.00005 34.6 1.00005 23.6875C1.00005 11.1576 11.1576 1 23.6876 1C36.2176 1 46.3751 11.1576 46.3751 23.6875C46.3751 34.5658 38.719 43.656 28.5011 45.8634C28.4827 46.0752 28.4295 46.2896 28.337 46.4999L25.4247 53.1232C24.7102 54.7481 22.3904 54.7062 21.7351 53.0564L19.1043 46.4331C19.0319 46.2509 18.9882 46.0665 18.9704 45.884Z" fill="white"/>
<path d="M18.9704 45.884L19.0738 45.3948L19.4324 45.4706L19.468 45.8354L18.9704 45.884ZM28.5011 45.8634L28.003 45.8202L28.0348 45.4526L28.3955 45.3747L28.5011 45.8634ZM28.337 46.4999L28.7947 46.7011L28.7947 46.7011L28.337 46.4999ZM25.4247 53.1232L25.8824 53.3244L25.4247 53.1232ZM21.7351 53.0564L22.1998 52.8719V52.8719L21.7351 53.0564ZM19.1043 46.4331L19.569 46.2486L19.1043 46.4331ZM1.50005 23.6875C1.50005 34.3589 9.03421 43.2717 19.0738 45.3948L18.8669 46.3732C8.37449 44.1543 0.50005 34.8411 0.50005 23.6875H1.50005ZM23.6876 1.5C11.4337 1.5 1.50005 11.4337 1.50005 23.6875H0.50005C0.50005 10.8814 10.8815 0.5 23.6876 0.5V1.5ZM45.8751 23.6875C45.8751 11.4337 35.9414 1.5 23.6876 1.5V0.5C36.4937 0.5 46.8751 10.8814 46.8751 23.6875H45.8751ZM28.3955 45.3747C38.388 43.2159 45.8751 34.3255 45.8751 23.6875H46.8751C46.8751 34.8062 39.0499 44.096 28.6067 46.3521L28.3955 45.3747ZM27.8793 46.2986C27.9497 46.1386 27.9893 45.9777 28.003 45.8202L28.9992 45.9066C28.9762 46.1728 28.9093 46.4405 28.7947 46.7011L27.8793 46.2986ZM24.967 52.9219L27.8793 46.2986L28.7947 46.7011L25.8824 53.3244L24.967 52.9219ZM22.1998 52.8719C22.6913 54.1092 24.4311 54.1406 24.967 52.9219L25.8824 53.3244C24.9892 55.3556 22.0895 55.3032 21.2704 53.241L22.1998 52.8719ZM19.569 46.2486L22.1998 52.8719L21.2704 53.241L18.6396 46.6177L19.569 46.2486ZM19.468 45.8354C19.4813 45.9713 19.5139 46.11 19.569 46.2486L18.6396 46.6177C18.5499 46.3918 18.4951 46.1616 18.4727 45.9326L19.468 45.8354Z" fill="#D1D1D1"/>
<circle cx="18.9063" cy="18.9063" r="18.9063" transform="matrix(-1 0 0 1 42.5939 4.78125)" fill="#00272C"/>
<circle cx="8.82293" cy="8.82293" r="8.82293" transform="matrix(-1 0 0 1 32.5079 14.8647)" fill="#E5FD34"/>
</svg>
