<svg width="894" height="500" viewBox="0 0 894 500" fill="none" xmlns="http://www.w3.org/2000/svg">
<path d="M141.962 29.482L140.951 27.9667L141.962 26.9565L142.972 27.9667L141.962 29.482Z" fill="#113A3F"/>
<path d="M190.461 28.9773C190.461 30.9977 187.935 32.0078 186.42 29.9875C185.409 28.4722 185.914 25.9468 188.44 25.9468C189.956 26.4519 190.461 27.9671 190.461 28.9773Z" fill="#113A3F"/>
<path d="M237.446 28.977C236.941 32.0075 233.405 33.0177 231.384 30.9973C229.868 28.977 230.373 25.4414 233.91 25.4414C236.941 25.4414 237.951 27.4618 237.446 28.977Z" fill="#113A3F"/>
<path d="M284.934 28.4718C284.429 32.5125 279.882 34.0277 277.356 30.9972C275.335 28.4718 276.346 23.926 280.387 23.4209C283.924 23.4209 284.934 26.4514 284.934 28.4718Z" fill="#113A3F"/>
<path d="M332.424 26.9565C331.919 32.0074 326.361 34.0278 322.825 30.4922C320.299 27.4616 321.815 21.4006 326.867 20.8955C330.908 20.8955 332.424 24.4311 332.424 26.9565Z" fill="#113A3F"/>
<path d="M379.408 24.4314C378.903 30.4924 372.335 33.0178 368.799 28.472C365.767 24.9364 367.283 18.3703 372.84 17.8652C377.387 17.8652 379.408 21.4008 379.408 24.4314Z" fill="#113A3F"/>
<path d="M425.885 21.401C425.885 27.9671 418.307 30.9976 414.266 25.9468C410.729 21.9061 412.75 14.8349 418.812 13.8247C423.864 13.8247 425.885 18.3705 425.885 21.401Z" fill="#113A3F"/>
<path d="M471.86 17.3602C471.86 23.9263 463.777 27.4619 459.735 22.4111C455.693 18.3704 457.714 10.289 464.282 9.27881C469.839 9.27881 471.86 13.8246 471.86 17.3602Z" fill="#113A3F"/>
<path d="M517.329 12.3093C517.329 19.3805 509.245 22.9161 504.699 18.3703C500.657 13.8246 502.173 5.74318 509.245 4.73301C514.803 4.22792 517.329 8.7737 517.329 12.3093Z" fill="#113A3F"/>
<path d="M562.291 6.75328C562.291 14.3296 554.208 17.8652 549.156 12.8143C545.114 8.26855 546.63 -0.31792 553.703 -1.32809C559.765 -1.83318 562.291 2.71259 562.291 6.75328Z" fill="#113A3F"/>
<path d="M605.234 0.187309C605.234 7.25852 598.161 11.2992 593.614 7.25853C589.067 3.21784 590.077 -6.37881 597.15 -7.89407C602.202 -8.39915 605.234 -3.3483 605.234 0.187309Z" fill="#113A3F"/>
<path d="M646.155 -6.88405C646.66 0.18716 640.092 4.22786 635.04 0.187168C630.493 -3.85352 631.504 -12.9451 638.071 -14.4603C643.123 -14.9654 645.649 -10.4197 646.155 -6.88405Z" fill="#113A3F"/>
<path d="M94.9772 76.4554L93.9668 75.4452L94.9772 74.4351L95.9876 75.4452L94.9772 76.4554Z" fill="#113A3F"/>
<path d="M143.478 76.9605C143.478 78.9808 140.952 79.4859 139.437 77.9707C138.426 76.4554 138.932 74.4351 140.952 74.4351C142.973 74.4351 143.478 75.9503 143.478 76.9605Z" fill="#113A3F"/>
<path d="M190.966 77.9707C190.461 81.0012 186.924 82.0113 184.903 79.991C183.388 77.9707 184.398 74.4351 187.429 74.4351C190.461 74.4351 191.471 76.4554 190.966 77.9707Z" fill="#113A3F"/>
<path d="M238.961 77.9705C238.456 82.5163 233.404 84.0316 230.878 80.4959C228.352 77.4654 230.373 72.9196 234.414 72.4146C237.951 72.9196 239.466 75.9502 238.961 77.9705Z" fill="#113A3F"/>
<path d="M287.46 76.9602C286.955 82.011 280.387 84.5365 277.356 80.4958C274.325 76.9602 276.345 70.8991 281.397 70.394C285.944 70.8991 287.46 74.4347 287.46 76.9602Z" fill="#113A3F"/>
<path d="M334.949 75.4449C334.444 81.506 326.866 84.5365 323.329 79.4856C319.793 75.4449 321.814 68.3737 328.381 67.8687C333.433 68.3737 335.454 72.4144 334.949 75.4449Z" fill="#113A3F"/>
<path d="M382.943 72.9198C382.438 79.991 373.849 83.0215 369.808 77.9706C366.271 73.9299 367.787 65.3435 375.365 64.8384C380.922 64.8384 382.943 69.8893 382.943 72.9198Z" fill="#113A3F"/>
<path d="M429.927 69.8891C429.422 77.9705 420.328 81.5061 415.276 75.9502C410.729 70.8993 413.255 62.3128 420.833 61.3027C427.906 60.7976 430.432 65.8484 429.927 69.8891Z" fill="#113A3F"/>
<path d="M476.911 65.8483C476.406 73.9297 466.807 77.9704 461.755 72.4144C457.208 67.3636 459.734 57.7669 467.818 56.7567C474.385 56.2517 476.911 61.8076 476.911 65.8483Z" fill="#113A3F"/>
<path d="M522.885 60.7977C522.885 69.3842 512.781 73.9299 507.224 67.8689C502.172 62.313 504.698 52.7163 513.286 51.201C519.854 50.6959 522.885 56.757 522.885 60.7977Z" fill="#113A3F"/>
<path d="M568.354 54.7366C568.354 63.8282 558.25 68.374 552.693 62.3129C547.641 57.2621 550.167 46.6553 558.755 45.14C565.323 44.6349 568.354 50.6959 568.354 54.7366Z" fill="#113A3F"/>
<path d="M611.296 48.6755C611.296 57.7671 601.697 62.3128 596.14 56.2518C591.088 51.2009 593.614 40.5941 601.697 39.0789C608.77 38.0687 611.296 44.1297 611.296 48.6755Z" fill="#113A3F"/>
<path d="M652.722 41.0993C652.722 49.1807 644.639 54.2315 639.587 49.6857C634.535 45.14 636.05 34.0281 643.628 32.0077C649.691 31.5026 652.722 37.0586 652.722 41.0993Z" fill="#113A3F"/>
<path d="M691.623 33.5231C691.623 41.6045 684.55 46.6554 679.498 41.6045C674.446 37.0587 675.962 26.4519 683.035 24.4316C689.097 23.9265 691.623 29.4824 691.623 33.5231Z" fill="#113A3F"/>
<path d="M728.503 25.4416C729.008 33.0179 722.44 37.5636 717.894 33.5229C713.347 29.4822 714.357 19.3805 720.925 17.3602C725.977 16.35 728.503 21.4009 728.503 25.4416Z" fill="#113A3F"/>
<path d="M762.857 16.3498C763.362 22.916 757.805 27.4617 753.763 23.421C750.226 19.8854 750.226 10.7939 756.289 8.77354C760.836 8.26845 762.857 12.8142 762.857 16.3498Z" fill="#113A3F"/>
<path d="M795.19 7.25816C795.695 12.8141 791.653 16.8548 788.117 14.3294C784.581 11.2988 784.581 2.71237 789.633 0.692021C793.169 0.186935 795.19 4.22764 795.19 7.25816Z" fill="#113A3F"/>
<path d="M825.501 -2.33828C826.006 2.71258 822.47 5.7431 819.944 3.72276C816.913 1.19732 816.913 -5.87388 820.954 -7.89423C823.48 -8.39931 824.996 -5.3688 825.501 -2.33828Z" fill="#113A3F"/>
<path d="M47.4883 122.418V121.913V121.408L47.9935 121.913L47.4883 122.418Z" fill="#113A3F"/>
<path d="M95.4837 124.438C95.4837 126.459 92.9577 126.459 92.4525 125.449C91.4421 124.438 91.9473 122.418 93.9681 122.418C94.9785 122.418 95.9889 123.428 95.4837 124.438Z" fill="#113A3F"/>
<path d="M143.478 125.954C142.973 128.984 139.437 129.994 137.921 127.469C136.405 125.448 137.416 122.418 140.447 122.418C142.973 122.418 143.983 124.438 143.478 125.954Z" fill="#113A3F"/>
<path d="M191.976 126.964C191.471 131.005 186.419 132.52 183.893 129.489C181.872 126.964 183.388 121.913 187.43 121.913C190.966 121.913 191.976 124.944 191.976 126.964Z" fill="#113A3F"/>
<path d="M240.477 126.964C239.972 132.52 233.404 134.54 230.373 130.5C227.342 126.964 229.362 120.903 234.92 120.903C239.467 120.398 240.477 124.439 240.477 126.964Z" fill="#113A3F"/>
<path d="M288.976 125.954C288.47 132.52 280.892 135.045 276.851 129.994C273.314 125.954 275.84 118.377 281.903 118.377C287.46 118.377 289.481 122.923 288.976 125.954Z" fill="#113A3F"/>
<path d="M337.476 124.439C336.971 132.015 327.877 135.045 323.33 129.489C319.288 124.944 321.814 116.357 329.392 115.852C335.455 115.852 337.476 120.903 337.476 124.439Z" fill="#113A3F"/>
<path d="M385.47 121.913C384.965 130.5 374.861 134.035 369.809 127.974C365.262 122.418 367.788 113.327 376.377 112.316C383.45 112.316 385.976 117.872 385.47 121.913Z" fill="#113A3F"/>
<path d="M433.464 118.377C432.959 127.469 421.844 132.015 416.287 125.449C411.235 119.387 414.266 109.286 423.36 108.276C430.938 107.77 433.969 114.337 433.464 118.377Z" fill="#113A3F"/>
<path d="M480.953 114.336C480.448 123.933 468.829 128.984 462.766 121.913C457.209 115.852 460.24 104.74 470.344 103.225C477.922 103.225 480.953 109.791 480.953 114.336Z" fill="#113A3F"/>
<path d="M526.927 109.286C526.422 119.388 514.803 124.944 508.235 117.367C502.678 111.306 505.709 99.6893 515.813 97.6689C523.896 97.6689 527.433 104.235 526.927 109.286Z" fill="#113A3F"/>
<path d="M572.9 103.73C572.395 114.337 560.775 119.893 554.208 112.316C548.65 106.255 551.682 94.1334 561.786 92.113C569.869 91.6079 572.9 98.6791 572.9 103.73Z" fill="#113A3F"/>
<path d="M616.348 96.6589C615.843 107.266 604.728 112.822 598.666 105.75C593.109 99.6894 596.14 87.5673 605.739 85.547C613.317 85.0419 616.853 91.608 616.348 96.6589Z" fill="#113A3F"/>
<path d="M657.774 89.5876C657.774 99.6893 647.164 105.75 641.102 98.6792C636.05 92.6181 638.576 81.0011 647.669 78.4757C654.742 77.9706 658.279 84.5367 657.774 89.5876Z" fill="#113A3F"/>
<path d="M697.181 82.011C697.181 91.6076 688.593 97.1635 682.53 91.6076C676.973 86.0516 678.994 73.9296 687.582 71.9092C694.15 70.8991 697.181 76.9601 697.181 82.011Z" fill="#113A3F"/>
<path d="M734.06 73.4246C734.06 82.0111 726.482 87.5671 721.43 82.5162C716.378 77.4653 717.894 66.3534 725.472 63.828C731.534 63.3229 734.06 68.8789 734.06 73.4246Z" fill="#113A3F"/>
<path d="M768.919 64.8384C768.919 72.9198 762.352 77.9707 757.805 73.4249C753.258 68.8791 754.774 58.2723 761.341 56.2519C766.393 55.2418 768.919 60.2926 768.919 64.8384Z" fill="#113A3F"/>
<path d="M801.252 55.2415C801.252 62.3127 795.695 67.3636 792.159 63.3229C788.622 59.2822 789.633 49.6856 795.19 47.6652C799.231 46.655 801.252 51.7059 801.252 55.2415Z" fill="#113A3F"/>
<path d="M831.564 45.6451C831.564 51.7061 827.522 55.7468 824.491 52.7163C820.954 49.6858 821.459 41.0993 826.006 39.079C830.048 38.0688 831.564 42.1095 831.564 45.6451Z" fill="#113A3F"/>
<path d="M859.855 35.0382C859.855 40.0891 856.824 43.6247 854.298 41.0992C851.772 38.5738 851.772 31.5026 855.308 29.4823C858.339 28.9772 859.35 32.5128 859.855 35.0382Z" fill="#113A3F"/>
<path d="M885.62 24.4312C885.62 28.4719 883.599 30.9974 881.578 29.4821C880.063 27.9668 879.557 21.9058 882.589 20.3905C884.609 19.8855 885.115 22.4109 885.62 24.4312Z" fill="#113A3F"/>
<path d="M46.9844 171.917L45.4688 170.906L46.9844 169.391L47.9948 170.906L46.9844 171.917Z" fill="#113A3F"/>
<path d="M95.9878 173.432C95.4826 175.957 92.9566 176.462 91.441 174.442C90.4306 172.927 90.9358 169.896 93.4618 169.896C94.9774 170.401 95.9878 172.421 95.9878 173.432Z" fill="#113A3F"/>
<path d="M143.982 174.947C143.477 178.483 138.93 179.998 136.909 176.968C134.888 174.442 136.404 170.401 139.94 170.401C142.971 170.401 144.487 172.927 143.982 174.947Z" fill="#113A3F"/>
<path d="M192.988 175.957C192.483 181.008 186.42 183.028 183.389 178.988C180.863 175.452 182.379 169.896 187.936 169.896C191.472 169.896 192.988 173.432 192.988 175.957Z" fill="#113A3F"/>
<path d="M241.488 175.957C240.983 182.018 233.405 184.544 229.363 179.998C225.827 175.957 228.353 168.886 234.92 168.381C239.972 168.381 241.993 172.927 241.488 175.957Z" fill="#113A3F"/>
<path d="M290.491 174.947C289.986 182.018 280.892 185.049 276.346 179.493C272.304 174.442 274.83 166.361 282.408 165.855C288.471 166.361 290.997 171.411 290.491 174.947Z" fill="#113A3F"/>
<path d="M338.991 173.432C338.486 182.018 328.382 185.554 322.825 178.988C318.278 173.432 321.309 163.835 329.898 163.33C336.971 163.33 339.497 169.391 338.991 173.432Z" fill="#113A3F"/>
<path d="M387.995 170.907C386.985 180.503 375.365 184.544 369.808 177.473C364.756 171.412 367.787 160.805 377.891 159.29C385.469 159.795 387.995 166.361 387.995 170.907Z" fill="#113A3F"/>
<path d="M435.99 167.371C434.98 177.977 422.855 182.523 416.288 174.947C410.73 168.381 414.267 156.764 424.876 155.249C433.464 155.249 436.496 162.825 435.99 167.371Z" fill="#113A3F"/>
<path d="M483.478 163.33C482.468 174.442 469.333 179.998 462.765 171.916C456.703 164.845 460.239 152.218 471.859 150.703C480.447 150.198 483.984 157.774 483.478 163.33Z" fill="#113A3F"/>
<path d="M530.463 158.279C529.453 169.896 516.318 175.957 508.74 167.876C502.677 160.804 506.214 147.672 517.833 145.652C526.927 144.642 530.463 152.218 530.463 158.279Z" fill="#113A3F"/>
<path d="M575.932 152.218C574.922 164.34 561.281 170.906 554.208 162.32C547.641 155.249 551.682 141.611 563.302 139.086C572.901 138.581 576.437 146.157 575.932 152.218Z" fill="#113A3F"/>
<path d="M619.884 145.652C619.379 157.774 606.244 164.34 599.171 156.259C593.109 149.188 596.645 135.55 607.76 133.025C616.853 132.015 620.39 139.591 619.884 145.652Z" fill="#113A3F"/>
<path d="M661.817 138.076C661.311 149.693 649.186 156.259 642.619 148.683C637.062 142.116 640.093 127.974 650.702 125.954C658.785 124.944 661.817 132.52 661.817 138.076Z" fill="#113A3F"/>
<path d="M700.715 130.499C700.21 141.106 690.106 148.177 683.539 141.611C677.476 135.55 680.002 121.408 690.106 118.882C698.189 117.367 701.221 124.943 700.715 130.499Z" fill="#113A3F"/>
<path d="M738.102 121.913C737.596 132.015 728.503 138.581 722.946 132.52C717.388 126.964 719.914 113.326 728.503 110.801C735.07 109.791 738.102 116.862 738.102 121.913Z" fill="#113A3F"/>
<path d="M772.456 112.822C771.951 121.913 764.373 127.974 759.321 122.923C754.774 117.872 756.795 105.75 764.373 103.225C770.435 102.215 772.961 108.276 772.456 112.822Z" fill="#113A3F"/>
<path d="M805.294 103.73C805.294 111.811 798.726 117.367 794.685 112.821C790.643 108.275 792.159 97.1636 798.726 95.1432C803.273 93.6279 805.294 99.689 805.294 103.73Z" fill="#113A3F"/>
<path d="M835.606 93.6282C835.606 100.699 830.554 105.245 827.017 102.215C823.481 98.6791 824.491 88.0723 829.543 86.0519C834.09 85.0418 835.606 90.0926 835.606 93.6282Z" fill="#113A3F"/>
<path d="M863.393 83.5262C863.393 89.0822 859.351 93.6279 856.825 90.5974C853.794 87.5669 854.804 78.9804 858.846 76.9601C862.382 76.455 863.393 80.4957 863.393 83.5262Z" fill="#113A3F"/>
<path d="M889.157 72.9196C889.157 77.4654 886.126 81.001 884.105 78.9807C882.084 76.9603 882.589 69.384 885.621 67.8688C888.147 66.8586 889.157 70.3942 889.157 72.9196Z" fill="#113A3F"/>
<path d="M0.505203 216.869L0 216.364L0.505203 215.859L1.01041 216.364L0.505203 216.869Z" fill="#113A3F"/>
<path d="M47.9946 219.9C47.9946 221.415 45.9738 221.92 44.9634 220.91C43.953 219.395 44.9634 217.375 46.479 217.375C47.9946 217.88 48.4998 218.89 47.9946 219.9Z" fill="#113A3F"/>
<path d="M96.493 222.425C95.9878 225.456 92.4514 226.466 90.4306 223.941C88.915 221.92 89.4202 218.385 92.9566 218.385C95.4826 218.385 96.493 220.91 96.493 222.425Z" fill="#113A3F"/>
<path d="M144.488 223.941C143.983 228.487 138.425 230.002 135.899 226.466C133.373 223.436 135.394 218.385 139.436 218.385C143.477 218.385 144.993 221.92 144.488 223.941Z" fill="#113A3F"/>
<path d="M193.493 224.951C192.988 230.507 185.915 232.527 182.379 228.486C179.348 224.446 181.369 218.384 187.431 217.879C191.978 217.879 193.999 221.92 193.493 224.951Z" fill="#113A3F"/>
<path d="M242.497 224.951C241.992 232.022 232.898 234.547 228.857 229.496C225.32 224.951 226.836 216.869 234.919 216.364C240.476 216.364 243.003 221.415 242.497 224.951Z" fill="#113A3F"/>
<path d="M291.501 223.941C290.491 232.022 280.387 235.558 275.335 229.497C270.788 223.941 273.819 214.849 282.408 214.344C289.48 213.839 292.006 219.9 291.501 223.941Z" fill="#113A3F"/>
<path d="M340.506 222.425C339.495 232.022 327.876 236.062 321.813 228.991C316.761 222.93 320.298 212.323 329.897 211.313C337.98 210.808 341.011 217.374 340.506 222.425Z" fill="#113A3F"/>
<path d="M389.007 219.9C387.996 230.506 375.366 235.052 368.799 227.476C363.241 220.91 367.283 208.788 377.892 207.778C386.481 207.272 389.512 214.344 389.007 219.9Z" fill="#113A3F"/>
<path d="M437.506 216.364C436.496 227.476 422.35 233.032 415.277 224.951C409.215 217.88 413.256 204.747 424.876 203.232C434.475 202.727 438.011 210.808 437.506 216.364Z" fill="#113A3F"/>
<path d="M484.994 211.818C483.984 224.445 468.828 230.001 461.25 221.415C454.682 213.839 459.229 199.696 471.859 197.676C481.963 197.676 485.5 205.757 484.994 211.818Z" fill="#113A3F"/>
<path d="M531.978 206.767C530.463 219.9 515.306 226.466 507.728 217.374C501.161 209.798 505.708 194.645 518.338 192.12C528.947 191.615 532.483 200.706 531.978 206.767Z" fill="#113A3F"/>
<path d="M577.953 200.707C576.437 214.344 561.281 221.415 553.198 211.819C546.63 203.737 551.177 188.08 564.313 186.059C575.427 185.554 578.458 194.646 577.953 200.707Z" fill="#113A3F"/>
<path d="M621.905 194.14C620.894 207.778 605.738 214.849 598.16 205.757C591.592 197.676 596.139 182.523 608.769 179.493C618.873 178.988 622.41 187.574 621.905 194.14Z" fill="#113A3F"/>
<path d="M663.332 187.069C662.322 200.201 648.176 207.778 641.103 198.686C635.041 191.11 639.082 175.452 650.702 172.927C660.806 171.917 663.837 180.503 663.332 187.069Z" fill="#113A3F"/>
<path d="M702.737 178.988C701.727 191.615 689.097 198.686 682.529 190.605C676.972 183.533 681.014 168.886 691.623 165.855C700.211 164.34 703.243 172.927 702.737 178.988Z" fill="#113A3F"/>
<path d="M739.616 170.401C738.606 181.513 728.502 188.585 722.439 182.524C716.882 176.462 719.913 161.31 729.512 158.279C737.09 157.269 740.122 164.846 739.616 170.401Z" fill="#113A3F"/>
<path d="M773.97 161.815C772.96 171.917 764.372 178.483 759.319 172.927C754.267 167.371 757.299 153.734 765.382 150.703C772.455 149.188 774.476 156.259 773.97 161.815Z" fill="#113A3F"/>
<path d="M806.809 152.218C806.304 161.31 798.726 167.371 794.179 162.32C790.137 157.269 792.158 145.147 799.231 142.622C804.788 141.106 806.809 147.673 806.809 152.218Z" fill="#113A3F"/>
<path d="M836.616 142.117C836.11 150.198 830.048 155.754 826.512 151.208C822.975 147.168 824.996 136.056 831.058 133.53C835.605 132.52 837.121 138.076 836.616 142.117Z" fill="#113A3F"/>
<path d="M864.907 132.015C864.402 138.581 860.36 143.127 857.329 140.096C854.298 137.066 855.813 126.964 860.36 124.439C863.897 123.933 864.907 128.479 864.907 132.015Z" fill="#113A3F"/>
<path d="M890.673 121.408C890.168 126.459 887.137 130.499 885.116 128.479C883.095 125.954 884.105 117.872 887.642 115.852C890.168 114.842 890.673 118.377 890.673 121.408Z" fill="#113A3F"/>
<path d="M1.01041 265.358L0 264.348L1.01041 263.337L2.02081 264.348L1.01041 265.358Z" fill="#113A3F"/>
<path d="M49.0039 267.883C49.0039 269.903 46.4778 270.408 44.9622 268.893C43.9518 267.378 44.457 265.357 46.4778 265.357C48.4987 265.357 49.0039 266.873 49.0039 267.883Z" fill="#113A3F"/>
<path d="M96.9995 269.903C96.4943 273.439 92.4526 274.449 89.9266 271.924C87.9058 269.398 89.4214 265.863 92.9578 265.863C95.989 265.863 96.9995 268.388 96.9995 269.903Z" fill="#113A3F"/>
<path d="M145.499 271.924C144.994 276.47 138.931 278.49 135.9 274.449C133.374 271.419 134.385 265.863 139.942 265.863C144.489 265.863 145.499 269.398 145.499 271.924Z" fill="#113A3F"/>
<path d="M193.998 272.429C193.493 278.49 185.914 281.015 181.873 275.964C178.336 271.924 180.862 264.853 187.43 264.853C192.482 265.358 194.503 269.398 193.998 272.429Z" fill="#113A3F"/>
<path d="M243.003 272.429C241.993 280.005 232.899 283.036 227.847 276.974C223.805 271.924 226.331 263.337 234.415 262.832C240.982 263.337 243.508 268.893 243.003 272.429Z" fill="#113A3F"/>
<path d="M292.007 271.418C290.997 280.51 279.882 284.046 274.325 276.974C269.273 271.418 272.809 261.317 282.408 260.812C289.986 261.317 292.512 267.378 292.007 271.418Z" fill="#113A3F"/>
<path d="M341.013 269.903C340.002 280.005 327.372 284.046 320.805 276.974C315.247 270.408 319.289 259.296 329.898 258.286C338.487 258.286 341.518 264.852 341.013 269.903Z" fill="#113A3F"/>
<path d="M389.512 267.378C387.997 278.49 374.356 283.541 367.283 275.459C361.221 268.388 365.263 255.761 377.387 254.246C386.986 254.246 390.523 261.822 389.512 267.378Z" fill="#113A3F"/>
<path d="M438.011 263.842C436.496 275.964 421.34 282.025 413.762 272.934C407.194 265.357 412.246 251.215 424.876 249.7C434.98 249.7 438.517 257.781 438.011 263.842Z" fill="#113A3F"/>
<path d="M486.006 259.802C484.49 272.934 467.818 279.5 459.735 270.408C452.662 262.327 458.219 247.174 471.86 245.154C482.974 244.144 486.511 253.235 486.006 259.802Z" fill="#113A3F"/>
<path d="M532.484 254.751C530.463 268.893 513.791 275.964 505.203 266.368C498.13 257.781 503.687 241.619 517.833 239.093C529.452 238.083 533.494 247.68 532.484 254.751Z" fill="#113A3F"/>
<path d="M578.458 248.69C576.437 263.337 559.26 270.914 550.671 260.812C543.599 252.225 549.156 235.558 563.301 233.032C575.426 232.022 579.468 241.619 578.458 248.69Z" fill="#113A3F"/>
<path d="M622.41 242.124C620.389 256.771 603.717 264.853 595.634 254.751C588.561 246.164 594.119 229.497 608.264 226.466C619.379 224.951 623.42 234.547 622.41 242.124Z" fill="#113A3F"/>
<path d="M663.836 234.547C661.815 248.69 646.659 256.771 639.081 247.174C632.513 239.093 638.07 222.425 650.7 219.395C661.31 218.385 664.341 227.476 663.836 234.547Z" fill="#113A3F"/>
<path d="M702.737 226.971C701.221 240.608 687.076 248.185 680.508 239.598C674.951 232.022 679.498 215.859 691.117 212.829C700.211 211.313 703.242 219.9 702.737 226.971Z" fill="#113A3F"/>
<path d="M739.112 218.384C737.596 231.011 724.966 238.588 719.409 230.506C714.357 223.435 718.904 208.788 729.008 205.757C737.091 203.737 740.122 212.323 739.112 218.384Z" fill="#113A3F"/>
<path d="M773.465 209.293C771.949 220.405 762.35 227.476 756.793 221.415C751.741 215.354 755.278 200.706 764.371 197.676C771.949 196.161 774.475 203.737 773.465 209.293Z" fill="#113A3F"/>
<path d="M805.799 200.201C804.789 210.303 796.2 216.869 791.653 211.313C787.612 206.262 790.643 192.625 798.221 190.1C804.789 188.079 806.304 194.645 805.799 200.201Z" fill="#113A3F"/>
<path d="M836.111 190.099C835.1 198.686 828.533 204.747 824.996 199.696C821.46 195.15 824.491 183.533 830.553 181.008C835.1 179.998 836.616 185.554 836.111 190.099Z" fill="#113A3F"/>
<path d="M863.897 179.998C862.887 187.069 858.34 192.12 855.309 189.09C852.278 185.554 854.299 174.947 859.351 172.422C862.887 170.906 864.403 175.957 863.897 179.998Z" fill="#113A3F"/>
<path d="M889.663 169.391C889.158 175.452 885.116 179.493 883.095 176.968C880.569 173.937 882.59 165.351 886.127 163.33C889.158 161.815 889.663 165.856 889.663 169.391Z" fill="#113A3F"/>
<path d="M2.02017 311.825L1.00977 310.31L2.02017 309.3L3.03058 310.815L2.02017 311.825Z" fill="#113A3F"/>
<path d="M50.0148 313.846C50.0148 315.866 46.9836 316.876 45.468 314.856C43.9524 313.341 44.9628 310.815 47.4888 310.815C49.5096 310.815 50.52 312.836 50.0148 313.846Z" fill="#113A3F"/>
<path d="M98.0103 316.371C97.5051 319.907 92.9583 321.422 90.4323 318.392C88.4115 315.866 89.4219 311.32 93.4635 311.32C96.9999 311.825 98.0103 314.351 98.0103 316.371Z" fill="#113A3F"/>
<path d="M146.004 317.886C145.499 322.937 138.931 324.453 135.9 320.412C132.869 316.876 134.89 311.32 140.447 311.32C144.489 311.825 146.004 315.361 146.004 317.886Z" fill="#113A3F"/>
<path d="M194.502 318.897C193.997 325.463 185.409 327.483 181.367 322.432C177.831 318.392 180.357 311.321 186.924 310.815C192.987 311.321 195.007 315.361 194.502 318.897Z" fill="#113A3F"/>
<path d="M243.507 318.896C242.497 326.473 232.393 329.503 227.341 323.442C222.794 318.391 225.825 309.805 234.413 309.3C241.486 309.3 243.507 314.856 243.507 318.896Z" fill="#113A3F"/>
<path d="M292.007 317.887C290.996 326.978 278.872 330.514 273.314 323.948C268.262 317.887 271.799 307.785 281.903 307.28C289.986 307.28 292.512 313.341 292.007 317.887Z" fill="#113A3F"/>
<path d="M341.012 316.371C339.497 326.978 324.846 331.019 318.783 322.432C314.237 316.371 317.773 304.754 329.393 303.744C338.486 303.744 341.518 311.32 341.012 316.371Z" fill="#113A3F"/>
<path d="M389.512 313.846C387.996 325.968 371.324 330.514 364.757 321.422C359.705 314.351 363.746 301.724 376.376 300.713C386.48 300.208 390.017 307.785 389.512 313.846Z" fill="#113A3F"/>
<path d="M437.506 310.31C435.485 323.443 417.298 329.504 410.225 318.897C404.668 310.815 410.225 297.178 423.36 295.663C434.98 295.158 438.516 303.744 437.506 310.31Z" fill="#113A3F"/>
<path d="M484.996 305.765C482.975 319.907 463.272 326.473 455.694 315.361C450.137 307.28 455.189 292.127 469.84 290.107C481.964 289.602 486.006 299.199 484.996 305.765Z" fill="#113A3F"/>
<path d="M531.979 300.713C529.453 315.866 509.245 323.442 501.162 311.825C495.604 303.239 500.657 287.076 516.318 284.551C528.948 283.541 532.99 293.642 531.979 300.713Z" fill="#113A3F"/>
<path d="M577.952 294.653C575.426 310.815 554.713 318.392 546.629 306.775C541.072 298.188 546.124 281.015 562.291 277.985C575.931 276.974 578.962 287.581 577.952 294.653Z" fill="#113A3F"/>
<path d="M620.895 288.086C618.369 304.249 598.161 312.33 590.583 300.713C585.026 292.127 590.583 274.954 605.739 271.923C619.379 270.408 622.411 281.015 620.895 288.086Z" fill="#113A3F"/>
<path d="M661.815 281.015C659.289 296.168 642.112 304.754 634.534 294.653C627.967 286.066 634.029 268.388 648.175 265.358C659.794 263.842 663.331 273.439 661.815 281.015Z" fill="#113A3F"/>
<path d="M700.212 272.934C697.686 287.076 682.53 295.158 675.962 286.066C669.9 277.985 675.962 261.317 688.593 258.286C698.697 256.771 701.728 265.863 700.212 272.934Z" fill="#113A3F"/>
<path d="M736.586 264.852C734.565 277.985 720.924 286.066 715.367 277.48C710.315 270.408 715.367 254.751 726.482 251.215C735.07 249.7 737.596 258.286 736.586 264.852Z" fill="#113A3F"/>
<path d="M770.94 255.761C768.919 267.883 757.3 274.954 752.248 267.378C748.206 260.812 752.753 246.669 762.352 243.639C769.93 242.124 771.951 249.7 770.94 255.761Z" fill="#113A3F"/>
<path d="M802.767 246.669C801.251 256.771 792.158 263.842 787.611 258.286C783.569 252.73 787.611 239.093 795.694 236.063C801.757 234.547 803.777 241.113 802.767 246.669Z" fill="#113A3F"/>
<path d="M832.575 236.568C831.059 245.659 823.481 251.72 820.45 246.669C816.914 242.124 820.45 230.001 827.018 226.971C832.07 225.961 833.08 232.022 832.575 236.568Z" fill="#113A3F"/>
<path d="M859.856 226.466C858.34 234.042 852.783 239.598 850.257 235.557C847.731 231.517 850.257 221.415 855.814 218.889C859.856 217.374 860.866 222.425 859.856 226.466Z" fill="#113A3F"/>
<path d="M885.621 215.859C884.61 221.92 880.569 226.466 878.043 223.941C875.517 220.91 878.043 211.818 882.084 209.293C885.621 208.283 886.126 212.829 885.621 215.859Z" fill="#113A3F"/>
<path d="M5.05277 355.263C5.05277 356.273 3.53717 356.778 2.52676 355.768C2.02156 354.758 2.02156 353.748 3.53717 353.748C5.05277 353.748 5.05277 354.758 5.05277 355.263Z" fill="#113A3F"/>
<path d="M52.0359 358.293C52.0359 360.819 48.4995 361.829 46.9839 359.304C45.4682 357.788 45.9734 354.758 49.0047 354.758C51.0255 355.263 52.0359 357.283 52.0359 358.293Z" fill="#113A3F"/>
<path d="M99.0189 360.819C98.5137 364.86 93.4616 365.87 90.9356 362.839C88.4096 360.314 89.9252 355.768 94.472 355.768C98.0085 356.273 99.5241 358.799 99.0189 360.819Z" fill="#113A3F"/>
<path d="M147.013 362.334C146.508 367.385 139.435 368.9 136.404 365.365C133.373 361.829 135.394 356.273 140.951 355.768C145.498 356.273 147.013 359.809 147.013 362.334Z" fill="#113A3F"/>
<path d="M195.008 363.344C194.503 369.91 184.904 371.931 180.862 366.375C177.831 362.334 179.852 355.263 187.43 355.263C192.987 355.263 195.513 360.314 195.008 363.344Z" fill="#113A3F"/>
<path d="M243.003 363.344C241.993 371.426 230.878 373.951 225.826 367.385C221.785 361.829 225.321 354.253 233.91 353.748C240.982 353.748 243.508 359.304 243.003 363.344Z" fill="#113A3F"/>
<path d="M291.503 362.334C289.987 371.931 276.852 374.961 271.295 367.385C267.253 361.829 270.284 352.232 280.894 351.222C289.482 351.727 292.008 357.788 291.503 362.334Z" fill="#113A3F"/>
<path d="M340.001 360.819C338.485 371.426 323.329 375.467 317.266 366.88C312.72 360.819 316.256 349.202 328.381 348.192C337.475 348.192 340.506 355.768 340.001 360.819Z" fill="#113A3F"/>
<path d="M387.995 358.294C385.974 370.416 368.797 375.467 362.23 365.87C357.178 358.799 361.725 346.172 374.86 344.656C385.469 344.151 389.006 352.233 387.995 358.294Z" fill="#113A3F"/>
<path d="M435.991 354.758C433.97 367.89 414.773 373.951 407.7 363.345C401.637 355.263 408.205 341.121 421.845 339.605C433.465 339.605 437.002 348.192 435.991 354.758Z" fill="#113A3F"/>
<path d="M483.48 350.717C480.954 365.365 460.241 371.931 452.663 360.819C447.105 352.737 452.663 337.08 468.324 334.554C480.449 334.049 484.49 343.646 483.48 350.717Z" fill="#113A3F"/>
<path d="M529.958 345.666C526.927 361.324 505.203 368.9 497.12 357.283C491.058 348.697 497.12 331.524 513.792 328.999C527.432 327.483 531.474 338.09 529.958 345.666Z" fill="#113A3F"/>
<path d="M575.427 339.605C571.891 356.273 549.662 364.86 541.578 352.233C535.516 343.141 542.084 325.463 559.261 321.927C572.901 320.917 576.943 331.524 575.427 339.605Z" fill="#113A3F"/>
<path d="M618.369 333.039C614.832 350.212 593.614 358.798 585.53 346.171C579.468 336.575 587.551 318.897 603.212 315.866C616.348 314.351 619.884 324.958 618.369 333.039Z" fill="#113A3F"/>
<path d="M658.28 325.463C654.744 342.131 635.041 350.717 627.968 338.595C622.411 329.503 629.989 312.33 644.64 309.3C656.765 307.785 660.301 317.886 658.28 325.463Z" fill="#113A3F"/>
<path d="M696.17 317.886C693.139 332.534 676.973 341.12 670.405 331.524C664.848 323.442 671.415 306.269 684.551 302.734C695.16 301.219 697.686 310.815 696.17 317.886Z" fill="#113A3F"/>
<path d="M732.04 309.805C729.008 322.937 714.863 331.019 709.306 322.937C704.254 315.361 710.316 299.703 721.936 296.673C731.029 294.652 733.555 303.239 732.04 309.805Z" fill="#113A3F"/>
<path d="M765.383 300.714C762.857 312.836 750.732 320.412 746.185 312.836C742.144 306.27 747.701 292.127 757.3 288.592C765.383 287.076 766.898 294.653 765.383 300.714Z" fill="#113A3F"/>
<path d="M797.209 291.622C794.683 301.724 785.59 308.795 781.043 303.239C777.001 297.683 781.548 284.046 790.136 280.51C797.209 279.5 798.22 286.066 797.209 291.622Z" fill="#113A3F"/>
<path d="M826.513 282.025C824.492 291.117 816.409 297.178 813.378 292.632C810.346 288.087 814.388 275.459 821.461 272.934C826.513 271.419 827.523 276.975 826.513 282.025Z" fill="#113A3F"/>
<path d="M853.793 271.924C852.278 279.5 845.71 285.056 843.184 281.015C840.658 276.974 844.194 266.368 849.752 263.842C854.298 262.832 854.804 267.883 853.793 271.924Z" fill="#113A3F"/>
<path d="M879.053 261.317C877.538 267.378 872.991 271.924 870.97 269.399C868.949 266.368 871.475 257.276 876.022 254.751C879.558 253.741 879.558 258.287 879.053 261.317Z" fill="#113A3F"/>
<path d="M8.08294 398.195C8.08294 399.71 6.06213 399.71 5.55692 398.7C4.54652 397.69 5.05172 396.175 6.56733 396.175C7.57773 396.68 8.08294 397.69 8.08294 398.195Z" fill="#113A3F"/>
<path d="M54.0574 401.226C54.0574 403.751 50.5209 404.257 49.0053 402.236C47.4897 400.721 47.9949 397.69 51.0262 397.69C53.047 398.196 54.0574 400.216 54.0574 401.226Z" fill="#113A3F"/>
<path d="M100.534 403.751C100.029 407.792 94.9773 408.802 92.4512 405.771C89.9252 403.246 91.4408 398.7 95.9877 398.7C99.5241 399.205 100.534 401.731 100.534 403.751Z" fill="#113A3F"/>
<path d="M147.519 405.266C147.013 410.317 140.446 412.338 136.404 407.792C133.373 404.256 135.394 398.7 140.951 398.7C146.003 399.205 148.024 402.741 147.519 405.266Z" fill="#113A3F"/>
<path d="M195.008 405.772C194.503 412.338 184.904 414.358 180.357 408.802C177.326 404.257 179.852 397.69 186.925 397.69C193.492 398.196 195.513 402.741 195.008 405.772Z" fill="#113A3F"/>
<path d="M243.003 405.771C241.993 413.853 230.373 416.378 225.826 409.812C221.785 404.761 225.321 396.68 233.91 396.175C240.982 396.68 243.508 402.236 243.003 405.771Z" fill="#113A3F"/>
<path d="M290.491 405.266C288.976 414.358 275.84 417.894 270.283 410.317C266.241 404.761 269.273 395.165 279.882 394.66C288.47 394.66 290.996 400.721 290.491 405.266Z" fill="#113A3F"/>
<path d="M338.485 403.246C336.97 413.853 321.309 417.894 315.246 409.307C310.194 402.741 315.246 392.134 326.361 391.124C335.959 391.124 338.991 398.195 338.485 403.246Z" fill="#113A3F"/>
<path d="M385.975 400.721C383.954 412.338 366.272 417.389 359.705 408.297C354.653 401.226 359.2 389.104 372.84 387.588C383.449 387.588 386.986 395.165 385.975 400.721Z" fill="#113A3F"/>
<path d="M433.464 397.69C430.938 410.822 411.74 416.884 404.667 406.277C399.11 398.195 405.678 384.558 419.318 383.043C430.938 382.538 434.474 391.124 433.464 397.69Z" fill="#113A3F"/>
<path d="M479.943 393.144C476.912 407.792 455.693 414.358 448.115 403.246C442.558 395.165 448.115 379.507 464.787 376.981C478.427 376.981 481.459 387.083 479.943 393.144Z" fill="#113A3F"/>
<path d="M526.421 388.094C522.885 404.256 500.15 411.833 492.067 399.71C486.005 391.124 492.572 373.951 510.254 370.921C524.4 370.415 527.937 380.517 526.421 388.094Z" fill="#113A3F"/>
<path d="M571.385 382.538C567.343 400.216 543.599 408.802 535.01 395.67C528.948 386.578 536.526 367.89 554.713 364.86C570.375 363.344 573.406 374.961 571.385 382.538Z" fill="#113A3F"/>
<path d="M613.822 375.972C609.275 393.65 586.541 402.741 578.963 389.609C572.9 379.507 581.994 361.324 598.665 358.294C612.306 356.778 615.842 367.385 613.822 375.972Z" fill="#113A3F"/>
<path d="M653.227 368.9C649.185 385.568 628.472 394.155 621.904 382.538C616.852 372.941 624.935 356.273 640.091 352.737C652.216 350.717 655.247 360.819 653.227 368.9Z" fill="#113A3F"/>
<path d="M690.107 361.324C686.57 375.972 669.393 384.558 663.331 374.961C657.774 366.88 665.352 349.707 678.992 346.171C689.601 344.656 692.128 353.748 690.107 361.324Z" fill="#113A3F"/>
<path d="M724.966 352.738C721.43 365.87 706.779 373.951 701.727 365.87C697.18 358.799 704.253 342.636 715.872 339.605C724.966 338.09 726.987 346.171 724.966 352.738Z" fill="#113A3F"/>
<path d="M758.309 344.151C755.278 356.273 742.648 363.85 738.101 356.273C734.565 349.707 740.627 335.565 750.731 332.029C758.814 330.514 759.825 338.09 758.309 344.151Z" fill="#113A3F"/>
<path d="M789.126 335.059C786.095 345.666 775.486 352.738 772.454 346.171C769.423 340.615 774.981 327.483 783.064 324.453C789.631 322.937 790.642 330.009 789.126 335.059Z" fill="#113A3F"/>
<path d="M818.429 325.463C815.902 334.554 807.819 340.615 804.788 336.069C801.757 331.524 806.809 319.402 813.882 316.371C818.934 314.856 819.439 320.917 818.429 325.463Z" fill="#113A3F"/>
<path d="M845.205 315.866C843.185 323.443 836.617 328.999 834.091 324.958C832.07 320.917 836.112 310.31 841.669 307.785C846.216 306.775 846.216 311.826 845.205 315.866Z" fill="#113A3F"/>
<path d="M869.96 305.26C867.939 311.321 863.393 315.866 861.877 313.341C859.856 310.31 863.393 301.219 867.939 298.693C870.971 297.683 870.971 302.229 869.96 305.26Z" fill="#113A3F"/>
<path d="M892.694 294.652C891.178 299.703 887.642 303.744 886.632 301.219C885.116 298.693 888.147 291.117 891.178 289.097C893.704 288.591 893.704 292.127 892.694 294.652Z" fill="#113A3F"/>
<path d="M11.1142 439.107C11.1142 440.622 9.59858 440.623 8.58817 439.612C7.57777 438.602 8.08297 437.087 9.59858 437.592C10.609 437.592 11.1142 438.602 11.1142 439.107Z" fill="#113A3F"/>
<path d="M56.0769 442.138C56.0769 444.663 52.5405 445.168 51.0249 443.148C49.5093 441.633 50.0145 439.107 53.0457 439.107C55.5717 439.613 56.5821 441.128 56.0769 442.138Z" fill="#113A3F"/>
<path d="M102.051 444.663C102.051 448.199 96.9986 449.209 93.9674 446.684C91.4413 444.158 92.957 440.118 96.9986 440.118C101.04 440.118 102.556 442.643 102.051 444.663Z" fill="#113A3F"/>
<path d="M148.53 446.178C148.024 451.229 140.951 452.745 137.415 448.199C134.889 444.663 136.91 440.117 142.467 439.612C147.014 440.117 148.53 443.653 148.53 446.178Z" fill="#113A3F"/>
<path d="M195.514 446.684C195.009 453.25 185.41 455.27 181.369 449.714C178.338 445.674 180.864 439.107 187.936 439.107C193.494 439.613 195.514 443.653 195.514 446.684Z" fill="#113A3F"/>
<path d="M241.993 446.684C240.983 454.26 229.868 456.786 224.816 450.724C221.28 446.179 223.806 438.097 232.899 437.592C239.972 438.097 242.498 443.148 241.993 446.684Z" fill="#113A3F"/>
<path d="M288.976 446.178C287.46 454.765 274.325 458.3 269.273 451.229C264.726 445.673 268.768 436.582 278.872 436.077C286.955 436.077 289.481 441.633 288.976 446.178Z" fill="#113A3F"/>
<path d="M335.96 444.158C333.939 454.26 318.783 458.3 312.72 450.219C308.174 443.653 313.226 433.551 323.835 432.541C333.939 432.541 336.97 439.612 335.96 444.158Z" fill="#113A3F"/>
<path d="M382.943 442.138C380.417 453.755 363.746 458.301 357.178 449.209C352.631 442.643 357.178 430.521 370.313 429.511C380.417 429.006 383.954 436.582 382.943 442.138Z" fill="#113A3F"/>
<path d="M429.422 438.602C426.391 451.23 407.698 456.786 400.626 447.189C395.573 440.118 401.131 426.48 415.276 424.46C426.391 423.955 430.938 431.531 429.422 438.602Z" fill="#113A3F"/>
<path d="M475.396 434.562C471.86 448.704 451.147 455.27 444.074 444.158C439.022 436.582 444.579 421.429 460.746 418.904C474.386 418.399 476.912 428.501 475.396 434.562Z" fill="#113A3F"/>
<path d="M520.863 429.511C516.822 445.168 494.593 452.745 487.015 440.623C480.952 431.531 489.036 415.873 505.707 412.843C519.348 412.338 522.884 421.934 520.863 429.511Z" fill="#113A3F"/>
<path d="M565.321 423.45C560.775 440.118 537.03 448.704 529.452 436.077C523.39 426.48 532.483 409.307 549.66 406.277C564.816 405.267 567.342 416.378 565.321 423.45Z" fill="#113A3F"/>
<path d="M607.253 417.388C602.201 434.561 579.467 443.148 572.394 431.026C566.837 421.429 576.436 403.751 592.602 400.721C606.243 398.7 609.274 409.307 607.253 417.388Z" fill="#113A3F"/>
<path d="M645.649 410.317C641.102 426.48 620.389 435.067 614.326 423.45C609.779 415.368 617.358 398.195 633.019 394.66C646.154 392.639 647.67 403.246 645.649 410.317Z" fill="#113A3F"/>
<path d="M682.025 402.741C677.478 417.388 659.29 425.47 654.744 415.368C651.207 407.792 658.28 392.134 671.92 388.599C682.025 387.083 684.045 395.67 682.025 402.741Z" fill="#113A3F"/>
<path d="M716.377 394.66C712.335 407.287 697.684 415.368 693.137 407.287C689.096 400.216 696.169 385.063 707.788 382.033C717.387 380.012 717.892 389.104 716.377 394.66Z" fill="#113A3F"/>
<path d="M748.71 386.073C745.174 397.69 732.544 404.761 728.502 397.69C725.471 391.629 732.038 377.487 741.637 374.456C749.721 372.941 750.731 380.517 748.71 386.073Z" fill="#113A3F"/>
<path d="M779.527 377.487C775.991 387.588 765.381 394.66 762.855 388.093C760.329 382.537 766.392 370.415 774.475 367.385C780.538 365.87 781.043 372.436 779.527 377.487Z" fill="#113A3F"/>
<path d="M807.82 367.89C804.789 376.477 796.705 382.538 794.179 377.992C791.653 373.446 796.706 361.829 803.778 358.798C809.336 357.788 809.336 363.344 807.82 367.89Z" fill="#113A3F"/>
<path d="M834.595 358.293C832.069 365.87 825.502 370.921 823.481 367.385C821.46 363.344 826.007 353.243 831.564 350.717C835.606 349.202 835.606 354.253 834.595 358.293Z" fill="#113A3F"/>
<path d="M858.845 348.192C856.824 354.253 851.772 358.798 850.256 355.768C849.246 352.737 852.782 344.151 856.824 342.131C859.855 340.615 859.855 344.656 858.845 348.192Z" fill="#113A3F"/>
<path d="M881.074 337.585C879.559 342.636 876.022 346.172 874.507 344.151C873.496 342.131 876.528 334.555 879.559 332.534C882.085 331.524 882.085 335.06 881.074 337.585Z" fill="#113A3F"/>
<path d="M14.6515 478.504C14.6515 479.514 13.1359 480.019 12.6307 479.009C12.1255 478.504 12.1255 476.989 13.1359 476.989C14.1463 476.989 14.6515 477.999 14.6515 478.504Z" fill="#113A3F"/>
<path d="M59.1081 481.534C59.1081 483.555 56.0769 484.565 54.0561 482.545C52.5405 481.029 53.0457 478.504 56.0769 478.504C58.0977 478.504 59.1081 480.524 59.1081 481.534Z" fill="#113A3F"/>
<path d="M104.071 483.555C104.071 487.09 98.5138 488.101 96.493 485.07C94.4722 482.545 95.9878 479.514 99.5242 479.514C103.061 479.514 104.071 482.04 104.071 483.555Z" fill="#113A3F"/>
<path d="M149.539 485.07C149.034 489.616 141.961 491.131 138.93 487.09C136.404 484.06 137.92 479.514 143.477 479.514C148.024 479.514 149.539 483.05 149.539 485.07Z" fill="#113A3F"/>
<path d="M195.008 486.08C194.503 492.141 185.41 494.162 181.368 489.111C178.337 485.575 180.358 479.514 187.43 479.009C193.493 479.009 195.514 483.05 195.008 486.08Z" fill="#113A3F"/>
<path d="M240.981 486.081C239.971 493.152 229.362 495.677 224.815 489.616C221.278 485.07 224.309 477.999 232.393 477.494C238.96 477.999 241.486 482.545 240.981 486.081Z" fill="#113A3F"/>
<path d="M286.956 485.07C285.44 493.152 272.81 496.182 267.758 489.616C263.716 484.06 267.758 475.979 276.852 475.474C284.935 475.474 287.461 481.03 286.956 485.07Z" fill="#113A3F"/>
<path d="M332.928 483.555C330.907 493.151 316.256 496.687 310.699 489.111C306.152 483.05 311.204 473.453 321.813 472.443C330.907 472.443 333.938 479.009 332.928 483.555Z" fill="#113A3F"/>
<path d="M378.903 481.029C376.377 492.141 358.695 496.182 353.643 486.585C350.106 480.524 354.653 469.917 367.283 468.907C376.882 468.907 379.913 475.978 378.903 481.029Z" fill="#113A3F"/>
<path d="M424.371 477.999C421.34 490.626 401.637 495.172 396.08 485.07C392.544 478.504 398.101 466.887 411.236 464.867C422.351 464.362 425.382 471.938 424.371 477.999Z" fill="#113A3F"/>
<path d="M469.334 473.958C465.798 487.596 444.579 493.152 438.517 482.04C434.98 474.969 441.043 461.836 455.694 459.816C467.819 459.311 470.85 467.392 469.334 473.958Z" fill="#113A3F"/>
<path d="M513.286 468.907C508.739 483.555 486.51 490.121 480.447 477.999C476.911 470.422 483.479 456.28 499.14 453.755C512.275 453.249 515.306 462.341 513.286 468.907Z" fill="#113A3F"/>
<path d="M556.734 463.351C551.682 479.009 528.443 486.08 522.886 473.958C519.349 465.877 526.927 451.229 543.094 448.199C556.734 446.683 558.755 456.785 556.734 463.351Z" fill="#113A3F"/>
<path d="M597.655 456.785C592.603 471.938 571.384 480.019 565.322 468.907C560.775 460.826 568.858 444.663 585.025 441.633C598.16 440.117 599.676 450.219 597.655 456.785Z" fill="#113A3F"/>
<path d="M635.544 450.219C630.492 464.867 611.295 472.443 605.737 462.341C601.696 454.26 610.284 439.107 624.43 436.077C636.05 434.056 638.07 443.148 635.544 450.219Z" fill="#113A3F"/>
<path d="M671.415 442.643C666.363 456.28 649.186 463.857 645.144 454.26C641.608 446.684 650.196 432.541 662.321 429.511C672.425 427.995 673.941 436.582 671.415 442.643Z" fill="#113A3F"/>
<path d="M705.264 435.067C700.717 446.684 686.571 454.26 682.53 446.684C678.993 440.118 686.571 425.975 697.686 422.945C706.779 421.429 707.79 429.006 705.264 435.067Z" fill="#113A3F"/>
<path d="M737.09 426.48C733.049 437.087 720.924 444.158 717.387 437.592C714.861 431.531 721.429 418.904 731.028 415.874C738.606 414.358 739.111 421.429 737.09 426.48Z" fill="#113A3F"/>
<path d="M767.403 417.894C763.362 427.491 753.258 434.057 750.732 427.996C748.711 422.945 754.773 411.328 762.856 408.297C768.919 406.782 768.919 412.843 767.403 417.894Z" fill="#113A3F"/>
<path d="M795.189 408.802C792.157 416.883 784.074 422.439 781.548 418.399C779.527 414.358 785.085 403.246 791.652 400.721C797.21 399.205 796.704 404.256 795.189 408.802Z" fill="#113A3F"/>
<path d="M820.955 399.205C817.924 406.277 811.861 411.327 810.346 407.792C808.83 404.256 813.882 394.66 818.934 392.134C822.976 390.619 822.471 395.67 820.955 399.205Z" fill="#113A3F"/>
<path d="M845.204 389.104C842.678 394.66 838.131 399.205 836.615 396.68C835.1 394.155 839.141 385.568 843.688 383.548C846.719 382.032 846.214 386.073 845.204 389.104Z" fill="#113A3F"/>
<path d="M866.928 379.002C864.907 383.548 861.371 387.083 860.866 385.063C859.855 383.043 863.392 375.971 866.423 374.456C868.444 373.446 867.938 376.477 866.928 379.002Z" fill="#113A3F"/>
<path d="M886.632 368.395C885.116 371.426 882.59 374.456 882.085 372.941C881.58 371.426 884.106 365.87 886.126 364.354C888.147 363.849 887.642 366.375 886.632 368.395Z" fill="#113A3F"/>
<path d="M461.755 511.335C458.218 523.457 438.515 528.508 433.463 518.406C430.432 511.84 435.989 500.223 449.63 498.708C460.744 498.203 463.27 505.779 461.755 511.335Z" fill="#113A3F"/>
<path d="M504.697 506.284C500.15 519.416 479.437 524.972 474.89 514.365C471.859 507.294 478.427 495.172 492.572 493.151C504.192 492.646 506.718 500.728 504.697 506.284Z" fill="#113A3F"/>
<path d="M546.629 500.728C541.577 514.365 520.359 520.931 515.812 509.819C512.781 502.748 519.854 489.616 534.504 487.09C546.124 486.585 549.155 493.657 546.629 500.728Z" fill="#113A3F"/>
<path d="M586.54 494.667C581.488 507.799 562.796 514.871 557.744 505.274C553.702 497.698 562.291 484.06 575.931 481.535C587.551 480.525 588.561 489.111 586.54 494.667Z" fill="#113A3F"/>
<path d="M623.927 488.101C618.874 501.233 601.192 507.799 596.646 498.708C593.614 492.142 601.192 478.504 614.328 475.474C624.937 473.958 626.453 482.04 623.927 488.101Z" fill="#113A3F"/>
<path d="M659.291 481.029C654.239 493.151 638.072 500.223 635.041 491.636C632.515 485.07 640.598 471.938 651.713 469.412C660.806 467.897 661.311 474.968 659.291 481.029Z" fill="#113A3F"/>
<path d="M692.634 473.453C687.582 485.07 673.436 491.636 670.91 483.555C668.889 477.494 676.467 465.372 686.571 462.847C694.149 460.826 694.654 467.897 692.634 473.453Z" fill="#113A3F"/>
<path d="M723.957 465.372C719.41 474.969 707.79 481.535 705.264 475.474C703.243 470.423 710.316 458.301 718.904 455.775C725.977 454.26 725.977 460.321 723.957 465.372Z" fill="#113A3F"/>
<path d="M753.258 456.785C749.217 465.877 739.618 471.433 737.597 465.877C736.081 461.331 742.144 450.725 749.722 447.694C755.279 446.684 755.279 452.24 753.258 456.785Z" fill="#113A3F"/>
<path d="M780.538 447.694C777.002 455.27 769.423 460.321 767.908 456.28C766.392 452.744 771.95 442.643 778.517 440.117C782.559 439.107 782.054 443.653 780.538 447.694Z" fill="#113A3F"/>
<path d="M805.798 438.602C802.767 445.168 796.704 449.714 795.189 446.178C794.178 443.148 799.23 434.056 804.282 432.036C807.819 430.521 807.314 435.067 805.798 438.602Z" fill="#113A3F"/>
<path d="M829.037 428.501C826.511 433.552 821.964 437.592 820.954 435.572C819.944 433.046 823.985 425.47 828.027 423.45C831.058 422.44 830.553 425.975 829.037 428.501Z" fill="#113A3F"/>
<path d="M850.762 418.904C848.742 422.944 845.205 426.48 844.7 424.46C844.195 422.439 847.226 416.378 850.257 414.358C852.278 413.348 851.773 415.873 850.762 417.388C850.762 417.894 850.762 418.399 850.762 418.904Z" fill="#113A3F"/>
<path d="M869.959 408.297C868.443 411.327 866.422 413.853 865.917 412.843C865.412 411.833 867.938 406.782 869.959 405.266C871.474 404.761 870.464 406.782 870.464 407.287C870.464 407.792 869.959 407.792 869.959 408.297Z" fill="#113A3F"/>
<path d="M887.135 397.69C886.125 399.711 884.609 401.226 884.609 400.721C884.609 400.216 886.125 396.68 887.135 395.67C887.641 395.165 887.641 395.67 887.641 396.175C887.641 396.68 887.135 397.185 887.135 397.69Z" fill="#113A3F"/>
<path d="M677.983 509.82C672.931 519.921 660.301 525.477 658.28 518.911C656.765 513.355 664.343 503.253 672.931 500.728C680.004 499.213 680.004 505.274 677.983 509.82Z" fill="#113A3F"/>
<path d="M708.294 502.243C703.747 510.83 693.138 516.386 691.117 511.335C689.602 506.789 696.169 496.182 704.253 493.657C710.82 492.142 710.82 497.698 708.294 502.243Z" fill="#113A3F"/>
<path d="M737.092 493.657C733.05 501.738 723.956 506.789 722.441 502.243C721.43 498.202 727.493 488.606 734.565 486.08C739.618 484.565 739.112 489.616 737.092 493.657Z" fill="#113A3F"/>
<path d="M763.867 485.07C760.331 491.636 753.258 496.687 751.742 493.151C750.732 490.121 755.784 481.029 762.352 478.504C766.393 476.989 765.383 481.534 763.867 485.07Z" fill="#113A3F"/>
<path d="M788.622 475.979C785.591 482.04 779.529 486.08 779.023 483.05C778.518 480.019 783.57 472.443 788.117 470.423C791.148 468.907 790.138 472.948 788.622 475.979Z" fill="#113A3F"/>
<path d="M811.355 466.382C808.829 470.928 804.283 474.464 803.777 472.443C803.272 470.423 807.314 463.352 810.85 461.331C813.376 460.321 812.366 463.352 811.861 464.867C811.861 465.877 811.355 466.382 811.355 466.382Z" fill="#113A3F"/>
<path d="M832.069 456.785C830.048 460.321 827.017 463.351 826.512 461.836C826.006 460.321 829.543 454.765 832.069 453.25C834.09 452.239 833.079 455.27 832.574 455.775C832.574 455.775 832.069 456.28 832.069 456.785Z" fill="#113A3F"/>
<path d="M850.761 446.684C849.246 449.209 847.225 451.229 846.72 450.724C846.214 449.714 848.74 445.168 850.761 444.158C851.772 443.653 851.266 444.663 851.266 445.168C851.266 445.673 850.761 446.684 850.761 446.684Z" fill="#113A3F"/>
<path d="M867.433 436.582C866.422 438.097 865.412 439.612 865.412 439.107C865.412 438.602 866.928 435.571 867.938 435.066C867.938 435.066 868.443 435.066 868.443 435.571C867.938 435.571 867.938 436.077 867.433 436.582Z" fill="#113A3F"/>
<path d="M881.578 426.985V426.48L882.589 425.47V425.975L881.578 426.985Z" fill="#113A3F"/>
<path d="M791.148 502.748C788.622 506.789 785.085 509.82 784.58 507.799C784.075 506.284 788.117 500.223 791.653 498.708C794.179 497.697 792.663 500.728 792.158 501.233C791.653 501.738 791.653 502.243 791.148 502.748Z" fill="#113A3F"/>
<path d="M811.357 493.151C809.336 496.182 806.305 498.707 806.305 497.192C806.305 495.677 809.336 491.131 811.862 489.616C812.872 489.111 812.872 490.121 812.367 491.131C812.367 491.636 811.862 492.646 811.357 493.151Z" fill="#113A3F"/>
<path d="M829.542 483.555C828.532 485.575 826.511 487.595 826.006 486.585C826.006 485.575 828.027 482.039 829.542 481.029C830.047 481.029 830.047 481.029 830.047 481.534C830.553 482.545 830.047 483.05 829.542 483.555Z" fill="#113A3F"/>
<path d="M845.71 473.453C845.205 474.463 844.195 475.473 843.689 475.473C843.689 474.968 845.205 472.948 845.71 472.443C846.215 472.948 846.215 473.453 845.71 473.453Z" fill="#113A3F"/>
<path d="M859.855 463.857L860.361 463.352L859.855 463.857Z" fill="#113A3F"/>
</svg>
