<svg width="1094" height="500" viewBox="0 0 1094 500" fill="none" xmlns="http://www.w3.org/2000/svg">
<g opacity="0.2">
<mask id="mask0_395_3776" style="mask-type:luminance" maskUnits="userSpaceOnUse" x="-2" y="-245" width="1096" height="912">
<path d="M-2 666.52L-2 -245L1093.63 -245L1093.63 666.52L-2 666.52Z" fill="white"/>
</mask>
<g mask="url(#mask0_395_3776)">
<path d="M752.938 163.641C732.546 173.228 712.5 183.296 692.799 193.842C581.853 253.218 536 310.47 552.821 368.818C567.337 419.359 626.324 463.052 678.398 501.608C713.191 527.358 745.91 551.602 759.735 573.996C805.473 648.506 786.809 678.639 775.749 696.65C769.298 707.06 765.035 713.977 778.169 722.88C791.072 731.646 862.386 716.922 1002.71 676.653C1063.43 659.258 1095.57 634.467 1121.49 614.607C1134.39 604.677 1145.68 596.048 1157.9 590.295C1191.65 574.544 1203.75 572.352 1230.36 567.695C1252.48 563.792 1285.89 557.902 1351.22 540.439C1408.59 525.098 1485.2 491.473 1551.33 452.711C1589.01 430.659 1622.07 407.717 1649.72 384.57C1680.71 358.683 1704.1 333.07 1719.19 308.484C1747.19 262.942 1746.73 221.647 1717.93 185.693C1689.47 150.286 1647.07 120.29 1592.12 96.458C1537.51 72.8311 1473.22 56.532 1400.99 47.9715C1295.8 35.5759 1178.75 40.7807 1062.27 63.0379C1000.18 74.8856 938.194 91.5957 877.939 112.689C835.312 127.481 793.607 144.534 752.938 163.641ZM1051.9 656.45C1037.5 663.23 1021.03 669.599 1001.44 675.215C937.617 693.5 889 706.307 852.709 714.251C800.404 725.756 784.39 724.729 780.127 721.784C768.03 713.566 771.717 707.745 778.284 697.13C789.574 678.913 808.469 648.438 762.27 573.379C748.33 550.78 715.38 526.331 680.587 500.513C628.743 462.162 569.987 418.606 555.586 368.476C538.996 310.676 584.503 253.971 694.758 194.938C753.745 163.367 815.727 136.179 879.207 113.99C939.346 92.9654 1001.1 76.3238 1063.08 64.4761C1179.09 42.2874 1295.69 37.1511 1400.41 49.4781C1472.3 57.9701 1536.24 74.1323 1590.5 97.6908C1645.11 121.318 1687.16 151.177 1715.51 186.309C1744.08 221.852 1744.54 262.737 1716.77 307.868C1701.68 332.316 1678.41 357.792 1647.65 383.542C1620.11 406.621 1587.05 429.426 1549.61 451.478C1483.71 490.103 1407.32 523.66 1350.18 538.932C1285.09 556.327 1251.79 562.217 1229.67 566.12C1202.83 570.846 1190.5 573.037 1156.4 588.994C1156.28 588.994 1156.28 589.062 1156.17 589.062C1143.73 594.952 1132.44 603.581 1119.42 613.579C1101.79 626.934 1081.63 642.48 1051.9 656.45Z" fill="url(#paint0_linear_395_3776)"/>
<path d="M793.375 181.378C776.9 189.116 760.656 197.197 744.641 205.621C643.604 258.696 600.285 309.99 612.152 362.449C622.52 408.059 672.867 447.985 717.222 483.254C748.213 507.772 777.361 530.988 788.651 552.629C826.209 621.249 808.698 650.492 798.214 667.955C791.877 678.502 787.73 685.487 800.287 694.253C807.2 699.252 830.702 698.157 870.219 690.966C905.703 684.528 952.708 673.366 1006.05 658.71C1061.93 643.575 1092.23 621.729 1116.65 604.197C1128.4 595.705 1138.66 588.377 1149.72 583.172C1184.74 566.599 1195.68 564.202 1227.94 556.943C1249.6 552.081 1279.32 545.369 1331.51 531.125C1384.97 516.538 1456.4 485.103 1518.04 449.149C1553.29 428.604 1584.28 407.237 1610.09 385.802C1639.12 361.696 1661.01 338 1675.07 315.195C1700.53 274.105 1700.64 236.85 1675.3 204.388C1649.72 171.79 1611.47 143.986 1561.47 121.934C1511.82 99.9504 1453.29 84.747 1387.51 76.5975C1292.34 64.8867 1186.24 69.0642 1080.47 88.7191C1024.14 99.1971 967.801 114.058 912.961 132.96C872.408 146.793 832.315 163.093 793.375 181.378ZM1057.32 638.439C1042.69 645.287 1025.64 651.793 1005.13 657.409C892.224 688.363 814.458 702.129 802.361 693.363C790.725 685.282 794.527 678.981 800.748 668.503C811.347 650.834 828.974 621.318 791.186 552.218C779.78 530.371 750.402 507.087 719.296 482.433C675.055 447.369 624.94 407.58 614.686 362.312C602.935 310.333 646.023 259.449 746.254 206.785C800.057 178.433 856.624 153.984 914.229 134.124C968.953 115.359 1025.06 100.498 1081.28 90.0203C1186.58 70.4339 1292.23 66.2564 1387.04 77.9671C1452.71 86.0482 1510.89 101.183 1560.2 123.03C1609.74 145.013 1647.76 172.543 1673.22 204.936C1698.22 237.055 1698.11 273.968 1672.88 314.647C1654.21 344.712 1611.93 392.239 1516.42 448.054C1455.02 483.939 1383.82 515.236 1330.59 529.755C1278.52 544 1248.79 550.643 1227.14 555.505C1195.45 562.627 1183.59 565.298 1148.22 582.008C1136.93 587.35 1126.67 594.678 1114.81 603.238C1099.6 614.195 1082.09 626.797 1057.32 638.439Z" fill="url(#paint1_linear_395_3776)"/>
<path d="M834.275 198.773C821.602 204.731 808.929 210.963 796.486 217.469C705.356 264.243 664.572 309.648 671.83 356.354C678.052 397.033 719.987 433.193 756.854 465.175C783.813 488.528 809.274 510.511 818.03 531.399C847.408 594.061 830.933 622.277 821.141 639.192C814.919 649.944 810.772 657.067 822.754 665.627C838.422 677.68 930.704 661.176 1009.74 640.768C1061.12 627.824 1089.69 608.786 1112.73 593.514C1123.1 586.597 1132.09 580.639 1141.77 575.982C1181.4 557.08 1190.15 554.683 1238.77 541.74C1257.09 536.878 1279.9 530.782 1312.04 521.743C1344.88 512.566 1385.78 496.404 1427.14 476.269C1473.68 453.67 1516.66 427.988 1551.56 402.033C1592.81 371.352 1621.49 341.356 1636.59 312.935C1654.21 279.858 1653.18 249.588 1633.25 222.948C1610.55 193.089 1576.33 167.613 1531.52 147.204C1486.93 126.933 1434.17 112.689 1374.6 104.95C1289.46 93.8556 1194.19 97.0743 1099.25 114.127C1007.89 130.563 918.953 158.984 834.275 198.773ZM1063.89 620.154C1048.91 627.208 1031.05 633.919 1008.93 639.466C914.805 663.778 837.27 674.462 824.712 664.737C813.537 656.724 817.339 650.287 823.445 639.603C833.353 622.551 849.828 594.061 820.334 530.988C811.578 509.895 785.887 487.775 758.813 464.353C722.061 432.577 680.356 396.554 674.135 356.217C666.992 309.991 707.545 264.997 797.984 218.565C893.607 169.051 995.221 134.33 1099.95 115.496C1194.53 98.5125 1289.35 95.3622 1374.14 106.32C1433.24 113.99 1485.78 128.097 1530.13 148.3C1574.72 168.571 1608.71 193.91 1631.17 223.564C1650.87 249.862 1651.91 279.789 1634.4 312.593C1619.31 340.808 1590.85 370.667 1549.72 401.211C1514.93 427.098 1472.07 452.711 1425.64 475.242C1384.4 495.308 1343.73 511.333 1311.12 520.51C1278.98 529.481 1256.17 535.576 1237.97 540.507C1189.12 553.588 1180.25 555.916 1140.38 574.955C1130.59 579.611 1121.49 585.638 1111.01 592.623C1098.1 601.184 1083.36 610.909 1063.89 620.154Z" fill="url(#paint2_linear_395_3776)"/>
<path d="M874.482 216.509C865.727 220.618 856.971 224.864 848.33 229.247C767.108 269.79 728.859 309.373 731.624 350.258C733.928 386.007 765.956 417.03 796.947 447.026C819.643 469.078 841.187 489.897 847.178 510.031C868.491 566.667 853.745 592.828 844.067 610.086C837.616 621.523 833.699 628.371 845.219 636.932C859.044 648.232 932.893 641.999 1013.54 622.756C1061.12 611.935 1088.08 595.567 1109.85 582.419C1118.15 577.419 1125.98 572.625 1134.05 568.79L1138.08 566.804C1184.51 544.342 1188.31 542.493 1292.92 512.291C1322.3 503.799 1360.43 488.664 1397.53 470.721C1440.16 450.108 1479.67 426.823 1511.82 403.402C1549.95 375.597 1576.79 348.478 1591.31 322.796C1608.36 292.869 1608.25 265.475 1591.2 241.438C1571.49 214.318 1541.31 191.102 1501.45 172.337C1461.82 153.71 1414.81 140.561 1361.7 133.165C1286.47 122.755 1202.25 124.947 1118.03 139.465C1034.16 154.052 952.363 179.871 874.482 216.509ZM1072.07 601.457C1056.4 608.853 1037.27 615.976 1012.62 621.591C934.276 640.287 859.966 646.862 846.832 636.178C836.118 628.166 839.805 621.523 846.026 610.497C855.242 594.129 870.68 566.667 849.252 509.757C843.146 489.417 821.602 468.53 798.79 446.341C767.914 416.482 736.117 385.596 733.813 350.19C731.163 309.716 769.066 270.475 849.828 230.206C935.197 186.924 1025.64 156.86 1118.49 140.903C1202.37 126.453 1286.24 124.33 1361.01 134.671C1413.89 141.999 1460.55 155.079 1499.95 173.57C1539.47 192.129 1569.42 215.208 1589.01 242.122C1605.83 265.886 1605.94 292.937 1589.01 322.591C1574.49 348.067 1547.88 375.05 1509.86 402.785C1477.83 426.138 1438.43 449.354 1395.8 469.9C1358.82 487.774 1320.8 502.84 1291.54 511.264C1186.7 541.534 1182.9 543.383 1136.35 565.914L1132.32 567.9C1124.25 571.804 1116.31 576.529 1108.01 581.597C1097.87 587.76 1086.35 594.746 1072.07 601.457Z" fill="url(#paint3_linear_395_3776)"/>
<path d="M914.459 234.179C909.62 236.439 904.897 238.699 900.173 241.096C739.803 318.14 791.877 377.173 837.73 429.221C855.933 449.903 873.214 469.421 876.325 488.733C889.92 539.138 876.095 564.203 866.993 580.776C860.426 592.623 856.509 599.814 867.454 608.306C873.906 613.922 893.146 616.935 920.335 616.524C949.252 616.113 983.469 611.936 1016.88 604.814C1061.93 595.979 1086.81 582.488 1108.82 570.572C1114.69 567.421 1120.22 564.408 1125.75 561.737C1134.16 557.628 1141.3 553.93 1147.64 550.643C1176.9 535.576 1194.53 526.537 1273.1 503.047C1323.22 488.117 1406.75 451.067 1471.61 404.978C1506.75 380.05 1531.63 355.806 1545.57 332.933C1561.93 306.156 1562.97 281.707 1548.68 260.203C1531.86 235.823 1505.71 214.798 1470.92 197.746C1436.24 180.762 1394.99 168.64 1348.22 161.655C1282.9 151.93 1209.62 153.094 1136.24 165.079C1060.31 177.543 985.773 200.69 914.459 234.179ZM1083.24 582.282C1066.3 590.227 1045.57 597.965 1016.3 603.718C944.529 618.99 881.049 618.099 869.067 607.621C858.698 599.609 862.5 592.692 868.837 581.187C878.053 564.477 891.878 539.274 878.284 488.596C875.173 469.079 857.892 449.424 839.573 428.673C816.301 402.307 792.338 375.05 793.605 344.506C795.103 309.717 830.357 276.228 901.441 242.055C976.787 204.936 1055.94 179.46 1136.93 166.311C1209.97 154.464 1283.01 153.231 1347.87 162.887C1394.42 169.804 1435.43 181.857 1469.76 198.704C1504.33 215.62 1530.25 236.507 1546.95 260.682C1565.27 288.281 1566.77 335.604 1470.11 404.224C1405.48 450.177 1322.18 487.09 1272.3 501.951C1193.49 525.509 1175.75 534.618 1146.37 549.684C1140.04 552.903 1132.89 556.601 1124.48 560.71C1118.84 563.449 1113.31 566.463 1107.43 569.613C1100.06 573.79 1092.23 578.036 1083.24 582.282Z" fill="url(#paint4_linear_395_3776)"/>
<path d="M946.833 255.34C888.192 282.87 857.201 310.264 851.901 338.89C847.062 364.914 863.652 388.678 879.666 411.689C893.031 430.864 905.588 448.944 905.588 467.434C911.694 511.401 898.791 535.233 890.266 550.985C883.468 563.586 879.321 571.119 889.92 579.679C902.938 591.732 961.695 597.417 1020.68 586.87C1067.46 579.679 1091.77 567.626 1115.38 555.915L1118.03 554.614C1129.32 548.93 1138.31 543.794 1146.95 538.863C1170.22 525.577 1192.23 513.045 1253.86 493.801C1298.91 479.83 1373.8 446.547 1431.86 406.552C1480.82 372.858 1533.59 323.344 1506.75 278.898C1479.1 235.617 1416.54 203.224 1335.32 190.006C1280.02 181.035 1217.57 181.24 1154.9 190.554C1086.35 200.827 1018.84 221.372 954.206 251.779C953.4 252.121 952.709 252.532 951.902 252.874C950.289 253.696 948.561 254.518 946.833 255.34ZM1099.83 562.011C1080.13 571.256 1057.2 580.09 1020.11 585.774C957.087 597.006 902.593 589.404 891.418 578.994C881.394 570.845 885.427 563.517 891.994 551.259C900.634 535.439 913.538 511.469 907.316 467.297C907.316 448.601 894.643 430.453 881.279 411.141C865.38 388.267 848.906 364.64 853.744 338.89C859.044 309.716 891.648 281.912 953.169 253.696C953.976 253.354 954.667 252.943 955.474 252.601C1019.88 222.399 1087.16 201.854 1155.48 191.65C1217.8 182.336 1279.9 182.131 1334.97 191.034C1375.18 197.608 1410.55 208.634 1439.93 223.837C1469.42 239.109 1491.42 257.737 1505.13 279.241C1531.75 323.207 1479.33 372.31 1430.59 405.799C1372.64 445.657 1297.99 478.803 1253.17 492.773C1191.19 512.086 1169.19 524.687 1145.8 538.041C1137.16 542.972 1128.17 548.108 1116.88 553.724L1114.23 555.025C1109.39 557.354 1104.78 559.751 1099.83 562.011Z" fill="url(#paint5_linear_395_3776)"/>
<path d="M987.964 271.846C945.107 291.98 920.337 312.32 912.387 333.687C904.438 354.985 913.655 375.188 922.526 394.637C930.13 411.279 937.964 428.537 934.738 446.137C934.047 483.255 921.95 505.581 914 520.305C906.512 534.002 902.019 542.288 912.272 551.054C924.139 562.696 973.678 575.503 1024.25 568.928C1061.47 565.436 1087.16 559.067 1110.09 547.425C1122.18 541.193 1131.74 535.097 1141.77 528.591C1162.97 514.895 1184.97 500.719 1234.51 484.351C1274.6 471.202 1340.96 441.686 1392 407.923C1436.24 378.68 1484.74 335.741 1464.58 297.459C1442.81 259.518 1390.85 230.55 1322.18 218.086C1276.79 209.799 1225.29 209.046 1173.33 215.894C1115.85 223.496 1058.82 239.864 1003.75 264.586C998.333 267.052 993.033 269.449 987.964 271.846ZM1104.79 548.726C1083.13 558.93 1058.59 564.751 1023.91 567.97C974.024 574.407 925.291 561.943 913.655 550.506C903.862 542.151 908.01 534.481 915.498 520.579C923.563 505.786 935.66 483.392 936.351 446.137C939.577 428.468 931.742 411.142 924.139 394.363C915.268 374.982 906.166 354.917 914 333.892C922.756 310.265 952.48 287.871 1004.9 265.545C1059.85 240.891 1116.65 224.523 1173.8 216.99C1225.41 210.142 1276.56 210.895 1321.72 219.113C1389.81 231.509 1441.31 260.203 1462.97 297.869C1482.9 335.741 1434.74 378.338 1390.73 407.375C1339.81 441.069 1273.57 470.449 1233.59 483.598C1183.82 500.034 1161.7 514.21 1140.39 527.975C1130.36 534.413 1120.92 540.576 1108.82 546.74C1107.55 547.356 1106.17 548.041 1104.79 548.726Z" fill="url(#paint6_linear_395_3776)"/>
<path d="M1027.94 288.212C958.93 320.674 962.617 348.957 966.534 378.679C968.492 393.335 970.451 408.538 963.884 424.769C957.548 454.286 946.603 473.667 938.653 487.843C929.437 504.142 924.368 513.113 934.621 522.427C940.842 528.933 954.552 536.466 970.451 542.013C989.691 548.725 1010.08 551.944 1027.82 550.985C1058.24 550.985 1083.01 550.231 1102.13 540.301C1114.12 534.001 1124.14 526.673 1134.74 518.934C1153.86 504.964 1175.52 489.075 1215.15 475.105C1242.57 465.449 1302.37 440.794 1352.25 409.566C1378.17 393.267 1397.53 377.652 1409.63 363.065C1424.03 345.807 1428.29 330.056 1422.53 316.222C1406.75 283.487 1365.39 257.942 1309.28 246.095C1273.8 238.63 1233.13 236.918 1192 241.301C1146.49 246.163 1100.64 258.011 1055.94 276.57C1045.34 280.474 1036.12 284.377 1027.94 288.212ZM1098.91 540.712C1080.48 549.41 1056.63 550.095 1027.59 550.095C987.041 552.286 946.257 532.974 935.773 521.948C925.98 513.045 930.934 504.21 940.036 488.185C947.985 474.009 959.045 454.628 965.382 424.975C972.064 408.607 969.99 393.335 968.147 378.611C965.958 361.832 963.884 345.944 974.368 329.44C986.235 310.812 1012.39 294.239 1056.63 277.255C1101.21 258.764 1146.84 246.985 1192.11 242.123C1233.01 237.808 1273.33 239.383 1308.59 246.848C1364.23 258.627 1405.25 283.898 1420.92 316.359C1426.68 329.987 1422.3 345.533 1408.13 362.517C1396.03 377.036 1376.79 392.582 1350.99 408.812C1301.21 440.041 1241.65 464.627 1214.23 474.214C1174.37 488.254 1152.71 504.21 1133.47 518.25C1122.87 525.988 1112.96 533.247 1101.1 539.548C1100.41 539.959 1099.72 540.37 1098.91 540.712Z" fill="url(#paint7_linear_395_3776)"/>
<path d="M1065.73 304.306C1024.02 323.892 1017.8 342.794 1010.43 365.462C1006.51 377.31 1002.59 389.5 993.145 403.471C983.698 423.673 974.251 438.808 966.532 450.93C953.398 471.817 946.256 483.254 956.97 493.732C967.915 505.854 1001.9 530.714 1031.28 532.974C1033.24 533.316 1035.2 533.658 1037.27 533.932C1058.01 537.425 1079.44 540.986 1094.3 533.111C1105.7 526.947 1116.07 518.25 1127.13 509.141C1144.99 494.349 1165.15 477.57 1195.8 465.722C1229.09 452.916 1394.19 386.418 1380.36 334.781C1370.68 307.114 1340.04 284.72 1296.26 273.42C1270.11 266.64 1241.19 264.243 1210.31 266.297C1176.67 268.489 1142.11 275.885 1107.78 288.281C1090.61 293.759 1076.9 299.033 1065.73 304.306ZM1091.88 533.248C1077.71 539.89 1057.32 536.535 1037.5 533.179C1035.54 532.837 1033.47 532.494 1031.51 532.152H1031.39C1002.59 529.96 968.836 505.375 958.122 493.321C947.753 483.186 954.896 471.817 967.799 451.204C975.403 439.014 984.966 423.879 994.413 403.676C1003.86 389.705 1007.89 377.378 1011.81 365.531C1021.14 337.041 1028.51 314.51 1108.35 288.966C1142.57 276.639 1176.9 269.242 1210.43 267.051C1241.07 265.065 1269.76 267.462 1295.68 274.105C1339 285.336 1369.42 307.456 1378.98 334.85C1384.51 355.395 1361.7 380.802 1311.35 410.319C1267 436.274 1215.27 457.162 1194.99 464.969C1164.11 476.954 1143.84 493.801 1125.98 508.593C1115.04 517.702 1104.67 526.331 1093.38 532.426C1092.8 532.837 1092.34 533.042 1091.88 533.248Z" fill="url(#paint8_linear_395_3776)"/>
<path d="M1096.26 319.715C1071.6 331.289 1058.12 345.328 1039.46 364.709C1034.16 370.188 1028.63 375.941 1022.29 382.241C1018.26 387.172 1014.58 391.829 1011 396.143C980.243 434.015 966.188 451.273 979.206 465.175C988.193 475.79 1015.38 508.183 1034.62 515.031C1051.9 523.934 1073.33 533.248 1086.12 526.057C1096.72 520.031 1107.66 509.826 1119.18 498.938C1135.43 483.666 1153.86 466.339 1176.21 456.409C1180.48 454.56 1185.66 452.368 1191.65 449.766C1216.08 439.357 1253.06 423.537 1283.59 406.347C1320.11 385.734 1338.43 367.928 1338.08 353.478C1335.2 330.81 1314.81 310.812 1283.7 299.855C1249.14 287.733 1205.02 287.802 1159.51 300.129C1131.4 306.156 1111.7 312.456 1096.26 319.715ZM1084.39 525.989C1072.06 531.741 1051.79 522.907 1035.43 514.415L1035.31 514.346C1016.42 507.635 989.229 475.379 980.358 464.764C967.57 451.204 981.51 434.015 1012.16 396.417C1015.73 392.034 1019.41 387.446 1023.45 382.515C1029.78 376.215 1035.31 370.53 1040.61 365.052C1070.8 333.686 1087.39 316.428 1159.97 300.814C1205.25 288.624 1248.91 288.487 1283.13 300.471C1313.89 311.292 1334.05 331.152 1336.93 353.546C1337.27 367.791 1319.07 385.391 1282.78 405.868C1252.37 423.057 1215.38 438.809 1190.96 449.218C1184.97 451.752 1179.78 453.944 1175.52 455.861C1153.06 465.86 1134.51 483.255 1118.26 498.595C1106.74 509.416 1095.91 519.62 1085.43 525.578C1085.08 525.715 1084.74 525.852 1084.39 525.989Z" fill="url(#paint9_linear_395_3776)"/>
<path d="M1094.53 335.809C1080.24 342.52 1065.96 350.875 1051.55 360.942C1003.63 398.54 988.65 421.14 1001.67 436.48C1007.31 443.671 1015.84 458.6 1023.21 471.749C1029.09 482.159 1034.73 492.02 1038.19 496.814C1040.49 501.197 1045.45 506.539 1051.44 511.127C1057.89 516.127 1064.46 519.277 1069.87 520.099C1073.21 520.578 1075.98 520.167 1078.28 518.866C1088.19 512.976 1099.94 500.375 1112.38 487.09C1127.13 471.27 1142.45 454.971 1156.86 447.027C1164.69 442.781 1178.4 437.028 1194.3 430.316C1233.81 413.743 1287.85 391.144 1295.8 372.105C1301.33 353.82 1293.03 335.261 1274.37 323.619C1258.58 313.894 1236.81 309.785 1211.35 311.839C1179.67 312.182 1153.86 315.469 1130.24 322.249C1118.14 325.81 1106.28 330.262 1094.53 335.809ZM1076.79 518.798C1074.94 519.688 1072.75 519.893 1070.1 519.551C1059.04 517.907 1043.84 505.649 1039.11 496.677C1035.66 491.883 1030.01 482.022 1024.13 471.612C1016.65 458.395 1008.24 443.465 1002.48 436.275C989.687 421.14 1004.55 398.745 1052.25 361.353C1078.28 343.137 1103.97 330.536 1130.59 322.934C1154.21 316.222 1179.78 312.935 1211.35 312.593C1236.58 310.607 1258.01 314.579 1273.45 324.235C1291.99 335.74 1300.06 354.094 1294.64 372.174C1286.7 390.938 1232.89 413.469 1193.49 429.974C1177.59 436.617 1163.77 442.438 1155.93 446.684C1141.42 454.628 1126.09 470.996 1111.23 486.884C1098.79 500.17 1087.04 512.703 1077.25 518.524C1077.25 518.592 1077.02 518.661 1076.79 518.798Z" fill="url(#paint10_linear_395_3776)"/>
<path d="M1086.12 337.11C1084.28 337.931 1082.55 338.822 1080.82 339.712C1052.37 354.094 1033.59 367.859 1025.18 380.597C1018.49 390.596 1018.15 399.772 1024.14 407.922C1033.93 421.208 1044.65 463.668 1042 478.871C1040.96 484.555 1043.49 491.952 1048.91 499.279C1053.75 505.854 1060.08 510.99 1064.92 512.291C1067.11 512.839 1068.96 512.702 1070.34 511.812C1080.02 505.58 1094.88 487.363 1109.16 469.763C1120.22 456.135 1130.82 443.191 1137.39 437.781C1144.99 431.617 1167.57 423.947 1191.54 415.866C1216.19 407.511 1241.77 398.882 1253.52 391.006C1265.85 382.788 1275.41 370.05 1278.52 357.792C1282.21 343.479 1276.91 331.425 1263.54 323.892C1247.99 315.058 1218.73 310.949 1185.32 312.935C1149.95 314.989 1114.92 323.55 1086.12 337.11ZM1069.19 511.675C1068.15 512.154 1066.88 512.223 1065.27 511.812C1055.82 509.278 1040.61 491.404 1042.8 478.94C1045.45 463.668 1034.74 421.071 1024.83 407.716C1018.95 399.704 1019.3 390.664 1025.87 380.802C1034.28 368.133 1052.94 354.436 1081.28 340.123C1111.01 325.125 1147.87 315.674 1185.32 313.414C1218.04 311.497 1247.76 315.606 1262.85 324.235C1275.99 331.631 1281.17 343.547 1277.6 357.655C1274.49 369.776 1265.04 382.446 1252.83 390.595C1241.19 398.403 1215.73 407.032 1191.08 415.387C1167 423.536 1144.3 431.206 1136.7 437.438C1130.02 442.917 1119.42 455.792 1108.36 469.489C1094.07 487.089 1079.21 505.237 1069.65 511.401C1069.53 511.469 1069.42 511.538 1069.19 511.675Z" fill="url(#paint11_linear_395_3776)"/>
<path d="M-803.879 438.193C-822.658 447.027 -840.4 455.793 -856.99 464.422C-948.466 512.018 -1004.34 555.026 -1023.12 592.35C-1042.36 630.564 -1021.85 661.861 -962.175 685.351C-781.067 756.711 -649.614 791.98 -562.632 815.265C-523.461 825.743 -492.585 834.029 -471.271 841.973C-435.787 855.122 -355.717 857.177 -262.283 847.247C-161.821 836.563 -68.1563 814.648 -5.25244 787.118C81.4997 749.178 192.33 720.551 270.096 703.157C360.65 682.954 460.19 666.175 536.113 658.368C585.192 653.3 620.791 637.138 639.225 611.662C671.022 567.559 647.174 501.198 576.782 438.535C543.486 408.813 508.924 378.132 472.748 349.848C432.771 318.551 394.867 293.76 357.079 273.968C311.917 250.341 265.488 233.084 215.142 221.099C159.035 207.813 99.357 201.375 32.7664 201.581C-80.9445 201.855 -321.731 257.875 -552.724 337.727C-646.849 370.462 -732.564 404.704 -803.879 438.193ZM599.362 640.699C582.081 648.849 560.652 654.328 535.767 656.862C459.614 664.737 359.959 681.516 269.175 701.718C191.294 719.113 80.1173 747.808 -6.86523 785.885C-69.4235 813.279 -162.743 835.056 -262.744 845.671C-355.487 855.533 -434.865 853.616 -469.774 840.672C-491.318 832.728 -522.309 824.373 -561.48 813.895C-648.347 790.61 -779.685 755.41 -960.678 684.05C-1019.2 660.97 -1039.37 630.29 -1020.59 592.829C-1001.92 555.779 -946.392 512.977 -855.262 465.586C-775.422 424.016 -670.237 380.324 -551.111 339.097C-320.579 259.381 -80.3683 203.499 32.9969 203.156C99.2419 203.019 158.574 209.32 214.335 222.537C264.336 234.385 310.534 251.574 355.466 275.064C439.914 319.168 508.463 380.255 574.708 439.357C644.524 501.609 668.372 567.353 636.92 610.977C628.28 623.167 615.607 633.098 599.362 640.699Z" fill="url(#paint12_linear_395_3776)"/>
<path d="M-764.478 453.601C-779.34 460.587 -793.396 467.504 -806.76 474.352C-891.092 517.634 -942.706 556.875 -960.218 590.843C-977.96 625.222 -960.102 653.437 -906.991 674.667C-747.427 739.59 -624.385 774.585 -542.932 797.801C-504.683 808.69 -474.498 817.25 -453.069 825.332C-418.276 838.344 -342.93 841.083 -256.293 832.454C-163.55 823.209 -75.8763 803.211 -15.8525 777.53C64.4478 742.74 166.177 716.1 237.376 699.801C321.017 680.694 409.498 665.148 480.005 657.067C524.476 651.999 556.849 636.864 573.439 613.306C602.242 572.421 580.237 511.402 515.95 454.012C455.351 399.842 392.792 343.89 313.644 302.594C271.939 280.885 229.196 264.928 182.767 253.903C131.038 241.575 76.0839 235.617 14.7929 235.617C-90.3926 235.412 -312.86 286.158 -526.111 358.957C-615.974 389.774 -697.427 422.099 -764.478 453.601ZM535.766 640.973C520.328 648.232 501.434 653.232 479.544 655.697C408.806 663.778 320.211 679.324 236.454 698.5C165.14 714.799 63.1805 741.576 -17.3503 776.434C-77.1436 801.979 -164.356 821.907 -256.754 831.153C-342.815 839.713 -417.47 837.042 -451.802 824.236C-473.461 816.155 -503.646 807.526 -542.01 796.637C-623.348 773.489 -746.275 738.494 -905.724 673.64C-957.798 652.752 -975.425 625.153 -958.029 591.459C-940.632 557.697 -889.249 518.73 -805.262 475.653C-731.528 437.782 -634.523 397.924 -524.844 360.463C-311.939 287.802 -90.0469 237.192 14.7929 237.329C75.7383 237.329 130.347 243.288 181.845 255.478C227.929 266.435 270.556 282.255 312.031 303.896C390.949 345.054 453.507 400.937 513.992 454.971C577.817 511.881 599.707 572.421 571.25 612.826C563.071 624.332 551.089 633.782 535.766 640.973Z" fill="url(#paint13_linear_395_3776)"/>
<path d="M-725.077 468.943C-736.022 474.079 -746.621 479.215 -756.644 484.352C-833.834 523.387 -881.184 558.725 -897.544 589.406C-913.788 619.95 -898.466 645.083 -851.921 664.122C-712.865 723.018 -602.38 756.438 -521.734 780.887C-485.097 791.981 -456.18 800.747 -434.866 808.828C-400.304 821.908 -331.294 825.264 -250.302 817.868C-165.278 810.061 -83.7105 791.912 -26.5671 768.08C107.305 710.828 316.063 669.669 423.783 655.972C463.761 650.904 492.793 636.728 507.54 615.087C533.347 577.421 513.185 521.675 454.89 469.696C402.7 422.853 343.483 369.778 269.865 331.496C231.731 311.635 192.56 297.117 150.048 286.981C102.697 275.681 52.5814 270.134 -3.41003 269.997C-51.9128 269.655 -126.107 280.407 -218.159 301.089C-306.524 320.949 -406.525 349.165 -499.729 380.462C-585.098 409.088 -662.173 439.426 -725.077 468.943ZM472.171 641.316C458.692 647.685 442.217 652.137 423.323 654.534C315.372 668.231 106.153 709.526 -27.9495 766.916C-84.8625 790.68 -166.085 808.759 -250.763 816.498C-331.294 823.894 -399.612 820.539 -433.714 807.664C-455.143 799.514 -484.176 790.748 -520.812 779.654C-601.343 755.274 -711.713 721.853 -850.654 663.026C-896.277 644.398 -911.254 619.813 -895.355 589.885C-879.11 559.478 -831.99 524.346 -755.146 485.447C-687.519 451.205 -598.693 415.32 -498.461 381.626C-405.258 350.329 -305.372 322.182 -217.122 302.322C-125.416 281.708 -51.452 271.024 -3.2948 271.298C52.3509 271.435 102.236 276.983 149.357 288.214C191.523 298.281 230.579 312.8 268.482 332.523C341.87 370.668 400.972 423.675 453.046 470.449C510.881 522.086 530.927 577.284 505.466 614.539C497.863 625.497 486.687 634.537 472.171 641.316Z" fill="url(#paint14_linear_395_3776)"/>
<path d="M-685.562 484.145C-692.82 487.569 -699.732 490.925 -706.53 494.28C-776.576 529.07 -819.78 560.573 -834.872 587.898C-849.619 614.675 -836.831 636.727 -796.853 653.437C-677.036 706.854 -573.694 740.206 -498.232 764.655C-465.744 775.133 -437.633 784.241 -416.895 792.185C-383.139 805.129 -318.622 809.238 -244.543 803.142C-167.238 796.773 -91.6611 780.474 -37.3979 758.491C15.9437 736.028 88.1794 713.429 171.59 693.226C238.527 676.995 309.956 662.956 367.445 654.669C402.929 649.533 428.506 636.453 441.524 616.661C464.22 582.214 445.902 531.809 393.828 485.172C339.334 436.069 289.103 392.719 226.199 360.121C191.522 342.178 156.037 328.96 117.442 319.715C74.5848 309.442 29.0775 304.238 -21.6143 303.964C-66.0848 303.416 -133.828 312.73 -217.584 331.083C-297.654 348.615 -388.554 373.612 -473.347 401.622C-554.224 428.33 -627.036 456.683 -685.562 484.145ZM408.46 641.726C396.823 647.205 382.998 651.108 367.1 653.437C309.38 661.723 237.951 675.763 170.899 692.062C87.373 712.333 15.022 734.933 -38.4348 757.464C-92.4676 779.379 -167.699 795.609 -244.658 801.91C-318.277 807.936 -382.217 803.964 -415.628 791.158C-436.365 783.145 -464.476 774.105 -497.08 763.559C-572.542 739.179 -675.884 705.827 -795.471 652.478C-834.642 636.11 -847.199 614.538 -832.683 588.377C-817.706 561.258 -774.733 529.96 -705.032 495.376C-643.395 464.764 -562.864 432.782 -472.08 402.854C-387.286 374.913 -296.502 349.916 -216.547 332.385C-133.136 314.168 -65.6241 304.786 -21.384 305.333C28.9622 305.676 74.2392 310.744 116.866 321.016C155.231 330.193 190.6 343.342 225.047 361.216C287.836 393.678 337.952 436.959 392.33 485.994C444.059 532.289 462.262 582.282 439.911 616.319C432.768 626.728 422.169 635.289 408.46 641.726Z" fill="url(#paint15_linear_395_3776)"/>
<path d="M-645.929 499.212C-649.5 500.924 -653.072 502.568 -656.528 504.28C-719.432 534.824 -758.373 562.423 -772.313 586.46C-785.562 609.402 -775.309 628.372 -741.783 642.891C-639.823 691.583 -542.011 725.346 -470.582 750C-442.24 759.793 -417.816 768.217 -398.692 775.613C-365.051 788.625 -306.755 793.35 -238.436 788.488C-168.735 783.557 -99.3796 769.107 -47.8813 748.973C52.1197 707.54 208.458 670.422 311.454 653.438C342.445 648.301 364.681 636.18 375.971 618.305C395.557 587.077 379.082 542.014 333.114 500.719C286.8 458.738 240.601 418.606 182.882 388.885C151.775 372.859 119.862 361.012 85.1846 352.657C46.7049 343.343 5.92108 338.617 -39.3559 338.138C-79.9093 337.316 -141.2 345.329 -216.662 361.217C-288.552 376.352 -370.235 398.267 -446.733 422.921C-523.347 447.507 -591.781 473.804 -645.929 499.212ZM344.75 642.206C335.072 646.726 323.666 650.15 310.763 652.273C207.651 669.257 51.0829 706.444 -49.1486 747.945C-100.301 768.011 -169.426 782.324 -238.782 787.255C-306.525 792.049 -364.474 787.46 -397.654 774.586C-416.779 767.121 -441.319 758.697 -469.66 748.904C-540.974 724.25 -638.671 690.556 -740.631 641.864C-773.35 627.688 -783.373 609.197 -770.47 586.803C-756.645 563.039 -717.935 535.508 -655.376 505.17C-599.846 478.256 -527.495 450.178 -446.157 423.948C-369.774 399.363 -288.206 377.516 -216.431 362.313C-141.2 346.425 -80.1398 338.48 -39.8167 339.302C5.22983 339.782 45.7832 344.507 84.0325 353.752C118.48 362.039 150.278 373.818 181.153 389.775C238.643 419.428 284.841 459.491 331.04 501.335C376.778 542.357 393.137 586.94 373.782 617.826C367.676 627.893 357.768 636.111 344.75 642.206Z" fill="url(#paint16_linear_395_3776)"/>
<path d="M-606.181 514.004C-606.296 514.073 -606.411 514.141 -606.527 514.209C-662.288 540.439 -697.081 564.271 -709.754 584.953C-721.505 604.06 -713.786 620.017 -686.712 632.276C-601.112 677.406 -506.18 712.402 -436.94 737.946C-415.28 745.959 -396.501 752.876 -380.718 759.108C-347.768 771.983 -293.85 777.393 -232.675 773.832C-170.692 770.27 -107.212 757.738 -58.7095 739.453C-15.1607 721.784 40.2545 704.047 105.923 686.583C155.348 673.503 209.726 660.97 255.119 652.204C281.617 647.068 300.626 635.905 309.958 619.88C326.433 591.939 311.801 552.218 271.824 516.264C233.344 481.063 191.408 444.493 138.988 417.647C111.454 403.54 83.1122 392.993 52.3514 385.528C18.2497 377.242 -17.6954 372.927 -57.6728 372.311C-130.024 370.188 -275.878 399.157 -420.695 444.219C-492.585 466.613 -556.641 490.72 -606.181 514.004ZM281.041 642.822C273.322 646.452 264.451 649.26 254.543 651.177C209.15 659.943 154.657 672.476 105.232 685.625C39.4481 703.088 -16.0824 720.894 -59.7465 738.562C-108.019 756.711 -171.153 769.175 -232.905 772.736C-293.62 776.229 -347.192 770.955 -379.681 758.149C-395.464 751.917 -414.244 745 -435.903 736.987C-505.143 711.443 -599.96 676.448 -685.444 631.385C-711.827 619.469 -719.431 603.923 -707.91 585.296C-695.352 564.819 -660.79 541.192 -605.259 515.031C-605.144 514.963 -605.029 514.894 -604.914 514.826C-555.489 491.61 -491.433 467.504 -419.774 445.178C-275.302 400.115 -129.793 371.284 -57.6728 373.407C-17.9258 374.023 17.9041 378.338 51.7754 386.556C82.3057 393.952 110.532 404.43 137.952 418.469C190.256 445.246 232.077 481.748 270.557 516.88C310.188 552.492 324.705 591.87 308.46 619.469C302.585 629.125 293.368 637.001 281.041 642.822Z" fill="url(#paint17_linear_395_3776)"/>
<path d="M-566.432 528.591C-609.405 548.794 -636.71 567.216 -647.309 583.378C-657.447 598.718 -652.148 611.593 -631.525 621.592C-561.478 664.531 -464.358 702.54 -393.504 730.276C-382.329 734.659 -371.845 738.768 -362.513 742.466C-329.794 755.478 -281.522 761.367 -226.682 759.108C-171.382 756.848 -115.506 746.438 -69.3074 729.865C-38.3163 717.675 49.7031 685.624 199.013 650.972C221.134 645.835 236.802 635.563 244.291 621.387C257.54 596.664 244.751 562.354 210.995 531.878C179.889 503.115 142.676 470.448 95.4409 446.41C45.5556 421.003 -10.4358 407.991 -75.759 406.484C-108.363 405.183 -156.751 410.388 -215.853 421.551C-272.074 432.166 -333.826 447.369 -394.541 465.517C-457.099 484.213 -513.206 504.485 -556.755 524.139C-560.096 525.578 -563.322 527.084 -566.432 528.591ZM217.332 643.507C211.686 646.178 205.35 648.301 198.322 649.944C174.474 655.492 126.317 667.065 72.3992 682.269C15.8318 698.225 -32.2102 713.908 -70.3443 728.975C-116.313 745.479 -171.843 755.82 -226.913 758.08C-281.406 760.34 -329.218 754.451 -361.707 741.576C-371.039 737.809 -381.638 733.7 -392.698 729.386C-463.551 701.65 -560.672 663.71 -630.489 620.839L-630.604 620.77C-650.65 611.045 -655.834 598.581 -645.926 583.72C-634.751 566.805 -603.53 546.465 -555.833 524.893C-512.4 505.238 -456.408 485.035 -393.965 466.339C-333.481 448.259 -271.729 433.056 -215.622 422.441C-156.751 411.278 -108.478 406.073 -76.2199 407.375C-11.2422 408.881 44.4036 421.893 93.9433 447.095C140.948 470.996 178.046 503.663 209.152 532.358C242.678 562.627 255.35 596.595 242.332 621.044C237.608 630.426 228.968 638.028 217.332 643.507Z" fill="url(#paint18_linear_395_3776)"/>
<path d="M-525.88 542.22C-556.411 556.602 -576.803 570.093 -585.328 581.667C-593.854 593.309 -590.973 603.102 -576.572 610.909C-523.115 653.849 -397.884 704.321 -344.427 725.825C-277.606 752.671 -168.849 750.411 -80.023 720.278C-11.9347 694.46 75.1629 669.257 127.237 654.191C132.767 652.616 137.952 651.109 142.79 649.671C160.533 644.466 172.86 635.152 178.62 622.757C188.528 601.321 177.468 572.421 149.933 547.425C122.514 521.743 91.6378 495.24 51.7756 475.174C9.2636 453.739 -38.4328 442.439 -93.9633 440.658C-150.185 437.645 -258.021 455.725 -368.506 486.748C-421.617 501.678 -469.543 518.045 -507.101 534.002C-513.784 536.673 -520.005 539.481 -525.88 542.22ZM153.505 644.535C150.049 646.178 146.131 647.617 142.099 648.849C137.26 650.219 132.076 651.726 126.661 653.369C74.5869 668.436 -12.626 693.706 -80.7144 719.525C-168.964 749.452 -277.03 751.712 -343.39 725.072C-396.847 703.568 -521.848 653.164 -575.19 610.361V610.293C-589.13 602.828 -591.895 593.309 -583.6 582.078C-573.577 568.449 -546.618 552.013 -505.949 534.687C-468.506 518.73 -420.695 502.431 -367.584 487.501C-257.329 456.547 -149.839 438.467 -93.848 441.48C29.4252 445.521 93.7116 496.267 148.897 547.904C176.201 572.695 187.146 601.322 177.353 622.552C172.745 631.797 164.68 639.262 153.505 644.535Z" fill="url(#paint19_linear_395_3776)"/>
<path d="M-485.324 555.231C-503.988 563.997 -517.237 572.352 -523.688 579.817C-530.716 587.829 -529.909 594.678 -521.499 600.225C-512.283 614.47 -485.324 633.371 -441.314 656.45C-409.171 673.297 -367.35 692.473 -326.336 709.183C-260.552 735.892 -172.532 736.439 -90.7343 710.689C-63.1994 700.828 -34.1668 690.829 -6.05591 681.173C30.2348 668.709 64.567 656.93 86.5719 648.369C105.005 641.178 115.144 628.029 115.028 611.388C114.913 595.637 105.466 577.968 88.9912 562.833C52.2397 527.838 26.5482 512.84 8.22999 503.731C-26.9086 486.268 -66.1948 476.749 -111.933 474.557C-160.32 470.996 -248.685 483.666 -342.35 507.566C-402.489 522.975 -452.374 539.754 -485.324 555.231ZM89.5672 646.109C88.3 646.657 87.0326 647.205 85.7653 647.753C63.8757 656.245 29.5436 668.092 -6.74713 680.557C-34.858 690.213 -63.8906 700.211 -91.4255 710.073C-172.648 735.686 -260.206 735.138 -325.53 708.566C-366.429 691.925 -408.249 672.681 -440.392 655.902C-484.402 632.823 -511.246 613.99 -520.232 599.883V599.814L-520.347 599.746C-528.412 594.472 -529.103 587.898 -522.421 580.159C-504.679 559.751 -435.554 532.289 -342.004 508.457C-248.57 484.624 -160.435 471.955 -112.278 475.516C-66.7708 477.639 -27.7151 487.09 7.19308 504.485C41.9861 521.743 68.4841 545.027 87.7239 563.381C104.084 578.379 113.415 595.911 113.531 611.456C113.646 626.591 105.12 638.781 89.5672 646.109Z" fill="url(#paint20_linear_395_3776)"/>
</g>
<mask id="mask1_395_3776" style="mask-type:luminance" maskUnits="userSpaceOnUse" x="-2" y="-245" width="1096" height="912">
<path d="M-2 666.52L-2 -245L1093.63 -245L1093.63 666.52L-2 666.52Z" fill="white"/>
</mask>
<g mask="url(#mask1_395_3776)">
<g opacity="0.05">
<path d="M246.016 355.875C266.408 346.287 286.455 336.22 306.155 325.673C417.101 266.298 462.954 209.045 446.134 150.697C431.617 100.156 372.631 56.4633 320.556 17.9069C285.763 -7.84305 253.044 -32.0863 239.219 -54.4806C193.481 -128.991 212.145 -159.124 223.205 -177.135C229.657 -187.545 233.919 -194.462 220.786 -203.364C207.882 -212.13 136.568 -197.406 -3.75595 -157.138C-64.4709 -139.743 -96.6141 -114.952 -122.536 -95.0915C-135.439 -85.1613 -146.73 -76.5323 -158.942 -70.7797C-192.698 -55.0284 -204.795 -52.8369 -231.408 -48.18C-253.528 -44.2765 -286.939 -38.3869 -352.262 -20.9235C-409.636 -5.5831 -486.25 28.0424 -552.379 66.8043C-590.052 88.8561 -623.118 111.798 -650.768 134.946C-681.759 160.833 -705.146 186.446 -720.238 211.031C-748.234 256.573 -747.773 297.869 -718.971 333.823C-690.515 369.229 -648.118 399.225 -593.163 423.057C-538.554 446.684 -474.268 462.983 -402.032 471.544C-296.847 483.939 -179.795 478.735 -63.3187 456.477C-1.22128 444.63 60.761 427.92 121.015 406.827C163.642 392.034 205.348 374.913 246.016 355.875ZM-52.8348 -137.004C-38.4337 -143.783 -21.959 -150.152 -2.3735 -155.768C61.4521 -174.053 110.07 -186.86 146.361 -194.804C198.666 -206.309 214.68 -205.282 218.942 -202.337C231.039 -194.119 227.353 -188.298 220.786 -177.683C209.495 -159.466 190.601 -128.991 236.8 -53.9327C250.74 -31.333 283.69 -6.88428 318.483 18.9341C370.326 57.2851 429.083 100.841 443.484 150.971C460.074 208.771 414.567 265.476 304.312 324.509C245.325 356.08 183.343 383.268 119.863 405.457C59.7241 426.481 -2.02786 443.123 -64.0101 454.971C-180.025 477.159 -296.616 482.296 -401.341 469.969C-473.231 461.477 -537.172 445.314 -591.435 421.756C-646.044 398.129 -688.095 368.27 -716.437 333.138C-745.008 297.595 -745.469 256.71 -717.704 211.579C-702.611 187.13 -679.339 161.654 -648.578 135.905C-621.044 112.825 -587.979 90.0203 -550.536 67.9685C-484.637 29.3437 -408.253 -4.21344 -351.11 -19.4853C-286.017 -36.8802 -252.722 -42.7699 -230.602 -46.6734C-203.758 -51.3988 -191.431 -53.5903 -157.329 -69.547C-157.214 -69.547 -157.214 -69.6155 -157.099 -69.6155C-144.656 -75.5051 -133.366 -84.1341 -120.347 -94.1327C-102.835 -107.419 -82.6738 -122.964 -52.8348 -137.004Z" fill="#E5FD34"/>
<path d="M205.575 338.137C222.05 330.399 238.294 322.318 254.308 313.894C355.346 260.819 398.665 209.525 386.798 157.066C376.43 111.456 326.083 71.5298 281.728 36.2606C250.737 11.7434 221.589 -11.4726 210.299 -33.1135C172.741 -101.734 190.252 -130.977 200.736 -148.44C207.073 -158.987 211.22 -165.972 198.663 -174.738C191.75 -179.737 168.248 -178.642 128.731 -171.451C93.2468 -165.013 46.2417 -153.85 -7.09995 -139.195C-62.9761 -124.06 -93.276 -102.214 -117.7 -84.6818C-129.451 -76.1898 -139.705 -68.8621 -150.765 -63.6573C-185.788 -47.0842 -196.733 -44.6873 -228.992 -37.428C-250.651 -32.5656 -280.375 -25.8542 -332.564 -11.6096C-386.021 2.97748 -457.451 34.4116 -519.087 70.3656C-554.341 90.9107 -585.332 112.278 -611.139 133.713C-640.171 157.819 -662.061 181.515 -676.116 204.32C-701.578 245.41 -701.693 282.665 -676.347 315.127C-650.771 347.725 -612.521 375.53 -562.521 397.581C-512.866 419.565 -454.34 434.768 -388.556 442.918C-293.393 454.628 -187.286 450.451 -81.5247 430.796C-25.1877 420.318 31.1494 405.457 85.9887 386.555C126.542 372.722 166.635 356.423 205.575 338.137ZM-58.3678 -118.924C-43.7363 -125.772 -26.6854 -132.278 -6.17822 -137.894C106.726 -168.848 184.492 -182.614 196.589 -173.848C208.225 -165.767 204.423 -159.466 198.202 -148.988C187.603 -131.319 169.976 -101.803 207.764 -32.7026C219.17 -10.8562 248.548 12.4283 279.654 37.0824C323.894 72.1462 374.01 111.935 384.264 157.203C396.015 209.182 352.927 260.066 252.695 312.73C198.893 341.082 142.326 365.531 84.7214 385.391C29.9973 404.156 -26.1093 419.017 -82.3311 429.495C-187.632 449.081 -293.278 453.259 -388.095 441.548C-453.649 433.467 -511.829 418.332 -561.138 396.486C-610.678 374.502 -648.697 346.972 -674.158 314.579C-699.158 282.46 -699.043 245.547 -673.812 204.868C-655.149 174.803 -612.867 127.276 -517.359 71.4613C-455.953 35.5758 -384.754 4.27867 -331.527 -10.2399C-279.453 -24.4845 -249.729 -31.1275 -228.07 -35.9898C-196.388 -43.1121 -184.521 -45.783 -149.152 -62.4931C-137.862 -67.8348 -127.608 -75.1626 -115.742 -83.723C-100.649 -94.6805 -83.0224 -107.281 -58.3678 -118.924Z" fill="url(#paint21_linear_395_3776)"/>
<path d="M164.68 320.743C177.353 314.785 190.026 308.553 202.468 302.047C293.598 255.273 334.382 209.868 327.124 163.162C320.903 122.482 278.967 86.323 242.1 54.341C215.141 30.9881 189.68 9.00476 180.924 -11.8828C151.546 -74.5455 168.021 -102.761 177.814 -119.676C184.035 -130.428 188.182 -137.551 176.201 -146.111C160.532 -158.164 68.2502 -141.66 -10.7829 -121.251C-62.166 -108.308 -90.7377 -89.2695 -113.779 -73.9977C-124.148 -67.0808 -133.134 -61.1227 -142.812 -56.4658C-182.444 -37.5643 -191.2 -35.1673 -239.818 -22.2239C-258.136 -17.3615 -280.947 -11.2665 -313.09 -2.22659C-345.925 6.95024 -386.824 23.1124 -428.184 43.2467C-474.728 65.8463 -517.701 91.5278 -552.609 117.483C-593.854 148.164 -622.541 178.16 -637.633 206.581C-655.26 239.658 -654.223 269.928 -634.292 296.568C-611.596 326.427 -577.379 351.903 -532.563 372.312C-487.977 392.583 -435.212 406.827 -375.649 414.566C-290.51 425.66 -195.232 422.442 -100.3 405.389C-8.93967 388.953 80.0014 360.532 164.68 320.743ZM-64.8158 -100.638C-49.8387 -107.692 -31.9814 -114.403 -9.86133 -119.95C84.2641 -144.262 161.8 -154.946 174.357 -145.221C185.533 -137.208 181.731 -130.771 175.625 -120.087C165.717 -103.035 149.242 -74.5455 178.735 -11.4719C187.491 9.62111 213.183 31.7414 240.257 55.1628C277.008 86.9393 318.714 122.962 324.935 163.299C332.078 209.525 291.525 254.519 201.086 300.951C105.463 350.465 3.84848 385.186 -100.876 404.019C-195.462 421.003 -290.279 424.154 -375.073 413.196C-434.175 405.526 -486.71 391.419 -531.065 371.216C-575.651 350.945 -609.637 325.606 -632.103 295.952C-651.804 269.654 -652.841 239.727 -635.329 206.923C-620.237 178.708 -591.78 148.849 -550.651 118.305C-515.858 92.4181 -473 66.8051 -426.571 44.2739C-385.326 24.2082 -344.658 8.18294 -312.054 -0.993896C-279.91 -9.96529 -257.099 -16.0603 -238.896 -20.9912C-190.048 -34.0716 -181.177 -36.4 -141.314 -55.4385C-131.522 -60.0955 -122.42 -66.122 -111.936 -73.1074C-99.148 -81.6678 -84.4012 -91.3926 -64.8158 -100.638Z" fill="url(#paint22_linear_395_3776)"/>
<path d="M124.47 303.005C133.226 298.896 141.982 294.65 150.623 290.267C231.845 249.724 270.094 210.141 267.329 169.256C265.025 133.507 232.997 102.484 202.006 72.4881C179.31 50.4363 157.766 29.6172 151.775 9.48293C130.461 -47.1532 145.208 -73.314 154.885 -90.5719C161.337 -102.009 165.254 -108.857 153.733 -117.418C139.908 -128.717 66.0595 -122.485 -14.5865 -103.241C-62.1677 -92.421 -89.1265 -76.0534 -110.901 -62.9045C-119.196 -57.9051 -127.03 -53.1113 -135.095 -49.2762L-139.127 -47.2901C-185.556 -24.8275 -189.358 -22.9784 -293.967 7.22298C-323.346 15.715 -361.48 30.8499 -398.577 48.7927C-441.204 69.4063 -480.72 92.6908 -512.864 116.112C-550.998 143.917 -577.841 171.036 -592.358 196.718C-609.408 226.645 -609.293 254.039 -592.243 278.077C-572.542 305.196 -542.357 328.412 -502.495 347.177C-462.863 365.804 -415.858 378.953 -362.747 386.349C-287.516 396.759 -203.298 394.568 -119.081 380.049C-35.2088 365.462 46.5893 339.643 124.47 303.005ZM-73.1124 -81.943C-57.4441 -89.3392 -38.3195 -96.4615 -13.6648 -102.077C64.677 -120.773 138.987 -127.348 152.12 -116.664C162.835 -108.652 159.148 -102.009 152.927 -90.9828C143.71 -74.6152 128.272 -47.1532 149.701 9.75688C155.807 30.0966 177.351 50.9841 200.162 73.1729C231.038 103.032 262.836 133.918 265.14 169.324C267.79 209.798 229.886 249.039 149.125 289.308C63.6401 332.59 -26.7986 362.723 -119.657 378.679C-203.529 393.129 -287.401 395.252 -362.171 384.911C-415.052 377.584 -461.711 364.503 -501.112 346.012C-540.629 327.453 -570.583 304.374 -590.169 277.46C-606.989 253.696 -607.104 226.645 -590.169 196.992C-575.652 171.516 -549.039 144.533 -511.021 116.797C-478.992 93.4441 -439.591 70.2281 -396.964 49.683C-359.982 31.8087 -321.963 16.7422 -292.7 8.31874C-187.86 -21.9511 -184.058 -23.8002 -137.514 -46.3314L-133.482 -48.3174C-125.417 -52.221 -117.468 -56.9464 -109.173 -62.0142C-98.9192 -68.2462 -87.3983 -75.2316 -73.1124 -81.943Z" fill="url(#paint23_linear_395_3776)"/>
<path d="M84.4884 285.337C89.3271 283.077 94.0507 280.817 98.7743 278.42C259.145 201.375 207.07 142.342 161.217 90.2946C143.014 69.6124 125.733 50.0946 122.622 30.7821C109.028 -19.622 122.853 -44.6871 131.954 -61.2602C138.521 -73.1079 142.438 -80.2987 131.494 -88.7907C125.042 -94.4064 105.802 -97.4196 78.6128 -97.0087C49.6954 -96.5978 15.4784 -92.4203 -17.9321 -85.298C-62.9787 -76.4636 -87.8637 -62.9722 -109.868 -51.0561C-115.744 -47.9058 -121.274 -44.8925 -126.804 -42.2217C-135.215 -38.1126 -142.357 -34.4145 -148.694 -31.1273C-177.957 -16.0608 -195.584 -7.02097 -274.156 16.469C-324.272 31.3985 -407.798 68.4482 -472.66 114.538C-507.799 139.466 -532.684 163.709 -546.624 186.583C-562.984 213.36 -564.021 237.809 -549.735 259.313C-532.914 283.693 -506.762 304.717 -471.969 321.77C-437.291 338.754 -396.047 350.876 -349.272 357.861C-283.949 367.586 -210.676 366.421 -137.288 354.437C-61.3657 341.973 13.2895 318.757 84.4884 285.337ZM-84.2922 -62.7668C-67.3566 -70.7109 -46.619 -78.4496 -17.356 -84.2023C54.4189 -99.4741 117.899 -98.5839 129.881 -88.1058C140.249 -80.0932 136.447 -73.1763 130.111 -61.6711C120.894 -44.961 107.069 -19.7589 120.664 30.9191C123.775 50.437 141.056 70.0919 159.374 90.8425C182.646 117.209 206.61 144.465 205.342 175.009C203.845 209.799 168.591 243.288 97.507 277.461C22.1606 314.579 -56.9878 340.055 -137.979 353.204C-211.022 365.052 -284.064 366.284 -348.927 356.628C-395.471 349.711 -436.485 337.658 -470.817 320.811C-505.38 303.896 -531.302 283.008 -548.007 258.833C-566.325 231.234 -567.823 183.912 -471.163 115.291C-406.531 69.3385 -323.235 32.4258 -273.35 17.5648C-194.547 -5.99368 -176.805 -15.102 -147.426 -30.1685C-141.09 -33.3872 -133.947 -37.0854 -125.537 -41.1944C-119.892 -43.9338 -114.362 -46.9471 -108.486 -50.0973C-101.113 -54.2748 -93.1633 -58.5208 -84.2922 -62.7668Z" fill="url(#paint24_linear_395_3776)"/>
<path d="M52.2353 264.175C110.876 236.645 141.868 209.251 147.167 180.625C152.006 154.601 135.416 130.837 119.402 107.827C106.038 88.6512 93.48 70.5714 93.48 52.0808C87.374 8.11416 100.277 -15.7182 108.803 -31.4695C115.6 -44.0705 119.748 -51.6037 109.148 -60.1642C96.1298 -72.2174 37.3734 -77.9015 -21.6134 -67.355C-68.3881 -60.1642 -92.6971 -48.1111 -116.315 -36.4003L-118.965 -35.0991C-130.255 -29.415 -139.241 -24.2787 -147.882 -19.3479C-171.154 -6.062 -193.159 6.47054 -254.796 25.7145C-299.842 39.6852 -374.728 72.9684 -432.793 112.963C-481.757 146.657 -534.522 196.171 -507.679 240.617C-480.028 283.899 -417.47 316.291 -336.248 329.509C-280.948 338.48 -218.505 338.275 -155.831 328.961C-87.2823 318.688 -19.7701 298.143 44.8619 267.736C45.6684 267.394 46.3596 266.983 47.1661 266.641C48.779 265.819 50.5072 264.997 52.2353 264.175ZM-100.877 -42.4954C-81.1763 -51.7407 -58.2497 -60.5751 -21.1525 -66.2593C41.8666 -77.4906 96.3602 -69.8889 107.535 -59.4794C117.559 -51.3298 113.526 -44.002 106.959 -31.7434C98.3187 -15.9236 85.4155 8.04568 91.6367 52.2178C91.6367 70.9138 104.31 89.0621 117.674 108.374C133.573 131.248 150.047 154.875 145.209 180.625C139.909 209.799 107.305 237.604 45.7836 265.819C44.9772 266.161 44.2859 266.572 43.4795 266.915C-20.9222 297.184 -88.204 317.73 -156.523 327.934C-218.851 337.247 -280.948 337.453 -336.018 328.55C-376.225 321.976 -411.595 310.95 -440.973 295.746C-470.466 280.474 -492.471 261.847 -506.181 240.343C-532.794 196.376 -480.374 147.273 -431.641 113.785C-373.691 73.9271 -299.036 40.781 -254.22 26.8103C-192.237 7.49783 -170.232 -5.10323 -146.845 -18.4576C-138.204 -23.3884 -129.218 -28.5247 -117.928 -34.1403L-115.278 -35.4416C-110.439 -37.907 -105.716 -40.2354 -100.877 -42.4954Z" fill="url(#paint25_linear_395_3776)"/>
<path d="M10.9915 247.671C53.8491 227.536 78.6189 207.197 86.5683 185.83C94.5177 164.531 85.3009 144.329 76.4299 124.879C68.8261 108.238 60.992 90.9798 64.2178 73.3794C64.909 36.2612 77.0059 13.9354 84.9553 -0.788624C92.4439 -14.4854 96.937 -22.7719 86.6835 -31.5378C74.817 -43.1801 25.2773 -55.9866 -25.2992 -49.4121C-62.5116 -45.9195 -88.2031 -39.5505 -111.13 -27.9082C-123.227 -21.6762 -132.789 -15.5811 -142.812 -9.07515C-164.01 4.62162 -186.015 18.7978 -235.555 35.1654C-275.648 48.3143 -342.008 77.8308 -393.045 111.593C-437.285 140.836 -485.788 183.775 -465.626 222.058C-443.852 259.998 -391.893 288.967 -323.229 301.431C-277.837 309.717 -226.338 310.47 -174.379 303.622C-116.89 296.02 -59.8619 279.653 -4.7922 254.93C0.622612 252.396 6.0375 250.068 10.9915 247.671ZM-105.83 -29.2094C-84.1709 -39.4135 -59.6315 -45.2346 -24.9537 -48.4534C24.9316 -54.8908 73.665 -42.4268 85.301 -30.99C95.0938 -22.635 90.9461 -14.9648 83.4576 -1.06253C75.393 13.73 63.2961 36.1242 62.6048 73.3794C59.379 91.0482 67.2132 108.375 74.8169 125.153C83.688 144.534 92.7895 164.6 84.9553 185.624C76.1995 209.251 46.4756 231.646 -5.94428 253.971C-60.8988 278.625 -117.697 294.993 -174.84 302.526C-226.454 309.375 -277.606 308.621 -322.768 300.403C-390.856 288.008 -442.354 259.313 -464.014 221.647C-483.945 183.775 -435.788 141.178 -391.778 112.141C-340.856 78.4472 -274.611 49.0676 -234.633 35.9187C-184.863 19.4826 -162.743 5.30647 -141.43 -8.45878C-131.406 -14.8963 -121.959 -21.0598 -109.862 -27.2234C-108.595 -27.8397 -107.213 -28.5246 -105.83 -29.2094Z" fill="url(#paint26_linear_395_3776)"/>
<path d="M-28.9887 231.302C40.0212 198.84 36.3346 170.557 32.4175 140.835C30.459 126.179 28.5003 110.976 35.0672 94.745C41.4037 65.2285 52.3485 45.8476 60.2979 31.6715C69.5146 15.3723 74.5838 6.40093 64.3302 -2.91287C58.109 -9.41883 44.3992 -16.952 28.5004 -22.4992C9.26055 -29.2106 -11.1314 -32.4294 -28.8736 -31.4706C-59.2886 -31.4706 -84.0585 -30.7173 -103.183 -20.7871C-115.165 -14.4866 -125.188 -7.15889 -135.787 0.579784C-154.912 14.5505 -176.571 30.4387 -216.203 44.4094C-243.622 54.0657 -303.416 78.7198 -353.301 109.948C-379.223 126.248 -398.578 141.862 -410.675 156.449C-425.076 173.707 -429.339 189.458 -423.578 203.292C-407.795 236.027 -366.435 261.572 -310.328 273.419C-274.844 280.884 -234.175 282.596 -193.046 278.213C-147.538 273.351 -101.685 261.503 -56.9843 242.944C-46.3852 239.04 -37.1685 235.137 -28.9887 231.302ZM-99.9572 -21.1981C-81.5238 -29.8955 -57.6756 -30.5804 -28.6431 -30.5804C11.9104 -32.7718 52.6942 -13.4594 63.1782 -2.43348C72.9709 6.46942 68.017 15.3038 58.9155 31.329C50.9661 45.5052 39.9061 64.8861 33.5696 94.5396C26.8875 110.907 28.9612 126.179 30.8046 140.903C32.9935 157.682 35.0672 173.57 24.5833 190.075C12.7168 208.702 -13.4356 225.275 -57.6757 242.259C-102.261 260.75 -147.884 272.529 -193.161 277.391C-234.06 281.706 -274.383 280.131 -309.637 272.666C-365.283 260.887 -406.297 235.616 -421.965 203.155C-427.726 189.527 -423.348 173.981 -409.177 156.997C-397.08 142.478 -377.84 126.932 -352.034 110.702C-302.264 79.4732 -242.701 54.8875 -215.281 45.2998C-175.419 31.2606 -153.76 15.3038 -134.52 1.26463C-123.921 -6.47405 -114.013 -13.7333 -102.146 -20.0338C-101.34 -20.5132 -100.648 -20.8556 -99.9572 -21.1981Z" fill="url(#paint27_linear_395_3776)"/>
<path d="M-66.7775 215.209C-25.072 195.623 -18.8508 176.721 -11.4774 154.053C-7.56031 142.205 -3.64322 130.015 5.80389 116.044C15.251 95.8416 24.6981 80.7067 32.417 68.5851C45.5508 47.6975 52.6937 36.2607 41.9793 25.7827C31.0345 13.6611 -2.95208 -11.1986 -32.3303 -13.4586C-34.2888 -13.801 -36.2473 -14.1434 -38.3211 -14.4173C-59.0586 -17.91 -80.4874 -21.4711 -95.3493 -13.5955C-106.755 -7.43196 -117.124 1.26549 -128.184 10.3738C-146.041 25.1663 -166.203 41.9449 -196.848 53.7926C-230.143 66.599 -395.237 133.097 -381.412 184.734C-371.735 212.401 -341.089 234.795 -297.31 246.095C-271.158 252.875 -242.24 255.272 -211.364 253.217C-177.723 251.026 -143.161 243.63 -108.829 231.234C-91.6626 225.755 -77.9528 220.482 -66.7775 215.209ZM-92.93 -13.7325C-78.7593 -20.3754 -58.3673 -17.0197 -38.5514 -13.664C-36.5929 -13.3216 -34.5192 -12.9792 -32.5606 -12.6368H-32.4454C-3.6433 -10.4453 30.1128 14.1404 40.8272 26.1936C51.196 36.3292 44.0531 47.6975 31.1498 68.3111C23.546 80.5013 13.9836 95.6362 4.53648 115.839C-4.91062 129.81 -8.94289 142.137 -12.86 153.984C-22.1919 182.474 -29.5652 205.005 -109.405 230.549C-143.622 242.876 -177.954 250.273 -211.48 252.464C-242.125 254.45 -270.812 252.053 -296.734 245.41C-340.052 234.179 -370.468 212.059 -380.03 184.665C-385.56 164.12 -362.749 138.713 -312.402 109.196C-268.047 83.2406 -216.318 62.3531 -196.042 54.5459C-165.166 42.5612 -144.889 25.7142 -127.032 10.9217C-116.087 1.81335 -105.718 -6.81561 -94.4276 -12.9107C-93.8515 -13.3216 -93.3908 -13.527 -92.93 -13.7325Z" fill="url(#paint28_linear_395_3776)"/>
<path d="M-97.3063 199.8C-72.6517 188.226 -59.1723 174.187 -40.5085 154.806C-35.2089 149.327 -29.6789 143.575 -23.3424 137.274C-19.3101 132.343 -15.6234 127.687 -12.0519 123.372C18.7088 85.5006 32.7642 68.2426 19.7456 54.3404C10.7593 43.7254 -16.4299 11.3326 -35.6697 4.48418C-52.951 -4.41871 -74.3799 -13.7325 -87.168 -6.5417C-97.7672 -0.515119 -108.712 9.68895 -120.233 20.5779C-136.477 35.8498 -154.911 53.1762 -177.261 63.1064C-181.524 64.9554 -186.708 67.1469 -192.699 69.7493C-217.123 80.1588 -254.105 95.9786 -284.636 113.168C-321.157 133.782 -339.475 151.587 -339.129 166.038C-336.249 188.706 -315.857 208.703 -284.751 219.66C-250.188 231.782 -206.063 231.714 -160.556 219.386C-132.445 213.36 -112.744 207.059 -97.3063 199.8ZM-85.4399 -6.47323C-73.1126 -12.2259 -52.8359 -3.39144 -36.4762 5.10055L-36.3611 5.16902C-17.4668 11.8804 9.72247 44.1363 18.5935 54.7513C31.3817 68.3111 17.4415 85.5005 -13.204 123.098C-16.7755 127.481 -20.4622 132.07 -24.4945 137C-30.831 143.301 -36.361 148.985 -41.6606 154.464C-71.8453 185.829 -88.4353 203.087 -161.017 218.702C-206.294 230.892 -249.958 231.029 -284.175 219.044C-314.935 208.224 -335.097 188.363 -337.977 165.969C-338.323 151.724 -320.12 134.124 -283.829 113.647C-253.414 96.458 -216.432 80.7067 -192.008 70.2972C-186.017 67.7633 -180.833 65.5718 -176.57 63.6542C-154.104 53.6556 -135.556 36.2607 -119.311 20.9203C-107.79 10.0999 -96.9608 -0.104208 -86.4768 -6.0623C-86.016 -6.19927 -85.7855 -6.33626 -85.4399 -6.47323Z" fill="url(#paint29_linear_395_3776)"/>
<path d="M-95.4651 183.706C-81.1792 176.995 -66.8934 168.64 -52.4923 158.573C-4.56555 120.975 10.4116 98.3754 -2.60695 83.035C-8.25217 75.8442 -16.7776 60.9147 -24.1509 47.7658C-30.0265 37.3563 -35.6718 27.4946 -39.128 22.7008C-41.4322 18.3178 -46.3862 12.976 -52.377 8.38762C-58.8287 3.3883 -65.3956 0.238062 -70.8104 -0.583744C-74.1514 -1.06313 -76.9165 -0.652236 -79.2207 0.648957C-89.1286 6.53857 -100.88 19.1396 -113.322 32.4254C-128.069 48.2452 -143.392 64.5443 -157.793 72.4885C-165.627 76.7345 -179.337 82.4871 -195.236 89.1985C-234.752 105.772 -288.785 128.371 -296.735 147.41C-302.265 165.695 -293.969 184.254 -275.306 195.896C-259.522 205.621 -237.748 209.73 -212.287 207.676C-180.604 207.333 -154.798 204.046 -131.18 197.266C-119.198 193.705 -107.332 189.253 -95.4651 183.706ZM-77.8382 0.717424C-75.9949 -0.172866 -73.8059 -0.378301 -71.1561 -0.0358815C-60.096 1.60773 -44.8885 13.8663 -40.1649 22.8377C-36.7087 27.6316 -31.0634 37.4933 -25.1878 47.9028C-17.6993 61.1202 -9.28911 76.0496 -3.52867 83.2404C9.25948 98.3754 -5.60237 120.77 -53.2987 158.162C-79.3359 176.378 -105.027 188.979 -131.641 196.581C-155.258 203.293 -180.835 206.58 -212.402 206.922C-237.632 208.908 -259.061 204.936 -274.499 195.28C-293.048 183.775 -301.112 165.421 -295.698 147.341C-287.748 128.577 -233.946 106.046 -194.544 89.541C-178.646 82.898 -164.821 77.0769 -156.986 72.8309C-142.47 64.8868 -127.147 48.5192 -112.285 32.6309C-99.843 19.3451 -88.0917 6.8125 -78.299 0.991376C-78.299 0.922892 -78.0686 0.785908 -77.8382 0.717424Z" fill="url(#paint30_linear_395_3776)"/>
<path d="M1802.94 81.323C1821.72 72.4886 1839.46 63.7227 1856.05 55.0937C1947.41 7.49741 2003.29 -35.5105 2022.07 -72.9026C2041.31 -111.117 2020.8 -142.345 1961.12 -165.904C1780.02 -237.264 1648.56 -272.533 1561.58 -295.818C1522.41 -306.296 1491.53 -314.582 1470.22 -322.526C1434.74 -335.675 1354.67 -337.73 1261.23 -327.799C1160.77 -317.116 1067.11 -295.201 1004.2 -267.671C917.449 -229.731 806.618 -201.104 728.853 -183.709C638.299 -163.507 538.758 -146.728 462.836 -138.921C413.757 -133.853 378.157 -117.691 359.724 -92.2151C327.927 -48.1115 351.775 18.2494 422.167 80.9121C455.462 110.634 490.025 141.315 526.201 169.599C566.178 200.896 604.082 225.687 641.87 245.479C687.032 269.106 733.461 286.364 783.807 298.348C839.914 311.634 899.592 318.072 966.182 317.866C1079.89 317.592 1320.68 261.572 1551.67 181.72C1645.91 149.053 1731.63 114.812 1802.94 81.323ZM399.586 -121.184C416.868 -129.333 438.296 -134.812 463.182 -137.346C539.334 -145.222 638.99 -162 729.774 -182.203C807.655 -199.598 918.832 -228.292 1005.81 -266.369C1068.37 -293.763 1161.69 -315.541 1261.69 -326.156C1354.44 -336.018 1433.81 -334.1 1468.72 -321.157C1490.27 -313.212 1521.26 -304.857 1560.43 -294.379C1647.3 -271.095 1778.63 -235.894 1959.63 -164.534C2018.15 -141.455 2038.31 -110.774 2019.53 -73.3135C2000.87 -36.2638 1945.34 6.53864 1854.21 53.9294C1774.37 95.4991 1669.19 139.192 1550.06 180.419C1319.53 260.134 1079.32 316.017 965.952 316.359C899.707 316.496 840.375 310.196 784.614 296.979C734.613 285.131 688.414 267.941 643.483 244.451C559.035 200.348 490.486 139.26 424.241 80.1588C354.425 17.907 330.576 -47.8376 362.028 -91.4617C370.784 -103.652 383.342 -113.582 399.586 -121.184Z" fill="#E5FD34"/>
<path d="M1763.54 65.9135C1778.41 58.9282 1792.46 52.0113 1805.82 45.1629C1890.16 1.81265 1941.77 -37.3601 1959.28 -71.3966C1977.02 -105.775 1959.17 -133.991 1906.06 -155.221C1746.49 -220.143 1623.45 -255.139 1542 -278.355C1503.75 -289.244 1473.56 -297.804 1452.13 -305.885C1417.34 -318.897 1342 -321.637 1255.36 -313.008C1162.62 -303.762 1074.94 -283.765 1014.92 -258.084C934.617 -223.294 832.888 -196.654 761.689 -180.354C678.048 -161.247 589.568 -145.702 519.06 -137.62C474.589 -132.553 442.216 -117.418 425.626 -93.8593C396.823 -52.9745 418.828 8.04465 483.115 65.4341C543.714 119.605 606.273 175.556 685.421 216.852C727.127 238.561 769.869 254.518 816.298 265.544C868.027 277.871 922.981 283.829 984.272 283.829C1089.46 284.034 1311.93 233.288 1525.18 160.49C1614.92 129.74 1696.38 97.4161 1763.54 65.9135ZM463.184 -121.458C478.622 -128.718 497.516 -133.717 519.406 -136.182C590.144 -144.263 678.739 -159.809 762.496 -178.985C833.81 -195.284 935.77 -222.061 1016.3 -256.919C1076.09 -282.464 1163.31 -302.393 1255.7 -311.638C1341.76 -320.198 1416.42 -317.528 1450.75 -304.721C1472.41 -296.64 1502.6 -288.011 1540.96 -277.122C1622.3 -253.975 1745.23 -218.979 1904.67 -154.125C1956.75 -133.237 1974.38 -105.639 1956.98 -71.9445C1939.58 -38.1819 1888.2 0.78537 1804.21 43.8617C1730.48 81.7333 1633.47 121.591 1523.79 159.052C1310.89 231.713 1089 282.322 984.157 282.185C923.212 282.185 868.603 276.227 817.105 264.037C771.021 253.08 728.394 237.26 686.919 215.619C608.001 174.46 545.443 118.578 484.958 64.5438C421.132 7.63376 399.243 -52.906 427.699 -93.3114C435.879 -104.817 447.861 -114.267 463.184 -121.458Z" fill="#E5FD34"/>
<path d="M1724.03 50.5729C1734.97 45.4366 1745.57 40.3003 1755.59 35.1641C1832.78 -3.87173 1880.13 -39.2094 1896.49 -69.8901C1912.74 -100.434 1897.42 -125.567 1850.87 -144.606C1711.81 -203.502 1601.33 -236.922 1520.68 -261.371C1484.05 -272.465 1455.13 -281.231 1433.82 -289.312C1399.25 -302.393 1330.24 -305.748 1249.25 -298.352C1164.23 -290.545 1082.66 -272.397 1025.52 -248.564C891.645 -191.312 682.886 -150.153 575.167 -136.456C535.189 -131.389 506.157 -117.212 491.41 -95.5716C465.603 -57.9055 485.765 -2.15964 544.06 49.8196C596.25 96.6625 655.467 149.737 729.085 188.02C767.219 207.88 806.39 222.399 848.902 232.534C896.253 243.834 946.369 249.381 1002.36 249.518C1050.86 249.861 1125.06 239.109 1217.11 218.427C1305.47 198.566 1405.48 170.351 1498.68 139.054C1584.05 110.428 1661.12 80.0894 1724.03 50.5729ZM526.894 -121.801C540.373 -128.17 556.848 -132.621 575.743 -135.018C683.693 -148.715 892.912 -190.011 1027.01 -247.4C1083.93 -271.164 1165.15 -289.244 1249.83 -296.982C1330.36 -304.379 1398.68 -301.023 1432.78 -288.148C1454.21 -279.999 1483.24 -271.233 1519.88 -260.138C1600.41 -235.758 1710.78 -202.338 1849.72 -143.51C1895.34 -124.883 1910.32 -100.297 1894.42 -70.3695C1878.18 -39.9627 1831.06 -4.83051 1754.21 34.0683C1686.58 68.3102 1597.76 104.196 1497.53 137.89C1404.32 169.187 1304.44 197.334 1216.19 217.194C1124.48 237.808 1050.52 248.491 1002.36 248.217C946.714 248.08 896.829 242.533 849.709 231.302C807.542 221.235 768.487 206.716 730.583 186.993C657.195 148.847 598.093 95.8408 546.019 49.0663C488.184 -2.5705 468.138 -57.7685 493.599 -95.0237C501.087 -105.981 512.378 -115.021 526.894 -121.801Z" fill="#E5FD34"/>
<path d="M1684.51 35.3694C1691.77 31.9452 1698.68 28.5894 1705.48 25.2337C1775.52 -9.55606 1818.73 -41.0586 1833.82 -68.3837C1848.57 -95.1608 1835.78 -117.213 1795.8 -133.923C1675.98 -187.34 1572.64 -220.692 1497.18 -245.14C1464.69 -255.618 1436.58 -264.727 1415.84 -272.671C1382.09 -285.614 1317.57 -289.723 1243.49 -283.628C1166.19 -277.259 1090.61 -260.96 1036.35 -238.977C983.004 -216.514 910.768 -193.915 827.357 -173.712C760.421 -157.481 688.992 -143.442 631.503 -135.155C596.019 -130.019 570.442 -116.939 557.424 -97.1469C534.727 -62.6995 553.046 -12.2954 605.12 34.3421C659.614 83.445 709.845 126.795 772.749 159.394C807.426 177.336 842.911 190.554 881.505 199.799C924.363 210.072 969.87 215.276 1020.56 215.55C1065.03 216.098 1132.78 206.784 1216.53 188.431C1296.6 170.899 1387.5 145.902 1472.3 117.892C1553.17 91.1837 1625.98 62.8314 1684.51 35.3694ZM590.489 -122.212C602.125 -127.691 615.949 -131.594 631.848 -133.923C689.568 -142.209 760.997 -156.248 828.049 -172.548C911.575 -192.819 983.926 -215.418 1037.38 -237.95C1091.42 -259.864 1166.65 -276.095 1243.61 -282.396C1317.22 -288.422 1381.17 -284.45 1414.58 -271.644C1435.31 -263.631 1463.42 -254.591 1496.03 -244.045C1571.49 -219.664 1674.83 -186.313 1794.42 -132.964C1833.59 -116.596 1846.15 -95.0239 1831.63 -68.863C1816.65 -41.7434 1773.68 -10.4464 1703.98 24.138C1642.34 54.7503 1561.81 86.7322 1471.03 116.66C1386.23 144.601 1295.45 169.598 1215.5 187.13C1132.08 205.346 1064.57 214.729 1020.33 214.181C969.986 213.838 924.709 208.77 882.082 198.498C843.717 189.321 808.348 176.172 773.901 158.298C711.112 125.837 660.996 82.5547 606.618 33.5203C554.889 -12.7748 536.686 -62.768 559.036 -96.8044C566.295 -107.214 576.779 -115.774 590.489 -122.212Z" fill="#E5FD34"/>
<path d="M1644.88 20.3037C1648.45 18.5916 1652.02 16.948 1655.48 15.2359C1718.38 -15.3079 1757.32 -42.9069 1771.26 -66.9447C1784.51 -89.8868 1774.26 -108.857 1740.73 -123.375C1638.77 -172.067 1540.96 -205.83 1469.53 -230.484C1441.19 -240.277 1416.77 -248.701 1397.64 -256.097C1364 -269.109 1305.7 -273.834 1237.39 -268.972C1167.68 -264.041 1098.33 -249.591 1046.83 -229.457C946.83 -188.024 790.491 -150.906 687.495 -133.922C656.504 -128.786 634.268 -116.664 622.978 -98.7897C603.393 -67.5611 619.867 -22.4987 665.836 18.797C712.149 60.7776 758.348 100.909 816.068 130.631C847.174 146.656 879.087 158.504 913.765 166.859C952.244 176.173 993.028 180.898 1038.31 181.378C1078.86 182.199 1140.15 174.187 1215.61 158.299C1287.5 143.164 1369.18 121.249 1445.68 96.5947C1522.3 72.009 1590.85 45.7112 1644.88 20.3037ZM654.2 -122.691C663.877 -127.211 675.283 -130.635 688.186 -132.758C791.298 -149.742 947.866 -186.928 1048.1 -228.43C1099.25 -248.495 1168.38 -262.809 1237.73 -267.739C1305.47 -272.533 1363.42 -267.945 1396.6 -255.07C1415.73 -247.605 1440.27 -239.182 1468.61 -229.388C1539.92 -204.734 1637.62 -171.04 1739.58 -122.348C1772.3 -108.172 1782.32 -89.6814 1769.42 -67.2872C1755.59 -43.5233 1716.88 -15.9928 1654.33 14.3456C1598.8 41.2597 1526.44 69.3381 1445.11 95.5674C1368.72 120.153 1287.16 141.999 1215.38 157.203C1140.15 173.091 1079.09 181.035 1038.77 180.213C993.719 179.734 953.166 175.009 914.917 165.763C880.469 157.477 848.672 145.698 817.796 129.741C760.307 100.087 714.108 60.0243 667.909 18.1807C622.172 -22.8412 605.812 -67.4241 625.167 -98.3103C631.388 -108.377 641.181 -116.596 654.2 -122.691Z" fill="#E5FD34"/>
<path d="M1605.13 5.51077C1605.25 5.44229 1605.36 5.37381 1605.48 5.30533C1661.24 -20.924 1696.03 -44.7563 1708.71 -65.4385C1720.46 -84.5454 1712.74 -100.502 1685.67 -112.761C1600.07 -157.892 1505.13 -192.887 1435.89 -218.431C1414.23 -226.444 1395.45 -233.361 1379.67 -239.593C1346.72 -252.468 1292.8 -257.878 1231.63 -254.317C1169.65 -250.756 1106.17 -238.223 1057.66 -219.938C1014.11 -202.269 958.699 -184.532 893.03 -167.068C843.605 -153.988 789.227 -141.456 743.835 -132.69C717.337 -127.553 698.327 -116.39 688.995 -100.365C672.521 -72.4238 687.152 -32.7032 727.129 3.25082C765.609 38.4515 807.545 75.0219 859.965 101.868C887.5 115.975 915.841 126.522 946.602 133.987C980.703 142.273 1016.65 146.588 1056.74 147.204C1129.09 149.327 1274.95 120.358 1419.76 75.2958C1491.54 52.9016 1555.59 28.7953 1605.13 5.51077ZM717.913 -123.307C725.632 -126.937 734.503 -129.745 744.411 -131.662C789.803 -140.428 844.296 -152.961 893.721 -166.11C959.505 -183.573 1015.04 -201.379 1058.7 -219.048C1106.97 -237.196 1170.11 -249.66 1231.86 -253.221C1292.57 -256.714 1346.15 -251.441 1378.63 -238.634C1394.42 -232.402 1413.2 -225.485 1434.86 -217.473C1504.1 -191.928 1598.91 -156.933 1684.4 -111.871C1710.78 -99.9543 1718.38 -84.4085 1706.86 -65.7809C1694.31 -45.3042 1659.74 -21.6773 1604.21 4.48352C1604.1 4.552 1603.98 4.62048 1603.87 4.68896C1554.44 27.905 1490.39 52.0113 1418.73 74.337C1274.37 119.331 1128.86 148.231 1056.74 146.108C1016.99 145.492 981.164 141.177 947.293 132.959C916.763 125.563 888.537 115.085 861.117 101.046C808.812 74.2686 766.991 37.7667 728.512 2.63446C688.88 -32.9771 674.364 -72.3553 690.608 -99.9543C696.369 -109.611 705.585 -117.486 717.913 -123.307Z" fill="#E5FD34"/>
<path d="M1565.5 -9.07651C1608.47 -29.2792 1635.78 -47.7014 1646.38 -63.8636C1656.51 -79.204 1651.21 -92.0789 1630.59 -102.078C1560.55 -145.017 1463.42 -183.025 1392.57 -210.761C1381.4 -215.144 1370.91 -219.253 1361.58 -222.952C1328.86 -235.963 1280.59 -241.853 1225.75 -239.593C1170.45 -237.333 1114.57 -226.924 1068.37 -210.351C1037.38 -198.16 949.363 -166.11 800.053 -131.457C777.933 -126.321 762.265 -116.048 754.776 -101.872C741.527 -77.1494 754.315 -42.839 788.071 -12.3637C819.178 16.3995 856.39 49.0663 903.625 73.1041C953.511 98.5116 1009.5 111.524 1074.83 113.03C1107.43 114.331 1155.82 109.127 1214.92 97.9637C1271.14 87.3487 1332.89 72.1453 1393.61 53.9971C1456.17 35.301 1512.27 15.0298 1555.82 -4.62506C1559.05 -6.06322 1562.27 -7.56987 1565.5 -9.07651ZM781.735 -124.061C787.38 -126.732 793.717 -128.855 800.744 -130.498C824.592 -136.046 872.75 -147.619 926.667 -162.823C983.235 -178.779 1031.28 -194.462 1069.41 -209.529C1115.38 -226.033 1170.91 -236.374 1225.98 -238.634C1280.47 -240.894 1328.28 -235.005 1360.77 -222.13C1370.11 -218.363 1380.7 -214.254 1391.76 -209.94C1462.62 -182.204 1559.74 -144.264 1629.56 -101.393L1629.67 -101.324C1649.72 -91.5995 1654.9 -79.1355 1644.99 -64.2745C1633.82 -47.359 1602.6 -27.0193 1554.9 -5.44688C1511.47 14.208 1455.47 34.4107 1393.03 53.1068C1332.55 71.1865 1270.8 86.39 1214.69 97.005C1155.82 108.168 1107.54 113.373 1075.29 112.071C1010.31 110.565 954.663 97.5528 905.123 72.3508C858.118 48.4499 821.021 15.7831 789.915 -12.9116C756.389 -43.1814 743.716 -77.1494 756.734 -101.598C761.343 -110.912 769.984 -118.514 781.735 -124.061Z" fill="#E5FD34"/>
<path d="M1524.83 -22.773C1555.36 -37.1546 1575.75 -50.6459 1584.28 -62.2197C1592.8 -73.8619 1589.92 -83.6551 1575.52 -91.4623C1522.06 -134.402 1396.83 -184.874 1343.38 -206.378C1276.56 -233.224 1167.8 -230.964 1078.97 -200.831C1010.88 -175.013 923.786 -149.811 871.712 -134.744C866.182 -133.169 860.998 -131.662 856.159 -130.224C838.417 -125.019 826.09 -115.706 820.329 -103.31C810.421 -81.8746 821.481 -52.9744 849.016 -27.9778C876.436 -2.29631 907.312 24.2069 947.174 44.2727C989.686 65.7081 1037.38 77.0079 1092.91 78.7885C1149.13 81.8018 1256.97 63.7221 1367.45 32.6989C1420.57 17.7694 1468.49 1.40179 1506.05 -14.5549C1512.73 -17.1573 1518.95 -19.9652 1524.83 -22.773ZM845.56 -125.019C849.016 -126.663 852.933 -128.101 856.965 -129.334C861.804 -130.704 866.989 -132.21 872.403 -133.854C924.478 -148.92 1011.69 -174.191 1079.78 -200.009C1168.03 -229.937 1276.09 -232.197 1342.45 -205.556C1395.91 -184.052 1520.91 -133.648 1574.25 -90.8459V-90.7774C1588.19 -83.3127 1590.96 -73.7934 1582.66 -62.5621C1572.64 -48.9338 1545.68 -32.4977 1505.01 -15.1713C1467.57 0.785416 1419.76 17.0846 1366.65 32.0141C1256.39 62.9688 1148.9 81.0485 1092.91 78.0352C969.64 73.9947 905.353 23.2481 850.168 -28.3887C822.864 -53.1798 811.919 -81.8061 821.712 -103.036C826.205 -112.281 834.269 -119.746 845.56 -125.019Z" fill="#E5FD34"/>
<path d="M1484.28 -35.7166C1502.94 -44.4825 1516.19 -52.8375 1522.64 -60.3023C1529.67 -68.3149 1528.86 -75.1632 1520.45 -80.7104C1511.24 -94.9551 1484.28 -113.857 1440.27 -136.936C1408.12 -153.783 1366.3 -172.958 1325.29 -189.668C1259.5 -216.377 1171.49 -216.925 1089.69 -191.175C1062.15 -181.313 1033.12 -171.315 1005.01 -161.658C968.718 -149.194 934.386 -137.415 912.381 -128.855C893.948 -121.664 883.81 -108.515 883.925 -91.8733C884.04 -76.122 893.487 -58.4532 909.962 -43.3183C946.714 -8.32303 972.405 6.67491 990.723 15.7833C1025.86 33.2466 1065.15 42.7659 1110.89 44.9574C1159.27 48.5186 1247.64 35.849 1341.3 11.9482C1401.44 -3.46068 1451.33 -20.2392 1484.28 -35.7166ZM909.386 -126.595C910.653 -127.142 911.921 -127.69 913.188 -128.238C935.078 -136.73 969.41 -148.578 1005.7 -161.042C1033.81 -170.698 1062.84 -180.697 1090.38 -190.559C1171.6 -216.171 1259.16 -215.624 1324.48 -189.052C1365.38 -172.41 1407.2 -153.166 1439.35 -136.388C1483.36 -113.309 1510.2 -94.4757 1519.19 -80.368V-80.2995L1519.3 -80.2311C1527.36 -74.9578 1528.06 -68.3833 1521.37 -60.6447C1503.63 -40.2365 1434.51 -12.7745 1340.96 11.0579C1247.52 34.8903 1159.39 47.5598 1111.23 43.9986C1065.72 41.8756 1026.67 32.3564 991.76 15.03C956.967 -2.22797 930.469 -25.5125 911.229 -43.8661C894.87 -58.8641 885.538 -76.396 885.423 -91.9418C885.307 -107.077 893.833 -119.267 909.386 -126.595Z" fill="#E5FD34"/>
<path d="M1443.84 -47.2212C1451.56 -50.8509 1457.55 -54.3435 1461.47 -57.5623C1467.23 -62.2877 1468.61 -66.4652 1465.61 -69.9579C1471.03 -82.9013 1441.19 -104.268 1415.15 -119.883C1385.77 -137.483 1345.45 -157.412 1307.32 -173.095C1274.48 -186.586 1241.99 -193.914 1208.01 -195.42C1173.33 -196.995 1138.19 -192.475 1100.52 -181.655C1045.68 -163.507 993.949 -142.345 968.719 -127.621C956.506 -120.43 950.285 -109.131 951.322 -95.7762C952.244 -83.3122 959.502 -69.8894 971.253 -58.9319C1001.09 -29.5524 1046.02 4.96347 1129.32 10.7161C1169.64 14.6882 1239.11 7.42886 1314.92 -8.73332C1370.34 -20.6495 1417.34 -34.7572 1443.84 -47.2212ZM992.567 -138.99C1020.33 -152.001 1059.73 -167.41 1100.98 -181.039C1138.42 -191.791 1173.44 -196.311 1207.89 -194.735C1241.65 -193.229 1273.91 -185.969 1306.51 -172.478C1377.82 -143.099 1473.91 -91.8727 1464.23 -69.9579L1464.12 -69.8209L1464.23 -69.6839C1467.11 -66.3967 1465.84 -62.4931 1460.31 -57.9047C1443.15 -43.7285 1385.89 -24.69 1314.34 -9.41815C1238.65 6.74403 1169.41 14.0033 1129.32 10.0313C1046.48 4.27863 1001.78 -30.0318 972.06 -59.2744C960.424 -70.0948 953.281 -83.3807 952.359 -95.7762C951.437 -108.925 957.428 -120.02 969.41 -127.073C975.746 -130.703 983.465 -134.744 992.567 -138.99Z" fill="#E5FD34"/>
</g>
</g>
</g>
<defs>
<linearGradient id="paint0_linear_395_3776" x1="1144.57" y1="725.31" x2="1144.57" y2="41.4412" gradientUnits="userSpaceOnUse">
<stop stop-color="#E9CBA3"/>
<stop offset="0.1507" stop-color="#EEDEBC"/>
<stop offset="0.3859" stop-color="#C9A885"/>
<stop offset="0.6326" stop-color="#9A7A5F"/>
<stop offset="0.8567" stop-color="#C9A885"/>
<stop offset="0.9987" stop-color="#C9A885"/>
</linearGradient>
<linearGradient id="paint1_linear_395_3776" x1="1152.34" y1="697.326" x2="1152.34" y2="69.9929" gradientUnits="userSpaceOnUse">
<stop stop-color="#E9CBA3"/>
<stop offset="0.1507" stop-color="#EEDEBC"/>
<stop offset="0.3859" stop-color="#C9A885"/>
<stop offset="0.6326" stop-color="#9A7A5F"/>
<stop offset="0.8567" stop-color="#C9A885"/>
<stop offset="0.9987" stop-color="#C9A885"/>
</linearGradient>
<linearGradient id="paint2_linear_395_3776" x1="1160.06" y1="669.699" x2="1160.06" y2="98.4922" gradientUnits="userSpaceOnUse">
<stop stop-color="#E9CBA3"/>
<stop offset="0.1507" stop-color="#EEDEBC"/>
<stop offset="0.3859" stop-color="#C9A885"/>
<stop offset="0.6326" stop-color="#9A7A5F"/>
<stop offset="0.8567" stop-color="#C9A885"/>
<stop offset="0.9987" stop-color="#C9A885"/>
</linearGradient>
<linearGradient id="paint3_linear_395_3776" x1="1167.7" y1="642.572" x2="1167.7" y2="126.919" gradientUnits="userSpaceOnUse">
<stop stop-color="#E9CBA3"/>
<stop offset="0.1507" stop-color="#EEDEBC"/>
<stop offset="0.3859" stop-color="#C9A885"/>
<stop offset="0.6326" stop-color="#9A7A5F"/>
<stop offset="0.8567" stop-color="#C9A885"/>
<stop offset="0.9987" stop-color="#C9A885"/>
</linearGradient>
<linearGradient id="paint4_linear_395_3776" x1="1175.25" y1="616.564" x2="1175.25" y2="155.244" gradientUnits="userSpaceOnUse">
<stop stop-color="#E9CBA3"/>
<stop offset="0.1507" stop-color="#EEDEBC"/>
<stop offset="0.3859" stop-color="#C9A885"/>
<stop offset="0.6326" stop-color="#9A7A5F"/>
<stop offset="0.8567" stop-color="#C9A885"/>
<stop offset="0.9987" stop-color="#C9A885"/>
</linearGradient>
<linearGradient id="paint5_linear_395_3776" x1="1182.52" y1="592.416" x2="1182.52" y2="183.417" gradientUnits="userSpaceOnUse">
<stop stop-color="#E9CBA3"/>
<stop offset="0.1507" stop-color="#EEDEBC"/>
<stop offset="0.3859" stop-color="#C9A885"/>
<stop offset="0.6326" stop-color="#9A7A5F"/>
<stop offset="0.8567" stop-color="#C9A885"/>
<stop offset="0.9987" stop-color="#C9A885"/>
</linearGradient>
<linearGradient id="paint6_linear_395_3776" x1="1187.75" y1="570.706" x2="1187.75" y2="211.355" gradientUnits="userSpaceOnUse">
<stop stop-color="#E9CBA3"/>
<stop offset="0.1507" stop-color="#EEDEBC"/>
<stop offset="0.3859" stop-color="#C9A885"/>
<stop offset="0.6326" stop-color="#9A7A5F"/>
<stop offset="0.8567" stop-color="#C9A885"/>
<stop offset="0.9987" stop-color="#C9A885"/>
</linearGradient>
<linearGradient id="paint7_linear_395_3776" x1="1176.91" y1="551.138" x2="1176.91" y2="238.888" gradientUnits="userSpaceOnUse">
<stop stop-color="#E9CBA3"/>
<stop offset="0.1507" stop-color="#EEDEBC"/>
<stop offset="0.3859" stop-color="#C9A885"/>
<stop offset="0.6326" stop-color="#9A7A5F"/>
<stop offset="0.8567" stop-color="#C9A885"/>
<stop offset="0.9987" stop-color="#C9A885"/>
</linearGradient>
<linearGradient id="paint8_linear_395_3776" x1="1166.38" y1="537.893" x2="1166.38" y2="265.643" gradientUnits="userSpaceOnUse">
<stop stop-color="#E9CBA3"/>
<stop offset="0.1507" stop-color="#EEDEBC"/>
<stop offset="0.3859" stop-color="#C9A885"/>
<stop offset="0.6326" stop-color="#9A7A5F"/>
<stop offset="0.8567" stop-color="#C9A885"/>
<stop offset="0.9987" stop-color="#C9A885"/>
</linearGradient>
<linearGradient id="paint9_linear_395_3776" x1="1156.23" y1="528.569" x2="1156.23" y2="290.831" gradientUnits="userSpaceOnUse">
<stop stop-color="#E9CBA3"/>
<stop offset="0.1507" stop-color="#EEDEBC"/>
<stop offset="0.3859" stop-color="#C9A885"/>
<stop offset="0.6326" stop-color="#9A7A5F"/>
<stop offset="0.8567" stop-color="#C9A885"/>
<stop offset="0.9987" stop-color="#C9A885"/>
</linearGradient>
<linearGradient id="paint10_linear_395_3776" x1="1147.34" y1="520.323" x2="1147.34" y2="311.417" gradientUnits="userSpaceOnUse">
<stop stop-color="#E9CBA3"/>
<stop offset="0.1507" stop-color="#EEDEBC"/>
<stop offset="0.3859" stop-color="#C9A885"/>
<stop offset="0.6326" stop-color="#9A7A5F"/>
<stop offset="0.8567" stop-color="#C9A885"/>
<stop offset="0.9987" stop-color="#C9A885"/>
</linearGradient>
<linearGradient id="paint11_linear_395_3776" x1="1149.72" y1="512.565" x2="1149.72" y2="312.4" gradientUnits="userSpaceOnUse">
<stop stop-color="#E9CBA3"/>
<stop offset="0.1507" stop-color="#EEDEBC"/>
<stop offset="0.3859" stop-color="#C9A885"/>
<stop offset="0.6326" stop-color="#9A7A5F"/>
<stop offset="0.8567" stop-color="#C9A885"/>
<stop offset="0.9987" stop-color="#C9A885"/>
</linearGradient>
<linearGradient id="paint12_linear_395_3776" x1="-188.436" y1="853.533" x2="-188.436" y2="201.621" gradientUnits="userSpaceOnUse">
<stop stop-color="#E9CBA3"/>
<stop offset="0.1507" stop-color="#EEDEBC"/>
<stop offset="0.3859" stop-color="#C9A885"/>
<stop offset="0.6326" stop-color="#9A7A5F"/>
<stop offset="0.8567" stop-color="#C9A885"/>
<stop offset="0.9987" stop-color="#C9A885"/>
</linearGradient>
<linearGradient id="paint13_linear_395_3776" x1="-190.531" y1="837.543" x2="-190.531" y2="235.755" gradientUnits="userSpaceOnUse">
<stop stop-color="#E9CBA3"/>
<stop offset="0.1507" stop-color="#EEDEBC"/>
<stop offset="0.3859" stop-color="#C9A885"/>
<stop offset="0.6326" stop-color="#9A7A5F"/>
<stop offset="0.8567" stop-color="#C9A885"/>
<stop offset="0.9987" stop-color="#C9A885"/>
</linearGradient>
<linearGradient id="paint14_linear_395_3776" x1="-192.647" y1="821.746" x2="-192.647" y2="269.88" gradientUnits="userSpaceOnUse">
<stop stop-color="#E9CBA3"/>
<stop offset="0.1507" stop-color="#EEDEBC"/>
<stop offset="0.3859" stop-color="#C9A885"/>
<stop offset="0.6326" stop-color="#9A7A5F"/>
<stop offset="0.8567" stop-color="#C9A885"/>
<stop offset="0.9987" stop-color="#C9A885"/>
</linearGradient>
<linearGradient id="paint15_linear_395_3776" x1="-194.792" y1="805.946" x2="-194.792" y2="303.992" gradientUnits="userSpaceOnUse">
<stop stop-color="#E9CBA3"/>
<stop offset="0.1507" stop-color="#EEDEBC"/>
<stop offset="0.3859" stop-color="#C9A885"/>
<stop offset="0.6326" stop-color="#9A7A5F"/>
<stop offset="0.8567" stop-color="#C9A885"/>
<stop offset="0.9987" stop-color="#C9A885"/>
</linearGradient>
<linearGradient id="paint16_linear_395_3776" x1="-196.975" y1="790.344" x2="-196.975" y2="338.093" gradientUnits="userSpaceOnUse">
<stop stop-color="#E9CBA3"/>
<stop offset="0.1507" stop-color="#EEDEBC"/>
<stop offset="0.3859" stop-color="#C9A885"/>
<stop offset="0.6326" stop-color="#9A7A5F"/>
<stop offset="0.8567" stop-color="#C9A885"/>
<stop offset="0.9987" stop-color="#C9A885"/>
</linearGradient>
<linearGradient id="paint17_linear_395_3776" x1="-199.214" y1="774.829" x2="-199.214" y2="372.174" gradientUnits="userSpaceOnUse">
<stop stop-color="#E9CBA3"/>
<stop offset="0.1507" stop-color="#EEDEBC"/>
<stop offset="0.3859" stop-color="#C9A885"/>
<stop offset="0.6326" stop-color="#9A7A5F"/>
<stop offset="0.8567" stop-color="#C9A885"/>
<stop offset="0.9987" stop-color="#C9A885"/>
</linearGradient>
<linearGradient id="paint18_linear_395_3776" x1="-201.541" y1="759.536" x2="-201.541" y2="406.216" gradientUnits="userSpaceOnUse">
<stop stop-color="#E9CBA3"/>
<stop offset="0.1507" stop-color="#EEDEBC"/>
<stop offset="0.3859" stop-color="#C9A885"/>
<stop offset="0.6326" stop-color="#9A7A5F"/>
<stop offset="0.8567" stop-color="#C9A885"/>
<stop offset="0.9987" stop-color="#C9A885"/>
</linearGradient>
<linearGradient id="paint19_linear_395_3776" x1="-204.019" y1="744.494" x2="-204.019" y2="440.212" gradientUnits="userSpaceOnUse">
<stop stop-color="#E9CBA3"/>
<stop offset="0.1507" stop-color="#EEDEBC"/>
<stop offset="0.3859" stop-color="#C9A885"/>
<stop offset="0.6326" stop-color="#9A7A5F"/>
<stop offset="0.8567" stop-color="#C9A885"/>
<stop offset="0.9987" stop-color="#C9A885"/>
</linearGradient>
<linearGradient id="paint20_linear_395_3776" x1="-206.751" y1="729.658" x2="-206.751" y2="474.089" gradientUnits="userSpaceOnUse">
<stop stop-color="#E9CBA3"/>
<stop offset="0.1507" stop-color="#EEDEBC"/>
<stop offset="0.3859" stop-color="#C9A885"/>
<stop offset="0.6326" stop-color="#9A7A5F"/>
<stop offset="0.8567" stop-color="#C9A885"/>
<stop offset="0.9987" stop-color="#C9A885"/>
</linearGradient>
<linearGradient id="paint21_linear_395_3776" x1="-153.36" y1="-177.814" x2="-153.36" y2="449.518" gradientUnits="userSpaceOnUse">
<stop stop-color="#E9CBA3"/>
<stop offset="0.1507" stop-color="#EEDEBC"/>
<stop offset="0.3859" stop-color="#C9A885"/>
<stop offset="0.6326" stop-color="#9A7A5F"/>
<stop offset="0.8567" stop-color="#C9A885"/>
<stop offset="0.9987" stop-color="#C9A885"/>
</linearGradient>
<linearGradient id="paint22_linear_395_3776" x1="-161.07" y1="-150.187" x2="-161.07" y2="421.02" gradientUnits="userSpaceOnUse">
<stop stop-color="#E9CBA3"/>
<stop offset="0.1507" stop-color="#EEDEBC"/>
<stop offset="0.3859" stop-color="#C9A885"/>
<stop offset="0.6326" stop-color="#9A7A5F"/>
<stop offset="0.8567" stop-color="#C9A885"/>
<stop offset="0.9987" stop-color="#C9A885"/>
</linearGradient>
<linearGradient id="paint23_linear_395_3776" x1="-168.717" y1="-123.061" x2="-168.717" y2="392.592" gradientUnits="userSpaceOnUse">
<stop stop-color="#E9CBA3"/>
<stop offset="0.1507" stop-color="#EEDEBC"/>
<stop offset="0.3859" stop-color="#C9A885"/>
<stop offset="0.6326" stop-color="#9A7A5F"/>
<stop offset="0.8567" stop-color="#C9A885"/>
<stop offset="0.9987" stop-color="#C9A885"/>
</linearGradient>
<linearGradient id="paint24_linear_395_3776" x1="-176.269" y1="-97.0522" x2="-176.269" y2="364.268" gradientUnits="userSpaceOnUse">
<stop stop-color="#E9CBA3"/>
<stop offset="0.1507" stop-color="#EEDEBC"/>
<stop offset="0.3859" stop-color="#C9A885"/>
<stop offset="0.6326" stop-color="#9A7A5F"/>
<stop offset="0.8567" stop-color="#C9A885"/>
<stop offset="0.9987" stop-color="#C9A885"/>
</linearGradient>
<linearGradient id="paint25_linear_395_3776" x1="-183.532" y1="-72.9049" x2="-183.532" y2="336.095" gradientUnits="userSpaceOnUse">
<stop stop-color="#E9CBA3"/>
<stop offset="0.1507" stop-color="#EEDEBC"/>
<stop offset="0.3859" stop-color="#C9A885"/>
<stop offset="0.6326" stop-color="#9A7A5F"/>
<stop offset="0.8567" stop-color="#C9A885"/>
<stop offset="0.9987" stop-color="#C9A885"/>
</linearGradient>
<linearGradient id="paint26_linear_395_3776" x1="-188.763" y1="-51.1937" x2="-188.763" y2="308.158" gradientUnits="userSpaceOnUse">
<stop stop-color="#E9CBA3"/>
<stop offset="0.1507" stop-color="#EEDEBC"/>
<stop offset="0.3859" stop-color="#C9A885"/>
<stop offset="0.6326" stop-color="#9A7A5F"/>
<stop offset="0.8567" stop-color="#C9A885"/>
<stop offset="0.9987" stop-color="#C9A885"/>
</linearGradient>
<linearGradient id="paint27_linear_395_3776" x1="-177.931" y1="-31.6271" x2="-177.931" y2="280.623" gradientUnits="userSpaceOnUse">
<stop stop-color="#E9CBA3"/>
<stop offset="0.1507" stop-color="#EEDEBC"/>
<stop offset="0.3859" stop-color="#C9A885"/>
<stop offset="0.6326" stop-color="#9A7A5F"/>
<stop offset="0.8567" stop-color="#C9A885"/>
<stop offset="0.9987" stop-color="#C9A885"/>
</linearGradient>
<linearGradient id="paint28_linear_395_3776" x1="-167.403" y1="-18.3814" x2="-167.403" y2="253.868" gradientUnits="userSpaceOnUse">
<stop stop-color="#E9CBA3"/>
<stop offset="0.1507" stop-color="#EEDEBC"/>
<stop offset="0.3859" stop-color="#C9A885"/>
<stop offset="0.6326" stop-color="#9A7A5F"/>
<stop offset="0.8567" stop-color="#C9A885"/>
<stop offset="0.9987" stop-color="#C9A885"/>
</linearGradient>
<linearGradient id="paint29_linear_395_3776" x1="-157.246" y1="-9.05711" x2="-157.246" y2="228.681" gradientUnits="userSpaceOnUse">
<stop stop-color="#E9CBA3"/>
<stop offset="0.1507" stop-color="#EEDEBC"/>
<stop offset="0.3859" stop-color="#C9A885"/>
<stop offset="0.6326" stop-color="#9A7A5F"/>
<stop offset="0.8567" stop-color="#C9A885"/>
<stop offset="0.9987" stop-color="#C9A885"/>
</linearGradient>
<linearGradient id="paint30_linear_395_3776" x1="-148.36" y1="-0.812139" x2="-148.36" y2="208.095" gradientUnits="userSpaceOnUse">
<stop stop-color="#E9CBA3"/>
<stop offset="0.1507" stop-color="#EEDEBC"/>
<stop offset="0.3859" stop-color="#C9A885"/>
<stop offset="0.6326" stop-color="#9A7A5F"/>
<stop offset="0.8567" stop-color="#C9A885"/>
<stop offset="0.9987" stop-color="#C9A885"/>
</linearGradient>
</defs>
</svg>
