<svg width="48" height="48" viewBox="0 0 48 48" fill="none" xmlns="http://www.w3.org/2000/svg">
<path d="M43.998 13.5C44.8264 13.5 45.498 12.8284 45.498 12C45.498 11.1716 44.8264 10.5 43.998 10.5V13.5ZM27.998 10.5C27.1696 10.5 26.498 11.1716 26.498 12C26.498 12.8284 27.1696 13.5 27.998 13.5V10.5ZM37.498 4C37.498 3.17158 36.8264 2.5 35.998 2.5C35.1696 2.5 34.498 3.17158 34.498 4H37.498ZM34.498 20C34.498 20.8284 35.1696 21.5 35.998 21.5C36.8264 21.5 37.498 20.8284 37.498 20H34.498ZM43.998 10.5H35.998V13.5H43.998V10.5ZM35.998 10.5H27.998V13.5H35.998V10.5ZM34.498 4V12H37.498V4H34.498ZM34.498 12V20H37.498V12H34.498Z" fill="#222222"/>
<path d="M22.998 6C14.0414 6 9.56303 6 6.78053 8.78248C3.99805 11.565 3.99805 16.0433 3.99805 25C3.99805 33.9566 3.99805 38.435 6.78053 41.2176C9.56303 44 14.0414 44 22.998 44C31.9546 44 36.433 44 39.2156 41.2176C41.998 38.435 41.998 33.9566 41.998 25V24" stroke="#222222" stroke-width="2.5" stroke-linecap="round"/>
<path d="M3.99805 28.2708C5.23609 28.091 6.48773 28.0022 7.74147 28.0054C13.0453 27.8932 18.2193 29.5458 22.3402 32.6684C26.162 35.5642 28.8474 39.5498 29.998 44" stroke="#222222" stroke-width="2.5" stroke-linejoin="round"/>
<path d="M41.998 33.7924C39.7778 32.6017 37.4813 31.9975 35.172 32.0001C31.6743 31.9855 28.212 33.3465 24.998 36" stroke="#222222" stroke-width="2.5" stroke-linejoin="round"/>
</svg>
