<svg width="50" height="51" viewBox="0 0 50 51" fill="none" xmlns="http://www.w3.org/2000/svg">
<path d="M14.8442 36.0973C14.637 35.8901 14.5206 35.6091 14.5206 35.3161C14.5206 35.0231 14.637 34.742 14.8442 34.5348L31.7081 17.671L18.7504 17.671C18.4608 17.6659 18.1847 17.5473 17.9816 17.3407C17.7786 17.1341 17.6648 16.856 17.6648 16.5663C17.6648 16.2766 17.7786 15.9985 17.9816 15.7919C18.1847 15.5853 18.4608 15.4667 18.7504 15.4616L34.3752 15.4616C34.6682 15.4617 34.9492 15.5781 35.1563 15.7852C35.3635 15.9924 35.4799 16.2733 35.4799 16.5663L35.4799 32.1911C35.4749 32.4808 35.3563 32.7569 35.1497 32.9599C34.943 33.163 34.6649 33.2768 34.3752 33.2768C34.0855 33.2768 33.8074 33.163 33.6008 32.9599C33.3942 32.7569 33.2756 32.4808 33.2706 32.1911L33.2706 19.2335L16.4067 36.0973C16.1995 36.3045 15.9185 36.4209 15.6255 36.4209C15.3324 36.4209 15.0514 36.3045 14.8442 36.0973Z" fill="#00272C"/>
</svg>
