<svg width="16" height="16" viewBox="0 0 16 16" fill="none" xmlns="http://www.w3.org/2000/svg">
<path d="M13.0685 5.15784L8.38346 9.76884C8.28124 9.86997 8.14325 9.92669 7.99946 9.92669C7.85567 9.92669 7.71768 9.86997 7.61546 9.76884L2.93046 5.15884C2.8276 5.05777 2.68917 5.00113 2.54496 5.00113C2.40075 5.00113 2.26232 5.05777 2.15946 5.15884C2.10881 5.20822 2.06856 5.26723 2.04108 5.33241C2.01359 5.39759 1.99943 5.46761 1.99943 5.53834C1.99943 5.60908 2.01359 5.6791 2.04108 5.74427C2.06856 5.80945 2.10881 5.86846 2.15946 5.91784L6.84346 10.5278C7.15198 10.8308 7.56708 11.0005 7.99946 11.0005C8.43184 11.0005 8.84694 10.8308 9.15546 10.5278L13.8395 5.91784C13.8903 5.86845 13.9306 5.80937 13.9582 5.7441C13.9858 5.67883 14 5.6087 14 5.53784C14 5.46699 13.9858 5.39685 13.9582 5.33158C13.9306 5.26631 13.8903 5.20724 13.8395 5.15784C13.7366 5.05677 13.5982 5.00013 13.454 5.00013C13.3098 5.00013 13.1713 5.05677 13.0685 5.15784Z" fill="#00272C"/>
</svg>
