<svg width="32" height="32" viewBox="0 0 32 32" fill="none" xmlns="http://www.w3.org/2000/svg">
<g clip-path="url(#clip0_458_15534)">
<path d="M16 32C24.8366 32 32 24.8366 32 16C32 7.16344 24.8366 0 16 0C7.16344 0 0 7.16344 0 16C0 24.8366 7.16344 32 16 32Z" fill="#026423"/>
<path d="M13.2141 23.0878C12.8799 23.0878 12.561 22.9418 12.3421 22.6883L8.92311 18.7315C8.50822 18.2513 8.55816 17.5214 9.04219 17.1065C9.52239 16.6916 10.2523 16.7416 10.6672 17.2256L13.1565 20.1068L21.2852 9.37351C21.6693 8.86642 22.3915 8.76654 22.8986 9.1507C23.4057 9.53485 23.5056 10.2571 23.1214 10.7641L14.1322 22.6345C13.9209 22.9111 13.5983 23.0801 13.2525 23.0916C13.2372 23.0878 13.2256 23.0878 13.2141 23.0878Z" fill="white"/>
</g>
<defs>
<clipPath id="clip0_458_15534">
<rect width="32" height="32" fill="white"/>
</clipPath>
</defs>
</svg>
