<svg width="24" height="24" viewBox="0 0 24 24" fill="none" xmlns="http://www.w3.org/2000/svg">
<path d="M12 24C18.6274 24 24 18.6274 24 12C24 5.37258 18.6274 0 12 0C5.37258 0 0 5.37258 0 12C0 18.6274 5.37258 24 12 24Z" fill="#E02828"/>
<path d="M13.2222 11.9996L17.0023 8.21955C17.3394 7.88245 17.3394 7.33503 17.0023 6.99794C16.6652 6.66084 16.1178 6.66084 15.7807 6.99794L12.0006 10.778L8.22052 6.99794C7.88343 6.66084 7.33601 6.66084 6.99891 6.99794C6.66182 7.33503 6.66182 7.88245 6.99891 8.21955L10.779 11.9996L6.99891 15.7797C6.66182 16.1168 6.66182 16.6642 6.99891 17.0013C7.1689 17.1713 7.38787 17.2548 7.60972 17.2548C7.83157 17.2548 8.05342 17.1713 8.22052 17.0013L12.0006 13.2212L15.7807 17.0013C15.9507 17.1713 16.1696 17.2548 16.3915 17.2548C16.6133 17.2548 16.8352 17.1713 17.0023 17.0013C17.3394 16.6642 17.3394 16.1168 17.0023 15.7797L13.2222 11.9996Z" fill="white"/>
</svg>
