<svg width="33" height="32" viewBox="0 0 33 32" fill="none" xmlns="http://www.w3.org/2000/svg">
<path d="M4.5 13.3332H28.5M9.83333 19.9998H9.84667M15.1667 19.9998H17.8333M4.5 10.6665C4.5 9.60564 4.92143 8.58822 5.67157 7.83808C6.42172 7.08793 7.43913 6.6665 8.5 6.6665H24.5C25.5609 6.6665 26.5783 7.08793 27.3284 7.83808C28.0786 8.58822 28.5 9.60564 28.5 10.6665V21.3332C28.5 22.394 28.0786 23.4115 27.3284 24.1616C26.5783 24.9117 25.5609 25.3332 24.5 25.3332H8.5C7.43913 25.3332 6.42172 24.9117 5.67157 24.1616C4.92143 23.4115 4.5 22.394 4.5 21.3332V10.6665Z" stroke="#E5FD34" stroke-width="1.5" stroke-linecap="round" stroke-linejoin="round"/>
</svg>
