<svg width="25" height="24" viewBox="0 0 25 24" fill="none" xmlns="http://www.w3.org/2000/svg">
<path d="M22.044 11.045C22.348 11.4713 22.5 11.6845 22.5 12C22.5 12.3155 22.348 12.5287 22.044 12.955C20.6779 14.8706 17.1892 19 12.5 19C7.81078 19 4.3221 14.8706 2.95604 12.955C2.65201 12.5287 2.5 12.3155 2.5 12C2.5 11.6845 2.65201 11.4713 2.95604 11.045C4.3221 9.12944 7.81078 5 12.5 5C17.1892 5 20.6779 9.12944 22.044 11.045Z" stroke="#222222" stroke-width="1.5"/>
<path d="M15.5 12C15.5 10.3431 14.1569 9 12.5 9C10.8431 9 9.5 10.3431 9.5 12C9.5 13.6569 10.8431 15 12.5 15C14.1569 15 15.5 13.6569 15.5 12Z" stroke="#222222" stroke-width="1.5"/>
</svg>
