<svg width="16" height="16" viewBox="0 0 16 16" fill="none" xmlns="http://www.w3.org/2000/svg">
<path d="M4.66797 14V12" stroke="#141B34" stroke-width="1.5" stroke-linecap="round" stroke-linejoin="round"/>
<path d="M11.332 14V10" stroke="#141B34" stroke-width="1.5" stroke-linecap="round" stroke-linejoin="round"/>
<path d="M11.332 4V2" stroke="#141B34" stroke-width="1.5" stroke-linecap="round" stroke-linejoin="round"/>
<path d="M4.66797 6V2" stroke="#141B34" stroke-width="1.5" stroke-linecap="round" stroke-linejoin="round"/>
<path d="M4.66797 12C4.04672 12 3.73609 12 3.49106 11.8985C3.16436 11.7632 2.90479 11.5036 2.76946 11.1769C2.66797 10.9319 2.66797 10.6213 2.66797 10C2.66797 9.37873 2.66797 9.06813 2.76946 8.82307C2.90479 8.4964 3.16436 8.2368 3.49106 8.10147C3.73609 8 4.04672 8 4.66797 8C5.28922 8 5.59985 8 5.84488 8.10147C6.17158 8.2368 6.43115 8.4964 6.56648 8.82307C6.66797 9.06813 6.66797 9.37873 6.66797 10C6.66797 10.6213 6.66797 10.9319 6.56648 11.1769C6.43115 11.5036 6.17158 11.7632 5.84488 11.8985C5.59985 12 5.28922 12 4.66797 12Z" stroke="#141B34" stroke-width="1.5"/>
<path d="M11.332 8C10.7108 8 10.4002 8 10.1551 7.89853C9.82843 7.7632 9.56883 7.5036 9.4335 7.17693C9.33203 6.93187 9.33203 6.62125 9.33203 6C9.33203 5.37875 9.33203 5.06812 9.4335 4.82309C9.56883 4.49639 9.82843 4.23682 10.1551 4.10149C10.4002 4 10.7108 4 11.332 4C11.9533 4 12.2639 4 12.509 4.10149C12.8356 4.23682 13.0952 4.49639 13.2306 4.82309C13.332 5.06812 13.332 5.37875 13.332 6C13.332 6.62125 13.332 6.93187 13.2306 7.17693C13.0952 7.5036 12.8356 7.7632 12.509 7.89853C12.2639 8 11.9533 8 11.332 8Z" stroke="#141B34" stroke-width="1.5"/>
</svg>
