<svg width="25" height="24" viewBox="0 0 25 24" fill="none" xmlns="http://www.w3.org/2000/svg">
<g clip-path="url(#clip0_415_551)">
<path d="M12.6152 2.16225C15.8193 2.16225 16.1988 2.17444 17.4642 2.23209C18.6342 2.28553 19.2696 2.481 19.6925 2.64534C20.2526 2.86303 20.6523 3.12309 21.0722 3.543C21.4922 3.96291 21.7522 4.36266 21.9699 4.92272C22.1342 5.34562 22.3297 5.98106 22.3831 7.15097C22.4408 8.41641 22.453 8.79591 22.453 12C22.453 15.2042 22.4408 15.5837 22.3831 16.849C22.3297 18.019 22.1342 18.6544 21.9699 19.0773C21.7522 19.6373 21.4921 20.0372 21.0722 20.4571C20.6523 20.877 20.2526 21.1371 19.6925 21.3547C19.2696 21.519 18.6342 21.7146 17.4642 21.7679C16.199 21.8257 15.8195 21.8378 12.6152 21.8378C9.41086 21.8378 9.03136 21.8257 7.7662 21.7679C6.5962 21.7145 5.96086 21.519 5.53795 21.3547C4.97789 21.1371 4.57805 20.877 4.15814 20.4571C3.73823 20.0371 3.47817 19.6373 3.26058 19.0773C3.09623 18.6545 2.90067 18.019 2.84733 16.849C2.78958 15.5837 2.77739 15.2042 2.77739 12C2.77739 8.79591 2.78958 8.41641 2.84733 7.15106C2.90077 5.98106 3.09623 5.34562 3.26058 4.92272C3.47817 4.36266 3.73823 3.96291 4.15814 3.543C4.57814 3.123 4.97789 2.86303 5.53795 2.64534C5.96077 2.481 6.5962 2.28553 7.7662 2.23209C9.03155 2.17444 9.41105 2.16225 12.6152 2.16225ZM12.6152 0C9.3562 0 8.94755 0.0137812 7.66767 0.0721875C6.39033 0.1305 5.51798 0.333375 4.75477 0.63C3.96558 0.936656 3.29639 1.347 2.62927 2.01412C1.96214 2.68125 1.55189 3.35044 1.24523 4.13953C0.948516 4.90284 0.745734 5.77519 0.687422 7.05244C0.629016 8.33231 0.615234 8.74097 0.615234 12C0.615234 15.259 0.629016 15.6677 0.687422 16.9476C0.745734 18.2249 0.948516 19.0972 1.24523 19.8605C1.5518 20.6496 1.96214 21.3188 2.62927 21.986C3.29639 22.6531 3.96558 23.0633 4.75477 23.37C5.51808 23.6667 6.39033 23.8695 7.66758 23.9278C8.94755 23.9862 9.3562 24 12.6152 24C15.8743 24 16.2829 23.9862 17.5628 23.9278C18.84 23.8695 19.7124 23.6667 20.4756 23.37C21.2648 23.0634 21.934 22.6531 22.6011 21.986C23.2682 21.3188 23.6786 20.6497 23.9852 19.8605C24.2819 19.0972 24.4847 18.2249 24.543 16.9477C24.6015 15.6677 24.6152 15.259 24.6152 12C24.6152 8.74097 24.6015 8.33231 24.543 7.05244C24.4847 5.77519 24.2819 4.90284 23.9852 4.13962C23.6786 3.35044 23.2682 2.68125 22.6011 2.01412C21.934 1.347 21.2648 0.936562 20.4757 0.63C19.7124 0.333375 18.84 0.1305 17.5628 0.0721875C16.2829 0.0137812 15.8743 0 12.6152 0ZM12.6152 5.83781C9.21192 5.83781 6.45305 8.59688 6.45305 12C6.45305 15.4033 9.21192 18.1622 12.6152 18.1622C16.0185 18.1622 18.7774 15.4033 18.7774 12C18.7774 8.59678 16.0185 5.83781 12.6152 5.83781ZM12.6152 16C10.4061 16 8.6152 14.2091 8.6152 12C8.6152 9.79088 10.4061 7.99997 12.6152 7.99997C14.8244 7.99997 16.6153 9.79088 16.6153 12C16.6153 14.2091 14.8244 16 12.6152 16ZM20.4608 5.59434C20.4608 6.38972 19.8162 7.03434 19.0208 7.03434C18.2255 7.03434 17.5808 6.38972 17.5808 5.59434C17.5808 4.79906 18.2255 4.15434 19.0208 4.15434C19.8162 4.15434 20.4608 4.79906 20.4608 5.59434Z" fill="#00272C"/>
</g>
<defs>
<clipPath id="clip0_415_551">
<rect width="24" height="24" fill="white" transform="translate(0.615234)"/>
</clipPath>
</defs>
</svg>
