<svg width="36" height="36" viewBox="0 0 36 36" fill="none" xmlns="http://www.w3.org/2000/svg">
<path d="M17.9998 4.5C16.0948 4.5 14.3998 5.7 13.7698 7.5H4.49978V10.5H7.42478L2.99978 21C2.29478 24 4.49978 25.5 8.24978 25.5C11.9998 25.5 14.3398 24 13.4998 21L9.07478 10.5H13.7548C14.2498 11.775 15.2248 12.75 16.4998 13.245V30H2.99978V33H32.9998V30H19.4998V13.23C20.7748 12.75 21.7498 11.775 22.2298 10.5H26.9248L22.4998 21C21.7948 24 23.9998 25.5 27.7498 25.5C31.4998 25.5 33.8398 24 32.9998 21L28.5748 10.5H31.4998V7.5H22.2448C21.5998 5.7 19.9048 4.5 17.9998 4.5ZM17.9998 7.5C18.3976 7.5 18.7791 7.65804 19.0604 7.93934C19.3417 8.22064 19.4998 8.60218 19.4998 9C19.4998 9.39782 19.3417 9.77936 19.0604 10.0607C18.7791 10.342 18.3976 10.5 17.9998 10.5C17.602 10.5 17.2204 10.342 16.9391 10.0607C16.6578 9.77936 16.4998 9.39782 16.4998 9C16.4998 8.60218 16.6578 8.22064 16.9391 7.93934C17.2204 7.65804 17.602 7.5 17.9998 7.5ZM8.24978 15.375L10.4998 21H5.99978L8.24978 15.375ZM27.7498 15.375L29.9998 21H25.4998L27.7498 15.375Z" fill="#333333"/>
</svg>
