<svg width="36" height="36" viewBox="0 0 36 36" fill="none" xmlns="http://www.w3.org/2000/svg">
<path fill-rule="evenodd" clip-rule="evenodd" d="M24.2053 7.09237L26.9503 9.83737C30.9838 13.8724 32.9998 15.8884 32.9998 18.3934C32.9998 20.8999 30.9838 22.9159 26.9503 26.9494C22.9153 30.9844 20.8993 33.0004 18.3928 33.0004C15.8878 33.0004 13.8703 30.9844 9.8368 26.9509L7.0918 24.2059C4.7743 21.8869 3.6148 20.7289 3.1843 19.2244C2.7523 17.7199 3.1213 16.1224 3.8593 12.9289L4.2838 11.0869C4.9033 8.39887 5.2138 7.05487 6.1333 6.13387C7.0543 5.21437 8.3983 4.90387 11.0863 4.28437L12.9283 3.85837C16.1233 3.12187 17.7193 2.75287 19.2238 3.18337C20.7283 3.61537 21.8878 4.77487 24.2053 7.09237ZM16.7188 21.4924C15.7093 20.4844 15.7168 19.0354 16.3213 17.8879C16.1716 17.6717 16.1024 17.41 16.1257 17.1481C16.1489 16.8862 16.2631 16.6407 16.4485 16.4543C16.6338 16.2679 16.8787 16.1522 17.1404 16.1275C17.4021 16.1027 17.6643 16.1705 17.8813 16.3189C18.3913 16.0489 18.9508 15.9049 19.5088 15.9109C19.8072 15.9137 20.0922 16.0348 20.3012 16.2478C20.5102 16.4607 20.6261 16.748 20.6233 17.0464C20.6205 17.3447 20.4993 17.6298 20.2864 17.8388C20.0734 18.0478 19.7862 18.1637 19.4878 18.1609C19.1405 18.1737 18.8122 18.323 18.5743 18.5764C17.9938 19.1569 18.1453 19.7389 18.3088 19.9024C18.4738 20.0659 19.0543 20.2174 19.6348 19.6369C20.8108 18.4609 22.8418 18.0709 24.1423 19.3714C25.1518 20.3809 25.1443 21.8299 24.5398 22.9774C24.6885 23.1936 24.757 23.455 24.7333 23.7163C24.7097 23.9776 24.5954 24.2225 24.4103 24.4085C24.2252 24.5945 23.9809 24.7099 23.7197 24.7348C23.4584 24.7597 23.1967 24.6925 22.9798 24.5449C22.3067 24.9141 21.5259 25.0371 20.7718 24.8929C20.4794 24.8328 20.2228 24.659 20.0586 24.4098C19.8943 24.1606 19.8357 23.8563 19.8958 23.5639C19.9559 23.2715 20.1296 23.0149 20.3789 22.8506C20.6281 22.6863 20.9324 22.6278 21.2248 22.6879C21.4903 22.7434 21.9193 22.6564 22.2868 22.2889C22.8673 21.7069 22.7158 21.1264 22.5523 20.9629C22.3873 20.7994 21.8068 20.6479 21.2263 21.2284C20.0503 22.4044 18.0193 22.7944 16.7188 21.4924ZM15.0298 15.4399C15.3083 15.1612 15.5293 14.8305 15.68 14.4665C15.8307 14.1024 15.9082 13.7123 15.9081 13.3183C15.9081 12.9244 15.8304 12.5343 15.6796 12.1703C15.5287 11.8063 15.3077 11.4757 15.029 11.1971C14.7504 10.9186 14.4197 10.6977 14.0556 10.547C13.6916 10.3963 13.3015 10.3187 12.9075 10.3188C12.5135 10.3189 12.1234 10.3965 11.7595 10.5474C11.3955 10.6982 11.0648 10.9192 10.7863 11.1979C10.2238 11.7606 9.90783 12.5237 9.90797 13.3194C9.90811 14.1151 10.2243 14.8781 10.7871 15.4406C11.3498 16.0031 12.1129 16.3191 12.9086 16.3189C13.7042 16.3188 14.4673 16.0026 15.0298 15.4399Z" fill="#333333"/>
</svg>
