<svg width="17" height="15" viewBox="0 0 17 15" fill="none" xmlns="http://www.w3.org/2000/svg">
<path d="M0.19 11.5C0.134 11.5 0.0873334 11.486 0.05 11.458C0.0126667 11.4207 -0.00599997 11.3693 -0.00599997 11.304V1.014C-0.00599997 0.948666 0.0126667 0.901999 0.05 0.873999C0.0873334 0.836666 0.134 0.818 0.19 0.818H4.404C5.44933 0.818 6.27067 1.07933 6.868 1.602C7.47467 2.11533 7.778 2.89467 7.778 3.94C7.778 4.60267 7.638 5.172 7.358 5.648C7.08733 6.124 6.7 6.48333 6.196 6.726C6.084 6.782 6.05133 6.87067 6.098 6.992L7.904 11.276C7.91333 11.2947 7.918 11.3227 7.918 11.36C7.918 11.4533 7.862 11.5 7.75 11.5H6.252C6.14933 11.5 6.07467 11.4487 6.028 11.346L4.39 7.3C4.34333 7.19733 4.26867 7.146 4.166 7.146H1.968C1.83733 7.146 1.772 7.21133 1.772 7.342V11.304C1.772 11.4347 1.70667 11.5 1.576 11.5H0.19ZM4.166 5.592C4.77267 5.592 5.23467 5.45667 5.552 5.186C5.86933 4.906 6.028 4.50933 6.028 3.996C6.028 3.48267 5.86467 3.09067 5.538 2.82C5.22067 2.54933 4.76333 2.414 4.166 2.414H1.968C1.83733 2.414 1.772 2.47933 1.772 2.61V5.396C1.772 5.52667 1.83733 5.592 1.968 5.592H4.166ZM13.402 3.52C14.0833 3.52 14.6806 3.69267 15.194 4.038C15.7166 4.374 16.1226 4.85 16.412 5.466C16.7013 6.082 16.846 6.78667 16.846 7.58C16.846 8.37333 16.7013 9.078 16.412 9.694C16.1226 10.31 15.7166 10.7907 15.194 11.136C14.6806 11.472 14.0833 11.64 13.402 11.64C12.954 11.64 12.5666 11.5747 12.24 11.444C11.9133 11.304 11.596 11.0613 11.288 10.716C11.2506 10.66 11.204 10.632 11.148 10.632C11.1293 10.632 11.1106 10.646 11.092 10.674C11.0733 10.702 11.064 10.7393 11.064 10.786V14.16C11.064 14.2907 10.9986 14.356 10.868 14.356H9.60795C9.47729 14.356 9.41195 14.2907 9.41195 14.16V3.87C9.41195 3.73933 9.47729 3.674 9.60795 3.674H10.868C10.9986 3.674 11.064 3.73933 11.064 3.87V4.416C11.064 4.5 11.092 4.542 11.148 4.542C11.1853 4.542 11.232 4.514 11.288 4.458C11.596 4.11267 11.9133 3.87 12.24 3.73C12.5666 3.59 12.954 3.52 13.402 3.52ZM13.066 4.948C12.646 4.948 12.2726 5.06 11.946 5.284C11.6193 5.508 11.3626 5.82067 11.176 6.222C10.9893 6.62333 10.896 7.076 10.896 7.58C10.896 8.084 10.9893 8.53667 11.176 8.938C11.3626 9.33933 11.6193 9.652 11.946 9.876C12.2726 10.1 12.646 10.212 13.066 10.212C13.71 10.212 14.2233 9.96467 14.606 9.47C14.9886 8.97533 15.18 8.34533 15.18 7.58C15.18 6.81467 14.9886 6.18467 14.606 5.69C14.2233 5.19533 13.71 4.948 13.066 4.948Z" fill="#222222"/>
</svg>
