<svg width="20" height="20" viewBox="0 0 20 20" fill="none" xmlns="http://www.w3.org/2000/svg">
<path d="M9.99846 0L10.1166 0.00699996L10.1757 0.0150001L10.2368 0.0280001L10.3479 0.062C10.4247 0.0902631 10.4977 0.127881 10.5652 0.174L10.6693 0.256L10.9246 0.474C12.9445 2.14956 15.4974 3.0493 18.1228 3.011L18.4653 3.001C18.6892 2.9908 18.91 3.0559 19.0924 3.1859C19.2749 3.31589 19.4084 3.50325 19.4716 3.718C19.9636 5.38957 20.1142 7.14287 19.9143 8.87371C19.7145 10.6046 19.1683 12.2776 18.3082 13.7935C17.4482 15.3093 16.2918 16.6371 14.9078 17.6978C13.5238 18.7585 11.9404 19.5305 10.2518 19.968C10.087 20.0107 9.91397 20.0107 9.74914 19.968C8.06041 19.5306 6.47693 18.7587 5.09283 17.698C3.70872 16.6373 2.55223 15.3096 1.69207 13.7938C0.831917 12.2779 0.285652 10.6048 0.0857411 8.8739C-0.11417 7.14301 0.0363518 5.38964 0.528362 3.718C0.591553 3.50325 0.725053 3.31589 0.907494 3.1859C1.08994 3.0559 1.31077 2.9908 1.53465 3.001C4.27561 3.12613 6.96465 2.22499 9.07528 0.474L9.33862 0.249L9.43474 0.174C9.50228 0.127881 9.57526 0.0902631 9.65202 0.062L9.76416 0.0280001C9.80341 0.0185337 9.8432 0.01152 9.88332 0.00699996L9.99846 0ZM10.0005 7C9.49524 6.99984 9.00863 7.1904 8.63818 7.53349C8.26772 7.87658 8.0408 8.34684 8.00291 8.84999L7.99791 8.99999L8.00291 9.14999C8.0276 9.4746 8.13126 9.78828 8.30487 10.0638C8.47849 10.3393 8.71683 10.5683 8.99919 10.731V12.5L9.0062 12.617C9.03634 12.8701 9.16211 13.1021 9.35781 13.2657C9.55352 13.4293 9.80438 13.5121 10.0591 13.4972C10.3139 13.4822 10.5534 13.3707 10.7285 13.1854C10.9037 13 11.0015 12.7549 11.0017 12.5L11.0027 10.732C11.3846 10.5118 11.683 10.1719 11.8516 9.76508C12.0203 9.35824 12.0498 8.90717 11.9356 8.48187C11.8214 8.05656 11.5698 7.68079 11.2199 7.41286C10.87 7.14492 10.4414 6.99979 10.0005 7Z" fill="#00272C"/>
</svg>
