<svg width="32" height="32" viewBox="0 0 32 32" fill="none" xmlns="http://www.w3.org/2000/svg">
<rect width="32" height="32" rx="16" fill="#E5FD34"/>
<path d="M16 10.5556C15.5285 10.5556 15.0763 10.3683 14.7429 10.0349C14.4095 9.70146 14.2222 9.24927 14.2222 8.77778C14.2222 8.30628 14.4095 7.8541 14.7429 7.5207C15.0763 7.1873 15.5285 7 16 7C16.4715 7 16.9237 7.1873 17.2571 7.5207C17.5905 7.8541 17.7778 8.30628 17.7778 8.77778C17.7778 9.24927 17.5905 9.70146 17.2571 10.0349C16.9237 10.3683 16.4715 10.5556 16 10.5556ZM16 10.5556V14.1111M16 14.1111C16.7072 14.1111 17.3855 14.3921 17.8856 14.8922C18.3857 15.3923 18.6667 16.0705 18.6667 16.7778C18.6667 17.485 18.3857 18.1633 17.8856 18.6634C17.3855 19.1635 16.7072 19.4444 16 19.4444C15.2928 19.4444 14.6145 19.1635 14.1144 18.6634C13.6143 18.1633 13.3333 17.485 13.3333 16.7778C13.3333 16.0705 13.6143 15.3923 14.1144 14.8922C14.6145 14.3921 15.2928 14.1111 16 14.1111ZM11.2882 20.1554L13.7771 18.3776M20.7111 20.1554L18.2222 18.3776M8 21.2222C8 21.6937 8.1873 22.1459 8.5207 22.4793C8.8541 22.8127 9.30628 23 9.77778 23C10.2493 23 10.7015 22.8127 11.0349 22.4793C11.3683 22.1459 11.5556 21.6937 11.5556 21.2222C11.5556 20.7507 11.3683 20.2985 11.0349 19.9651C10.7015 19.6317 10.2493 19.4444 9.77778 19.4444C9.30628 19.4444 8.8541 19.6317 8.5207 19.9651C8.1873 20.2985 8 20.7507 8 21.2222ZM20.4444 21.2222C20.4444 21.6937 20.6317 22.1459 20.9651 22.4793C21.2985 22.8127 21.7507 23 22.2222 23C22.6937 23 23.1459 22.8127 23.4793 22.4793C23.8127 22.1459 24 21.6937 24 21.2222C24 20.7507 23.8127 20.2985 23.4793 19.9651C23.1459 19.6317 22.6937 19.4444 22.2222 19.4444C21.7507 19.4444 21.2985 19.6317 20.9651 19.9651C20.6317 20.2985 20.4444 20.7507 20.4444 21.2222Z" stroke="#00272C" stroke-width="2" stroke-linecap="round" stroke-linejoin="round"/>
</svg>
