<svg width="29" height="24" viewBox="0 0 29 24" fill="none" xmlns="http://www.w3.org/2000/svg">
<g clip-path="url(#clip0_415_549)">
<path d="M28.6154 2.92282C27.5624 3.40248 26.431 3.72665 25.2435 3.87249C26.4557 3.12608 27.3865 1.9441 27.8248 0.535798C26.6724 1.23833 25.4116 1.7333 24.0968 1.99934C23.0259 0.827243 21.5002 0.0947266 19.8116 0.0947266C16.5693 0.0947266 13.9406 2.79513 13.9406 6.12573C13.9406 6.5985 13.9926 7.05875 14.0926 7.50028C9.21348 7.24868 4.88764 4.84765 1.99201 1.19873C1.48677 2.08948 1.19726 3.12562 1.19726 4.23077C1.19726 6.32324 2.23379 8.16918 3.80898 9.25078C2.87668 9.22079 1.9649 8.96211 1.14976 8.49634C1.14942 8.5216 1.14942 8.54686 1.14942 8.57224C1.14942 11.4944 3.17307 13.932 5.85866 14.4861C4.99415 14.7277 4.08734 14.763 3.20749 14.5895C3.95451 16.9856 6.12269 18.7292 8.69159 18.778C6.68236 20.3955 4.15091 21.3598 1.40048 21.3598C0.926535 21.3598 0.459299 21.3312 0 21.2755C2.59808 22.9867 5.68395 23.9852 8.99932 23.9852C19.7979 23.9852 25.7029 14.795 25.7029 6.82518C25.7029 6.56359 25.6973 6.30349 25.6859 6.04489C26.8352 5.19132 27.8272 4.13409 28.6154 2.92282Z" fill="#00272C"/>
</g>
<defs>
<clipPath id="clip0_415_549">
<rect width="28.6154" height="24" fill="white"/>
</clipPath>
</defs>
</svg>
