<svg width="48" height="48" viewBox="0 0 48 48" fill="none" xmlns="http://www.w3.org/2000/svg">
<path d="M8 24V29.0884C8 35.5784 8 38.8234 9.77214 41.0214C10.1302 41.4654 10.5346 41.8698 10.9787 42.2278C13.1766 44 16.4216 44 22.9116 44C24.3228 44 25.0282 44 25.6744 43.772C25.8088 43.7246 25.9404 43.67 26.069 43.6086C26.6872 43.3128 27.186 42.814 28.1838 41.8162L37.6568 32.3432C38.813 31.187 39.391 30.609 39.6956 29.8738C40 29.1388 40 28.3212 40 26.6862V20C40 12.4575 40 8.6863 37.6568 6.34314C35.3138 4 31.5424 4 24 4M26 43V42C26 36.3432 26 33.5148 27.7574 31.7574C29.5148 30 32.3432 30 38 30H39" stroke="#222222" stroke-width="2.5" stroke-linecap="round" stroke-linejoin="round"/>
<path d="M20 10C18.8203 8.78632 15.6805 4 14 4C12.3195 4 9.17968 8.78632 8 10M14 6V20" stroke="#222222" stroke-width="2.5" stroke-linecap="round" stroke-linejoin="round"/>
</svg>
