<svg width="16" height="16" viewBox="0 0 16 16" fill="none" xmlns="http://www.w3.org/2000/svg">
<path fill-rule="evenodd" clip-rule="evenodd" d="M6.39559 2.13368C6.23324 2.27203 6.15206 2.34122 6.06536 2.39932C5.86663 2.53252 5.64343 2.62497 5.40872 2.67131C5.30633 2.69153 5.20001 2.70001 4.98737 2.71698C4.45312 2.75962 4.18599 2.78093 3.96313 2.85965C3.44766 3.04172 3.04221 3.44717 2.86014 3.96264C2.78142 4.1855 2.76011 4.45263 2.71747 4.98688C2.7005 5.19952 2.69202 5.30584 2.6718 5.40823C2.62546 5.64294 2.53301 5.86614 2.39981 6.06487C2.34171 6.15157 2.27253 6.23274 2.13417 6.3951C1.78654 6.80303 1.61272 7.00696 1.5108 7.22023C1.27505 7.7135 1.27505 8.28683 1.5108 8.7801C1.61273 8.99336 1.78654 9.1973 2.13417 9.60523C2.27251 9.76756 2.34171 9.84876 2.39981 9.93543C2.53301 10.1342 2.62546 10.3574 2.6718 10.5921C2.69202 10.6945 2.7005 10.8008 2.71747 11.0134C2.76011 11.5477 2.78142 11.8148 2.86014 12.0377C3.04221 12.5532 3.44766 12.9586 3.96313 13.1407C4.18599 13.2194 4.45312 13.2407 4.98737 13.2834C5.20001 13.3003 5.30633 13.3088 5.40872 13.329C5.64343 13.3754 5.86663 13.4678 6.06536 13.601C6.15206 13.6591 6.23323 13.7283 6.39559 13.8666C6.80352 14.2143 7.00745 14.3881 7.22072 14.49C7.71399 14.7258 8.28732 14.7258 8.78059 14.49C8.99385 14.3881 9.19779 14.2143 9.60572 13.8666C9.76805 13.7283 9.84925 13.6591 9.93592 13.601C10.1347 13.4678 10.3579 13.3754 10.5926 13.329C10.695 13.3088 10.8013 13.3003 11.0139 13.2834C11.5482 13.2407 11.8153 13.2194 12.0382 13.1407C12.5537 12.9586 12.9591 12.5532 13.1412 12.0377C13.2199 11.8148 13.2412 11.5477 13.2839 11.0134C13.3008 10.8008 13.3093 10.6945 13.3295 10.5921C13.3759 10.3574 13.4683 10.1342 13.6015 9.93543C13.6596 9.84876 13.7288 9.76756 13.8671 9.60523C14.2148 9.1973 14.3886 8.99336 14.4905 8.7801C14.7263 8.28683 14.7263 7.7135 14.4905 7.22023C14.3886 7.00696 14.2148 6.80303 13.8671 6.3951C13.7288 6.23274 13.6596 6.15157 13.6015 6.06487C13.4683 5.86614 13.3759 5.64294 13.3295 5.40823C13.3093 5.30584 13.3008 5.19952 13.2839 4.98688C13.2412 4.45263 13.2199 4.1855 13.1412 3.96264C12.9591 3.44717 12.5537 3.04172 12.0382 2.85965C11.8153 2.78093 11.5482 2.75962 11.0139 2.71698C10.8013 2.70001 10.695 2.69153 10.5926 2.67131C10.3579 2.62497 10.1347 2.53252 9.93592 2.39932C9.84925 2.34122 9.76805 2.27204 9.60572 2.13368C9.19779 1.78605 8.99385 1.61224 8.78059 1.51031C8.28732 1.27456 7.71399 1.27456 7.22072 1.51031C7.00745 1.61223 6.80352 1.78605 6.39559 2.13368ZM10.9163 6.57559C11.1282 6.3637 11.1282 6.02016 10.9163 5.80827C10.7045 5.59638 10.3609 5.59638 10.149 5.80827L6.91552 9.04176L5.85229 7.97856C5.64041 7.7667 5.29687 7.7667 5.08498 7.97856C4.87309 8.19043 4.87309 8.53396 5.08498 8.7459L6.53184 10.1928C6.74372 10.4046 7.08725 10.4046 7.29919 10.1928L10.9163 6.57559Z" fill="#00272C"/>
</svg>
