<svg width="32" height="32" viewBox="0 0 32 32" fill="none" xmlns="http://www.w3.org/2000/svg">
<path d="M22.6654 10.6668V6.66683C22.6654 6.31321 22.5249 5.97407 22.2748 5.72402C22.0248 5.47397 21.6857 5.3335 21.332 5.3335H7.9987C7.29145 5.3335 6.61318 5.61445 6.11308 6.11454C5.61298 6.61464 5.33203 7.29292 5.33203 8.00016M5.33203 8.00016C5.33203 8.70741 5.61298 9.38568 6.11308 9.88578C6.61318 10.3859 7.29145 10.6668 7.9987 10.6668H23.9987C24.3523 10.6668 24.6915 10.8073 24.9415 11.0574C25.1916 11.3074 25.332 11.6465 25.332 12.0002V16.0002M5.33203 8.00016V24.0002C5.33203 24.7074 5.61298 25.3857 6.11308 25.8858C6.61318 26.3859 7.29145 26.6668 7.9987 26.6668H23.9987C24.3523 26.6668 24.6915 26.5264 24.9415 26.2763C25.1916 26.0263 25.332 25.6871 25.332 25.3335V21.3335M26.6654 16.0002V21.3335H21.332C20.6248 21.3335 19.9465 21.0525 19.4464 20.5524C18.9463 20.0524 18.6654 19.3741 18.6654 18.6668C18.6654 17.9596 18.9463 17.2813 19.4464 16.7812C19.9465 16.2811 20.6248 16.0002 21.332 16.0002H26.6654Z" stroke="black" stroke-width="1.5" stroke-linecap="round" stroke-linejoin="round"/>
</svg>
