<svg width="24" height="24" viewBox="0 0 24 24" fill="none" xmlns="http://www.w3.org/2000/svg">
<path d="M3 5.25C3 4.65326 3.23705 4.08097 3.65901 3.65901C4.08097 3.23705 4.65326 3 5.25 3H16.5C17.2956 3 18.0587 3.31607 18.6213 3.87868C19.1839 4.44129 19.5 5.20435 19.5 6V6.402C19.956 6.6653 20.3348 7.044 20.5981 7.50004C20.8614 7.95609 21 8.4734 21 9V18C21 18.7956 20.6839 19.5587 20.1213 20.1213C19.5587 20.6839 18.7956 21 18 21H6.75C5.75544 21 4.80161 20.6049 4.09835 19.9017C3.39509 19.1984 3 18.2446 3 17.25V5.25ZM4.5 5.25C4.5 5.44891 4.57902 5.63968 4.71967 5.78033C4.86032 5.92098 5.05109 6 5.25 6H18C18 5.60218 17.842 5.22064 17.5607 4.93934C17.2794 4.65804 16.8978 4.5 16.5 4.5H5.25C5.05109 4.5 4.86032 4.57902 4.71967 4.71967C4.57902 4.86032 4.5 5.05109 4.5 5.25ZM15.75 12C15.5511 12 15.3603 12.079 15.2197 12.2197C15.079 12.3603 15 12.5511 15 12.75C15 12.9489 15.079 13.1397 15.2197 13.2803C15.3603 13.421 15.5511 13.5 15.75 13.5H17.25C17.4489 13.5 17.6397 13.421 17.7803 13.2803C17.921 13.1397 18 12.9489 18 12.75C18 12.5511 17.921 12.3603 17.7803 12.2197C17.6397 12.079 17.4489 12 17.25 12H15.75Z" fill="#00272C"/>
</svg>
