<svg width="32" height="32" viewBox="0 0 32 32" fill="none" xmlns="http://www.w3.org/2000/svg">
<rect width="32" height="32" rx="16" fill="#E5FD34"/>
<path d="M15 18.0002V26H11C10.2044 26 9.44129 25.6839 8.87868 25.1213C8.31607 24.5588 8 23.7957 8 23.0001V19.0002C8 18.735 8.10536 18.4806 8.29289 18.2931C8.48043 18.1056 8.73478 18.0002 9 18.0002H15ZM23 18.0002C23.2652 18.0002 23.5196 18.1056 23.7071 18.2931C23.8946 18.4806 24 18.735 24 19.0002V23.0001C24 23.7957 23.6839 24.5588 23.1213 25.1213C22.5587 25.6839 21.7956 26 21 26H17V18.0002H23ZM20.5 6.00059C21.0905 6.00047 21.6715 6.14975 22.1888 6.43454C22.706 6.71933 23.1429 7.13038 23.4586 7.6294C23.7743 8.12843 23.9586 8.69922 23.9943 9.28863C24.03 9.87805 23.9161 10.4669 23.663 11.0004H24C24.5304 11.0004 25.0391 11.2111 25.4142 11.5862C25.7893 11.9613 26 12.47 26 13.0004V14.0004C26 14.5308 25.7893 15.0395 25.4142 15.4145C25.0391 15.7896 24.5304 16.0003 24 16.0003H17V11.0004H15V16.0003H8C7.46957 16.0003 6.96086 15.7896 6.58579 15.4145C6.21071 15.0395 6 14.5308 6 14.0004V13.0004C6 12.47 6.21071 11.9613 6.58579 11.5862C6.96086 11.2111 7.46957 11.0004 8 11.0004H8.337C8.11444 10.5318 7.99931 10.0193 8 9.50048C8 7.56754 9.567 6.00059 11.483 6.00059C13.238 5.97059 14.795 7.09255 15.864 8.9345L16 9.17749C17.033 7.26355 18.56 6.06359 20.291 6.00259L20.5 6.00059ZM11.5 8.00053C11.1022 8.00053 10.7206 8.15856 10.4393 8.43985C10.158 8.72115 10 9.10267 10 9.50048C10 9.8983 10.158 10.2798 10.4393 10.5611C10.7206 10.8424 11.1022 11.0004 11.5 11.0004H14.643C13.902 9.0955 12.694 7.98053 11.5 8.00053ZM20.483 8.00053C19.303 7.98053 18.098 9.0965 17.357 11.0004H20.5C20.8978 10.9982 21.2785 10.838 21.5582 10.5551C21.8379 10.2722 21.9938 9.8898 21.9915 9.49198C21.9892 9.09417 21.829 8.71355 21.5462 8.43385C21.2633 8.15414 20.8808 7.99827 20.483 8.00053Z" fill="#00272C"/>
</svg>
