<svg width="32" height="32" viewBox="0 0 32 32" fill="none" xmlns="http://www.w3.org/2000/svg">
<rect width="32" height="32" rx="16" fill="#E5FD34"/>
<path d="M15.9985 6L16.1166 6.007L16.1757 6.015L16.2368 6.028L16.3479 6.062C16.4247 6.09026 16.4977 6.12788 16.5652 6.174L16.6693 6.256L16.9246 6.474C18.9445 8.14956 21.4974 9.0493 24.1228 9.011L24.4653 9.001C24.6892 8.9908 24.91 9.0559 25.0924 9.1859C25.2749 9.31589 25.4084 9.50325 25.4716 9.718C25.9636 11.3896 26.1142 13.1429 25.9143 14.8737C25.7145 16.6046 25.1683 18.2776 24.3082 19.7935C23.4482 21.3093 22.2918 22.6371 20.9078 23.6978C19.5238 24.7585 17.9404 25.5305 16.2518 25.968C16.087 26.0107 15.914 26.0107 15.7491 25.968C14.0604 25.5306 12.4769 24.7587 11.0928 23.698C9.70872 22.6373 8.55223 21.3096 7.69207 19.7938C6.83192 18.2779 6.28565 16.6048 6.08574 14.8739C5.88583 13.143 6.03635 11.3896 6.52836 9.718C6.59155 9.50325 6.72505 9.31589 6.90749 9.1859C7.08994 9.0559 7.31077 8.9908 7.53465 9.001C10.2756 9.12613 12.9647 8.22499 15.0753 6.474L15.3386 6.249L15.4347 6.174C15.5023 6.12788 15.5753 6.09026 15.652 6.062L15.7642 6.028C15.8034 6.01853 15.8432 6.01152 15.8833 6.007L15.9985 6ZM16.0005 13C15.4952 12.9998 15.0086 13.1904 14.6382 13.5335C14.2677 13.8766 14.0408 14.3468 14.0029 14.85L13.9979 15L14.0029 15.15C14.0276 15.4746 14.1313 15.7883 14.3049 16.0638C14.4785 16.3393 14.7168 16.5683 14.9992 16.731V18.5L15.0062 18.617C15.0363 18.8701 15.1621 19.1021 15.3578 19.2657C15.5535 19.4293 15.8044 19.5121 16.0591 19.4972C16.3139 19.4822 16.5534 19.3707 16.7285 19.1854C16.9037 19 17.0015 18.7549 17.0017 18.5L17.0027 16.732C17.3846 16.5118 17.683 16.1719 17.8516 15.7651C18.0203 15.3582 18.0498 14.9072 17.9356 14.4819C17.8214 14.0566 17.5698 13.6808 17.2199 13.4129C16.87 13.1449 16.4414 12.9998 16.0005 13Z" fill="#00272C"/>
</svg>
